<?xml version="1.0" standalone="no"?>
<!DOCTYPE svg PUBLIC "-//W3C//DTD SVG 1.1//EN" "http://www.w3.org/Graphics/SVG/1.1/DTD/svg11.dtd" >
<svg>
<metadata>
Created by FontForge 20110222 at Sun Feb  2 11:21:23 2014
 By Orthosie Webhosting
Joe Prince, Admix Designs. (c) 2008 - 2012
</metadata>
<defs>
<font id="Bemio" horiz-adv-x="1020" >
  <font-face 
    font-family="Bemio"
    font-weight="400"
    font-stretch="normal"
    units-per-em="1000"
    panose-1="2 0 0 0 0 0 0 0 0 0"
    ascent="750"
    descent="-250"
    x-height="530"
    cap-height="676"
    bbox="-172 -431 1918 1137"
    underline-thickness="50"
    underline-position="-50"
    unicode-range="U+0020-FB06"
  />
<missing-glyph horiz-adv-x="427" 
d="M0 676h427v-676h-427v676zM84 204l80 134l-80 133v-267zM213 419l105 173h-209zM318 84l-105 173l-104 -173h209zM263 338l80 -134v267z" />
    <glyph glyph-name="f_b" unicode="fb" horiz-adv-x="1118" 
d="M402 752c149 0 317 -41 317 -233v-43c39 42 90 67 151 67c133 0 223 -124 223 -277s-90 -279 -223 -279c-66 0 -122 32 -161 81v-68h-245v530c0 30 -18 59 -59 59c-22 0 -64 -4 -64 -55v-4h84v-175h-84v-355h-255v355h-56v175h56v2c0 176 160 220 316 220zM772 177
c44 0 74 40 74 89s-30 89 -74 89s-74 -40 -74 -89s30 -89 74 -89z" />
    <glyph glyph-name="f_f" unicode="ff" horiz-adv-x="820" 
d="M675 752c62 0 112 -11 147 -25l-17 -140c-7 1 -16 2 -24 2c-31 0 -62 -4 -62 -55v-4h84v-175h-84v-355h-255v355h-123v-355h-255v355h-56v175h56v2c0 149 97 210 234 210c94 0 150 -30 189 -55c41 49 104 65 166 65zM341 532v-2h123v2c0 9 0 17 1 25
c-16 12 -38 22 -64 22c-28 0 -60 -8 -60 -47z" />
    <glyph glyph-name="fi" unicode="fi" horiz-adv-x="768" 
d="M464 0v355h-123v-355h-255v355h-56v175h56v2c0 176 153 220 297 220c90 0 169 -14 221 -32l-20 -152c-17 6 -77 21 -126 21c-51 0 -117 -4 -117 -55v-4h378v-530h-255z" />
    <glyph glyph-name="f_iogonek" unicode="f&#x12f;" horiz-adv-x="768" 
d="M383 752c90 0 169 -14 221 -32l-20 -152c-17 6 -77 21 -126 21c-51 0 -117 -4 -117 -55v-4h378v-530c-50 -37 -79 -68 -79 -102c0 -32 25 -41 45 -41c21 0 43 8 55 20l39 -25c-25 -36 -73 -63 -135 -63c-54 0 -116 22 -116 82c0 66 69 110 100 129h-164v355h-123v-355
h-255v355h-56v175h56v2c0 176 153 220 297 220z" />
    <glyph glyph-name="f_dotlessi" unicode="f&#x131;" horiz-adv-x="768" 
d="M464 0v355h-123v-355h-255v355h-56v175h56v2c0 176 107 220 211 220c62 0 112 -11 147 -25l-17 -140c-7 1 -16 2 -24 2c-31 0 -62 -4 -62 -55v-4h378v-530h-255z" />
    <glyph glyph-name="f_j" unicode="fj" horiz-adv-x="768" 
d="M383 752c90 0 169 -14 221 -32l-20 -152c-17 6 -77 21 -126 21c-51 0 -117 -4 -117 -55v-4h378v-477c0 -227 -178 -253 -322 -260l-18 161c35 12 85 31 85 88v313h-123v-355h-255v355h-56v175h56v2c0 176 153 220 297 220z" />
    <glyph glyph-name="f_k" unicode="fk" horiz-adv-x="1098" 
d="M921 314l184 -314h-271l-115 216v-216h-255v530c0 30 -18 59 -59 59c-22 0 -64 -4 -64 -55v-4h84v-175h-84v-355h-255v355h-56v175h56v2c0 176 160 220 316 220c149 0 317 -41 317 -233v-160l108 171h257z" />
    <glyph glyph-name="f_kacute" unicode="f&#x1e31;" horiz-adv-x="1098" 
d="M840 966l-164 -155h-145l110 155h199zM921 314l184 -314h-271l-115 216v-216h-255v530c0 30 -18 59 -59 59c-22 0 -64 -4 -64 -55v-4h84v-175h-84v-355h-255v355h-56v175h56v2c0 176 160 220 316 220c149 0 317 -41 317 -233v-160l108 171h257z" />
    <glyph glyph-name="f_kcaron" unicode="f&#x1e9;" horiz-adv-x="1098" 
d="M989 964l-119 -155h-194l-119 155h145l71 -70l71 70h145zM921 314l184 -314h-271l-115 216v-216h-255v530c0 30 -18 59 -59 59c-22 0 -64 -4 -64 -55v-4h84v-175h-84v-355h-255v355h-56v175h56v2c0 176 160 220 316 220c149 0 317 -41 317 -233v-160l108 171h257z" />
    <glyph glyph-name="f_kcedilla" unicode="f&#xb8;" horiz-adv-x="1098" 
d="M921 314l184 -314h-271l-115 216v-216h-65l-38 -58c64 -2 117 -35 117 -84c0 -50 -41 -91 -125 -91c-55 0 -94 8 -140 26l26 58c37 -8 122 -24 122 26c0 26 -53 33 -86 35l51 88h-117v530c0 30 -18 59 -59 59c-22 0 -64 -4 -64 -55v-4h84v-175h-84v-355h-255v355h-56v175
h56v2c0 176 160 220 316 220c149 0 317 -41 317 -233v-160l108 171h257z" />
    <glyph glyph-name="f_kcommaaccent" unicode="f&#x137;" horiz-adv-x="1098" 
d="M674 -73h186v-144l-89 -131h-92l72 117h-77v158zM921 314l184 -314h-271l-115 216v-216h-255v530c0 30 -18 59 -59 59c-22 0 -64 -4 -64 -55v-4h84v-175h-84v-355h-255v355h-56v175h56v2c0 176 160 220 316 220c149 0 317 -41 317 -233v-160l108 171h257z" />
    <glyph glyph-name="f_kdotbelow" unicode="f&#x1e33;" horiz-adv-x="1098" 
d="M921 314l184 -314h-271l-115 216v-216h-255v530c0 30 -18 59 -59 59c-22 0 -64 -4 -64 -55v-4h84v-175h-84v-355h-255v355h-56v175h56v2c0 176 160 220 316 220c149 0 317 -41 317 -233v-160l108 171h257zM691 -204v131h163v-131h-163z" />
    <glyph glyph-name="f_klinebelow" unicode="f&#x1e35;" horiz-adv-x="1098" 
d="M579 -174v101h357v-101h-357zM921 314l184 -314h-271l-115 216v-216h-255v530c0 30 -18 59 -59 59c-22 0 -64 -4 -64 -55v-4h84v-175h-84v-355h-255v355h-56v175h56v2c0 176 160 220 316 220c149 0 317 -41 317 -233v-160l108 171h257z" />
    <glyph glyph-name="fl" unicode="fl" horiz-adv-x="769" 
d="M402 752c149 0 317 -41 317 -233v-519h-255v530c0 30 -18 59 -59 59c-22 0 -64 -4 -64 -55v-4h84v-175h-84v-355h-255v355h-56v175h56v2c0 176 160 220 316 220z" />
    <glyph glyph-name="f_lacute" unicode="f&#x13a;" horiz-adv-x="769" 
d="M464 0v530c0 30 -18 59 -59 59c-22 0 -64 -4 -64 -55v-4h84v-175h-84v-355h-255v355h-56v175h56v2c0 176 160 220 316 220c149 0 317 -41 317 -233v-519h-255zM797 937l-164 -155h-145l110 155h199z" />
    <glyph glyph-name="f_lcaron" unicode="f&#x13e;" horiz-adv-x="904" 
d="M464 0v530c0 30 -18 59 -59 59c-22 0 -64 -4 -64 -55v-4h84v-175h-84v-355h-255v355h-56v175h56v2c0 176 160 220 316 220c149 0 317 -41 317 -233v-519h-255zM783 739h186v-144l-89 -131h-92l72 117h-77v158z" />
    <glyph glyph-name="f_f_b" unicode="ffb" horiz-adv-x="1496" 
d="M1248 543c133 0 223 -124 223 -277s-90 -279 -223 -279c-66 0 -122 32 -161 81v-68h-245v530c0 30 -18 59 -59 59c-22 0 -64 -4 -64 -55v-4h84v-175h-84v-355h-255v355h-123v-355h-255v355h-56v175h56v2c0 149 97 210 234 210c105 0 162 -37 202 -63l-1 -2
c61 57 160 75 259 75c149 0 317 -41 317 -233v-43c39 42 90 67 151 67zM1150 177c44 0 74 40 74 89s-30 89 -74 89s-74 -40 -74 -89s30 -89 74 -89zM341 532v-2h123v2c0 9 0 17 1 25c-16 12 -38 22 -64 22c-28 0 -60 -8 -60 -47z" />
    <glyph glyph-name="f_f_f" unicode="fff" horiz-adv-x="1198" 
d="M1053 752c62 0 112 -11 147 -25l-17 -140c-7 1 -16 2 -24 2c-31 0 -62 -4 -62 -55v-4h84v-175h-84v-355h-255v355h-123v-355h-255v355h-123v-355h-255v355h-56v175h56v2c0 149 97 210 234 210c99 0 156 -34 196 -59c41 44 105 66 182 66c97 0 154 -32 193 -58
c41 46 102 61 162 61zM719 532v-2h123v2c0 11 0 22 1 33c-14 11 -35 21 -64 21c-32 0 -60 -15 -60 -54zM341 532v-2h123v2c0 9 0 17 1 25c-16 12 -38 22 -64 22c-28 0 -60 -8 -60 -47z" />
    <glyph glyph-name="f_f_h" unicode="ffh" horiz-adv-x="1491" 
d="M780 752c149 0 317 -41 317 -233v-38c36 37 89 62 158 62c107 0 191 -78 191 -183v-360h-255v303c0 27 -21 49 -47 49s-47 -22 -47 -49v-303h-255v530c0 30 -18 59 -59 59c-22 0 -64 -4 -64 -55v-4h84v-175h-84v-355h-255v355h-123v-355h-255v355h-56v175h56v2
c0 149 97 210 234 210c105 0 162 -37 202 -63l-1 -2c61 57 160 75 259 75zM341 530h123v2c0 9 0 17 1 25c-16 12 -38 22 -64 22c-28 0 -60 -8 -60 -47v-2z" />
    <glyph glyph-name="f_f_i" unicode="ffi" horiz-adv-x="1146" 
d="M842 0v355h-123v-355h-255v355h-123v-355h-255v355h-56v175h56v2c0 149 97 210 234 210c104 0 161 -36 201 -62c57 55 150 72 240 72s169 -14 221 -32l-20 -152c-17 6 -77 21 -126 21c-51 0 -117 -4 -117 -55v-4h378v-530h-255zM341 530h123v2c0 9 0 17 1 25
c-16 12 -38 22 -64 22c-28 0 -60 -8 -60 -47v-2z" />
    <glyph glyph-name="f_f_iacute" unicode="ff&#xb4;" horiz-adv-x="1146" 
d="M842 0v355h-123v-355h-255v355h-123v-355h-255v355h-56v175h56v2c0 149 97 210 234 210c94 0 150 -30 189 -55c41 49 104 65 166 65s112 -11 147 -25l-17 -140c-7 1 -16 2 -24 2c-31 0 -62 -4 -62 -55v-4h378v-530h-255zM1176 745l-164 -155h-145l110 155h199zM341 530
h123v2c0 9 0 17 1 25c-16 12 -38 22 -64 22c-28 0 -60 -8 -60 -47v-2z" />
    <glyph glyph-name="f_f_iogonek" unicode="ff&#x12f;" horiz-adv-x="1146" 
d="M761 752c90 0 169 -14 221 -32l-20 -152c-17 6 -77 21 -126 21c-51 0 -117 -4 -117 -55v-4h378v-530c-50 -37 -79 -68 -79 -102c0 -32 25 -41 45 -41c21 0 43 8 55 20l39 -25c-25 -36 -73 -63 -135 -63c-54 0 -116 22 -116 82c0 66 69 110 100 129h-164v355h-123v-355
h-255v355h-123v-355h-255v355h-56v175h56v2c0 149 97 210 234 210c104 0 161 -36 201 -62c57 55 150 72 240 72zM341 530h123v2c0 9 0 17 1 25c-16 12 -38 22 -64 22c-28 0 -60 -8 -60 -47v-2z" />
    <glyph glyph-name="f_f_dotlessi" unicode="ff&#x131;" horiz-adv-x="1146" 
d="M842 0v355h-123v-355h-255v355h-123v-355h-255v355h-56v175h56v2c0 149 97 210 234 210c94 0 150 -30 189 -55c41 49 104 65 166 65s112 -11 147 -25l-17 -140c-7 1 -16 2 -24 2c-31 0 -62 -4 -62 -55v-4h378v-530h-255zM341 530h123v2c0 9 0 17 1 25
c-16 12 -38 22 -64 22c-28 0 -60 -8 -60 -47v-2z" />
    <glyph glyph-name="f_f_j" unicode="ffj" horiz-adv-x="1146" 
d="M761 752c90 0 169 -14 221 -32l-20 -152c-17 6 -77 21 -126 21c-51 0 -117 -4 -117 -55v-4h378v-477c0 -227 -178 -253 -322 -260l-18 161c35 12 85 31 85 88v313h-123v-355h-255v355h-123v-355h-255v355h-56v175h56v2c0 149 97 210 234 210c104 0 161 -36 201 -62
c57 55 150 72 240 72zM341 532v-2h123v2c0 9 0 17 1 25c-16 12 -38 22 -64 22c-28 0 -60 -8 -60 -47z" />
    <glyph glyph-name="f_f_k" unicode="ffk" horiz-adv-x="1476" 
d="M780 752c149 0 317 -41 317 -233v-160l108 171h257l-163 -216l184 -314h-271l-115 216v-216h-255v530c0 30 -18 59 -59 59c-22 0 -64 -4 -64 -55v-4h84v-175h-84v-355h-255v355h-123v-355h-255v355h-56v175h56v2c0 149 97 210 234 210c105 0 162 -37 202 -63l-1 -2
c61 57 160 75 259 75zM341 532v-2h123v2c0 9 0 17 1 25c-16 12 -38 22 -64 22c-28 0 -60 -8 -60 -47z" />
    <glyph glyph-name="f_f_l" unicode="ffl" horiz-adv-x="1147" 
d="M842 0v530c0 30 -18 59 -59 59c-22 0 -64 -4 -64 -55v-4h84v-175h-84v-355h-255v355h-123v-355h-255v355h-56v175h56v2c0 149 97 210 234 210c105 0 162 -37 202 -63l-1 -2c61 57 160 75 259 75c149 0 317 -41 317 -233v-519h-255zM341 532v-2h123v2c0 9 0 17 1 25
c-16 12 -38 22 -64 22c-28 0 -60 -8 -60 -47z" />
    <glyph glyph-name="f_f_t" unicode="fft" horiz-adv-x="1229" 
d="M675 752c62 0 112 -11 147 -25l-17 -140c-7 1 -16 2 -24 2c-31 0 -62 -4 -62 -55v-4h123v123h255v-123h92v-175h-92v-141c0 -42 31 -57 62 -57c9 0 19 1 27 2l20 -141c-39 -17 -105 -31 -171 -31c-113 0 -193 41 -193 165v203h-123v-355h-255v355h-123v-355h-255v355h-56
v175h56v2c0 149 97 210 234 210c94 0 150 -30 189 -55c41 49 104 65 166 65zM341 532v-2h123v2c0 9 0 17 1 25c-16 12 -38 22 -64 22c-28 0 -60 -8 -60 -47z" />
    <glyph glyph-name="t_f" unicode="tf" horiz-adv-x="846" 
d="M701 752c62 0 112 -11 147 -25l-17 -140c-7 1 -16 2 -24 2c-31 0 -62 -4 -62 -55v-4h84v-175h-84v-355h-255v355h-153v-141c0 -42 31 -57 62 -57c9 0 19 1 27 2l20 -141c-39 -17 -105 -31 -171 -31c-113 0 -193 41 -193 165v203h-55v175h55v123h255v-123h153v2
c0 176 107 220 211 220z" />
    <glyph glyph-name="t_i" unicode="ti" horiz-adv-x="794" 
d="M490 0v355h-153v-141c0 -42 31 -57 62 -57c9 0 19 1 27 2l20 -141c-39 -17 -105 -31 -171 -31c-113 0 -193 41 -193 165v203h-55v175h55v123h255v-123h408v-530h-255zM748 739v-158h-261v158h261z" />
    <glyph glyph-name="t_iacute" unicode="t&#xed;" horiz-adv-x="794" 
d="M27 355v175h55v123h255v-123h408v-530h-255v355h-153v-141c0 -42 31 -57 62 -57c9 0 19 1 27 2l20 -141c-39 -17 -105 -31 -171 -31c-113 0 -193 41 -193 165v203h-55zM824 745l-164 -155h-145l110 155h199z" />
    <glyph glyph-name="t_ibreve" unicode="t&#x12d;" horiz-adv-x="794" 
d="M27 355v175h55v123h255v-123h408v-530h-255v355h-153v-141c0 -42 31 -57 62 -57c9 0 19 1 27 2l20 -141c-39 -17 -105 -31 -171 -31c-113 0 -193 41 -193 165v203h-55zM713 740h91c-9 -103 -82 -154 -187 -154s-178 51 -187 154h91c10 -42 52 -60 96 -60s86 18 96 60z
" />
    <glyph glyph-name="t_icircumflex" unicode="t&#xee;" horiz-adv-x="794" 
d="M27 355v175h55v123h255v-123h408v-530h-255v355h-153v-141c0 -42 31 -57 62 -57c9 0 19 1 27 2l20 -141c-39 -17 -105 -31 -171 -31c-113 0 -193 41 -193 165v203h-55zM714 745l119 -155h-145l-71 70l-71 -70h-145l119 155h194z" />
    <glyph glyph-name="t_idieresis" unicode="t&#xef;" horiz-adv-x="794" 
d="M27 355v175h55v123h255v-123h408v-530h-255v355h-153v-141c0 -42 31 -57 62 -57c9 0 19 1 27 2l20 -141c-39 -17 -105 -31 -171 -31c-113 0 -193 41 -193 165v203h-55zM662 598v131h163v-131h-163zM410 598v131h163v-131h-163z" />
    <glyph glyph-name="t_igrave" unicode="t`" horiz-adv-x="794" 
d="M27 355v175h55v123h255v-123h408v-530h-255v355h-153v-141c0 -42 31 -57 62 -57c9 0 19 1 27 2l20 -141c-39 -17 -105 -31 -171 -31c-113 0 -193 41 -193 165v203h-55zM580 590l-164 155h199l110 -155h-145z" />
    <glyph glyph-name="t_imacron" unicode="t&#x12b;" horiz-adv-x="794" 
d="M27 355v175h55v123h255v-123h408v-530h-255v355h-153v-141c0 -42 31 -57 62 -57c9 0 19 1 27 2l20 -141c-39 -17 -105 -31 -171 -31c-113 0 -193 41 -193 165v203h-55zM439 609v101h357v-101h-357z" />
    <glyph glyph-name="t_iogonek" unicode="t&#x12f;" horiz-adv-x="794" 
d="M27 355v175h55v123h255v-123h408v-530c-50 -37 -79 -68 -79 -102c0 -32 25 -41 45 -41c21 0 43 8 55 20l39 -25c-25 -36 -73 -63 -135 -63c-54 0 -116 22 -116 82c0 66 69 110 100 129h-164v355h-153v-141c0 -42 31 -57 62 -57c9 0 19 1 27 2l20 -141
c-39 -17 -105 -31 -171 -31c-113 0 -193 41 -193 165v203h-55zM748 739v-158h-261v158h261z" />
    <glyph glyph-name="t_itilde" unicode="t&#x129;" horiz-adv-x="794" 
d="M27 355v175h55v123h255v-123h408v-530h-255v355h-153v-141c0 -42 31 -57 62 -57c9 0 19 1 27 2l20 -141c-39 -17 -105 -31 -171 -31c-113 0 -193 41 -193 165v203h-55zM415 588c0 64 46 154 126 154c77 0 109 -50 148 -50c20 0 41 24 49 55h83c-1 -73 -54 -162 -128 -162
c-76 0 -100 49 -150 49c-22 0 -40 -23 -47 -46h-81z" />
    <glyph glyph-name="t_t" unicode="tt" horiz-adv-x="877" 
d="M337 355v-141c0 -42 31 -57 62 -57c9 0 19 1 27 2l20 -141c-39 -17 -105 -31 -171 -31c-113 0 -193 41 -193 165v203h-55v175h55v123h255v-123h153v123h255v-123h92v-175h-92v-141c0 -42 31 -57 62 -57c9 0 19 1 27 2l20 -141c-39 -17 -105 -31 -171 -31
c-113 0 -193 41 -193 165v203h-153z" />
    <glyph glyph-name="t_dotlessi" unicode="t&#x131;" horiz-adv-x="794" 
d="M27 355v175h55v123h255v-123h408v-530h-255v355h-153v-141c0 -42 31 -57 62 -57c9 0 19 1 27 2l20 -141c-39 -17 -105 -31 -171 -31c-113 0 -193 41 -193 165v203h-55z" />
    <glyph glyph-name="t_t_f" unicode="ttf" horiz-adv-x="1254" 
d="M337 355v-141c0 -42 31 -57 62 -57c9 0 19 1 27 2l20 -141c-39 -17 -105 -31 -171 -31c-113 0 -193 41 -193 165v203h-55v175h55v123h255v-123h153v123h255v-123h153v2c0 176 107 220 211 220c62 0 112 -11 147 -25l-17 -140c-7 1 -16 2 -24 2c-31 0 -62 -4 -62 -55v-4
h84v-175h-84v-355h-255v355h-153v-141c0 -42 31 -57 62 -57c9 0 19 1 27 2l20 -141c-39 -17 -105 -31 -171 -31c-113 0 -193 41 -193 165v203h-153z" />
    <glyph glyph-name="t_t_i" unicode="tti" horiz-adv-x="1202" 
d="M337 355v-141c0 -42 31 -57 62 -57c9 0 19 1 27 2l20 -141c-39 -17 -105 -31 -171 -31c-113 0 -193 41 -193 165v203h-55v175h55v123h255v-123h153v123h255v-123h408v-530h-255v355h-153v-141c0 -42 31 -57 62 -57c9 0 19 1 27 2l20 -141c-39 -17 -105 -31 -171 -31
c-113 0 -193 41 -193 165v203h-153zM1156 739v-158h-261v158h261z" />
    <glyph glyph-name="t_t_iacute" unicode="tt&#xed;" horiz-adv-x="1202" 
d="M337 355v-141c0 -42 31 -57 62 -57c9 0 19 1 27 2l20 -141c-39 -17 -105 -31 -171 -31c-113 0 -193 41 -193 165v203h-55v175h55v123h255v-123h153v123h255v-123h408v-530h-255v355h-153v-141c0 -42 31 -57 62 -57c9 0 19 1 27 2l20 -141c-39 -17 -105 -31 -171 -31
c-113 0 -193 41 -193 165v203h-153zM1232 745l-164 -155h-145l110 155h199z" />
    <glyph glyph-name="t_t_ibreve" unicode="tt&#x12d;" horiz-adv-x="1202" 
d="M337 355v-141c0 -42 31 -57 62 -57c9 0 19 1 27 2l20 -141c-39 -17 -105 -31 -171 -31c-113 0 -193 41 -193 165v203h-55v175h55v123h255v-123h153v123h255v-123h408v-530h-255v355h-153v-141c0 -42 31 -57 62 -57c9 0 19 1 27 2l20 -141c-39 -17 -105 -31 -171 -31
c-113 0 -193 41 -193 165v203h-153zM1121 740h91c-9 -103 -82 -154 -187 -154s-178 51 -187 154h91c10 -42 52 -60 96 -60s86 18 96 60z" />
    <glyph glyph-name="t_t_icircumflex" unicode="tt&#xee;" horiz-adv-x="1202" 
d="M337 355v-141c0 -42 31 -57 62 -57c9 0 19 1 27 2l20 -141c-39 -17 -105 -31 -171 -31c-113 0 -193 41 -193 165v203h-55v175h55v123h255v-123h153v123h255v-123h408v-530h-255v355h-153v-141c0 -42 31 -57 62 -57c9 0 19 1 27 2l20 -141c-39 -17 -105 -31 -171 -31
c-113 0 -193 41 -193 165v203h-153zM1122 745l119 -155h-145l-71 70l-71 -70h-145l119 155h194z" />
    <glyph glyph-name="t_t_idieresis" unicode="tt&#xef;" horiz-adv-x="1202" 
d="M337 355v-141c0 -42 31 -57 62 -57c9 0 19 1 27 2l20 -141c-39 -17 -105 -31 -171 -31c-113 0 -193 41 -193 165v203h-55v175h55v123h255v-123h153v123h255v-123h408v-530h-255v355h-153v-141c0 -42 31 -57 62 -57c9 0 19 1 27 2l20 -141c-39 -17 -105 -31 -171 -31
c-113 0 -193 41 -193 165v203h-153zM1070 598v131h163v-131h-163zM818 598v131h163v-131h-163z" />
    <glyph glyph-name="t_t_igrave" unicode="tt&#xec;" horiz-adv-x="1202" 
d="M337 355v-141c0 -42 31 -57 62 -57c9 0 19 1 27 2l20 -141c-39 -17 -105 -31 -171 -31c-113 0 -193 41 -193 165v203h-55v175h55v123h255v-123h153v123h255v-123h408v-530h-255v355h-153v-141c0 -42 31 -57 62 -57c9 0 19 1 27 2l20 -141c-39 -17 -105 -31 -171 -31
c-113 0 -193 41 -193 165v203h-153zM988 590l-164 155h199l110 -155h-145z" />
    <glyph glyph-name="t_t_imacron" unicode="tt&#x12b;" horiz-adv-x="1202" 
d="M337 355v-141c0 -42 31 -57 62 -57c9 0 19 1 27 2l20 -141c-39 -17 -105 -31 -171 -31c-113 0 -193 41 -193 165v203h-55v175h55v123h255v-123h153v123h255v-123h408v-530h-255v355h-153v-141c0 -42 31 -57 62 -57c9 0 19 1 27 2l20 -141c-39 -17 -105 -31 -171 -31
c-113 0 -193 41 -193 165v203h-153zM847 609v101h357v-101h-357z" />
    <glyph glyph-name="t_t_iogonek" unicode="tt&#x12f;" horiz-adv-x="1202" 
d="M27 355v175h55v123h255v-123h153v123h255v-123h408v-530c-50 -37 -79 -68 -79 -102c0 -32 25 -41 45 -41c21 0 43 8 55 20l39 -25c-25 -36 -73 -63 -135 -63c-54 0 -116 22 -116 82c0 66 69 110 100 129h-164v355h-153v-141c0 -42 31 -57 62 -57c9 0 19 1 27 2l20 -141
c-39 -17 -105 -31 -171 -31c-113 0 -193 41 -193 165v203h-153v-141c0 -42 31 -57 62 -57c9 0 19 1 27 2l20 -141c-39 -17 -105 -31 -171 -31c-113 0 -193 41 -193 165v203h-55zM1156 739v-158h-261v158h261z" />
    <glyph glyph-name="t_t_itilde" unicode="tt&#x129;" horiz-adv-x="1202" 
d="M337 355v-141c0 -42 31 -57 62 -57c9 0 19 1 27 2l20 -141c-39 -17 -105 -31 -171 -31c-113 0 -193 41 -193 165v203h-55v175h55v123h255v-123h153v123h255v-123h408v-530h-255v355h-153v-141c0 -42 31 -57 62 -57c9 0 19 1 27 2l20 -141c-39 -17 -105 -31 -171 -31
c-113 0 -193 41 -193 165v203h-153zM823 588c0 64 46 154 126 154c77 0 109 -50 148 -50c20 0 41 24 49 55h83c-1 -73 -54 -162 -128 -162c-76 0 -100 49 -150 49c-22 0 -40 -23 -47 -46h-81z" />
    <glyph glyph-name="t_t_dotlessi" unicode="tt&#x131;" horiz-adv-x="1202" 
d="M337 355v-141c0 -42 31 -57 62 -57c9 0 19 1 27 2l20 -141c-39 -17 -105 -31 -171 -31c-113 0 -193 41 -193 165v203h-55v175h55v123h255v-123h153v123h255v-123h408v-530h-255v355h-153v-141c0 -42 31 -57 62 -57c9 0 19 1 27 2l20 -141c-39 -17 -105 -31 -171 -31
c-113 0 -193 41 -193 165v203h-153z" />
    <glyph glyph-name=".notdef" horiz-adv-x="427" 
d="M0 676h427v-676h-427v676zM84 204l80 134l-80 133v-267zM213 419l105 173h-209zM318 84l-105 173l-104 -173h209zM263 338l80 -134v267z" />
    <glyph glyph-name="at" unicode="@" horiz-adv-x="772" 
d="M376 -87c-197 0 -340 151 -340 333c0 214 184 379 381 379c195 0 328 -136 328 -315c0 -164 -103 -237 -192 -237c-72 0 -91 50 -97 73c-32 -47 -81 -73 -132 -73c-100 0 -156 74 -156 165c0 125 95 228 207 228c54 0 97 -25 120 -63l9 48h113l-43 -228
c-4 -23 -6 -69 33 -69c47 0 89 48 89 156c0 161 -111 269 -281 269c-176 0 -332 -150 -332 -331c0 -166 132 -290 295 -290c63 0 122 19 173 51l25 -37c-61 -38 -129 -59 -200 -59zM364 167c51 0 104 45 104 126c0 43 -25 77 -70 77c-62 0 -106 -56 -106 -124
c0 -47 28 -79 72 -79z" />
    <glyph glyph-name="numbersign" unicode="#" horiz-adv-x="663" 
d="M413 584h137l-16 -121h101v-122h-117l-13 -98h94v-122h-110l-16 -121h-137l16 121h-86l-16 -121h-137l16 121h-101v122h117l13 98h-94v122h110l16 121h137l-16 -121h86zM295 341l-13 -98h86l13 98h-86z" />
    <glyph glyph-name="asciicircum" unicode="^" horiz-adv-x="577" 
d="M287 530l-79 -204h-173l157 350h190l157 -350h-173z" />
    <glyph glyph-name="asterisk" unicode="*" horiz-adv-x="501" 
d="M472 471l-36 -12l-105 -22l72 -78l23 -32l-100 -72l-22 31l-53 93l-53 -93l-22 -31l-100 72l23 31l72 79l-105 21l-37 12l38 117l37 -12l97 -44l-12 106v39h123v-39l-12 -105l97 44l37 12z" />
    <glyph glyph-name="ampersand" unicode="&#x26;" horiz-adv-x="709" 
d="M693 427v-170h-55v-8c0 -142 -70 -262 -304 -262c-149 0 -304 49 -304 191c0 85 55 150 130 169c-60 27 -109 74 -109 154c0 124 117 188 292 188c91 0 168 -17 235 -39l-30 -179c-38 15 -110 31 -173 31c-50 0 -85 -10 -85 -39s36 -36 78 -36h18v-170h-30
c-42 0 -74 -9 -74 -40c0 -32 33 -43 70 -43c62 0 84 32 84 67v186h257z" />
    <glyph glyph-name="percent" unicode="%" horiz-adv-x="840" 
d="M151 -10l438 696h100l-439 -696h-99zM192 327c-110 0 -166 75 -166 181s56 181 166 181s166 -75 166 -181s-56 -181 -166 -181zM192 593c-29 0 -46 -33 -46 -85s17 -85 46 -85s46 33 46 85s-17 85 -46 85zM648 -13c-110 0 -166 75 -166 181s56 181 166 181
s166 -75 166 -181s-56 -181 -166 -181zM648 253c-29 0 -46 -33 -46 -85s17 -85 46 -85s46 33 46 85s-17 85 -46 85z" />
    <glyph glyph-name="perthousand" unicode="&#x2030;" horiz-adv-x="1215" 
d="M152 -10l438 696h100l-439 -696h-99zM193 327c-110 0 -166 75 -166 181s56 181 166 181s166 -75 166 -181s-56 -181 -166 -181zM193 593c-29 0 -46 -33 -46 -85s17 -85 46 -85s46 33 46 85s-17 85 -46 85zM649 -13c-110 0 -166 75 -166 181s56 181 166 181
s166 -75 166 -181s-56 -181 -166 -181zM649 253c-29 0 -46 -33 -46 -85s17 -85 46 -85s46 33 46 85s-17 85 -46 85zM1023 -13c-110 0 -166 75 -166 181s56 181 166 181s166 -75 166 -181s-56 -181 -166 -181zM1023 253c-29 0 -46 -33 -46 -85s17 -85 46 -85s46 33 46 85
s-17 85 -46 85z" />
    <glyph glyph-name="uni2031" unicode="&#x2031;" horiz-adv-x="1574" 
d="M148 -10l438 696h100l-439 -696h-99zM192 327c-110 0 -166 75 -166 181s56 181 166 181s166 -75 166 -181s-56 -181 -166 -181zM192 593c-29 0 -46 -33 -46 -85s17 -85 46 -85s46 33 46 85s-17 85 -46 85zM642 -13c-110 0 -166 75 -166 181s56 181 166 181
s166 -75 166 -181s-56 -181 -166 -181zM642 253c-29 0 -46 -33 -46 -85s17 -85 46 -85s46 33 46 85s-17 85 -46 85zM1013 -13c-110 0 -166 75 -166 181s56 181 166 181s166 -75 166 -181s-56 -181 -166 -181zM1013 253c-29 0 -46 -33 -46 -85s17 -85 46 -85s46 33 46 85
s-17 85 -46 85zM1384 -13c-110 0 -166 75 -166 181s56 181 166 181s166 -75 166 -181s-56 -181 -166 -181zM1384 253c-29 0 -46 -33 -46 -85s17 -85 46 -85s46 33 46 85s-17 85 -46 85z" />
    <glyph glyph-name="parenleft" unicode="(" horiz-adv-x="368" 
d="M371 -196h-204c-97 156 -142 293 -142 456s45 300 142 456h204c-102 -134 -152 -294 -152 -456s50 -322 152 -456z" />
    <glyph glyph-name="parenright" unicode=")" horiz-adv-x="368" 
d="M201 -196h-204c102 134 152 294 152 456s-50 322 -152 456h204c97 -156 142 -293 142 -456s-45 -300 -142 -456z" />
    <glyph glyph-name="braceleft" unicode="{" horiz-adv-x="427" 
d="M287 528v-105c0 -67 -21 -137 -99 -162c78 -25 99 -95 99 -162v-105c0 -41 14 -62 54 -62h66v-126h-86c-130 0 -205 59 -205 188v140c0 49 -59 67 -106 70v114c45 2 106 21 106 70v140c0 129 75 188 205 188h86v-126h-66c-40 0 -54 -21 -54 -62z" />
    <glyph glyph-name="braceright" unicode="}" horiz-adv-x="427" 
d="M140 423v105c0 41 -14 62 -54 62h-66v126h86c130 0 205 -59 205 -188v-140c0 -49 61 -68 106 -70v-114c-47 -3 -106 -21 -106 -70v-140c0 -129 -75 -188 -205 -188h-86v126h66c40 0 54 21 54 62v105c0 67 21 137 99 162c-78 25 -99 95 -99 162z" />
    <glyph glyph-name="bracketleft" unicode="[" horiz-adv-x="383" 
d="M363 -195h-311v911h311v-128h-140v-653h140v-130z" />
    <glyph glyph-name="bracketright" unicode="]" horiz-adv-x="383" 
d="M331 -195h-311v130h140v653h-140v128h311v-911z" />
    <glyph glyph-name="slash" unicode="/" horiz-adv-x="539" 
d="M24 -28l326 719h166l-326 -719h-166z" />
    <glyph glyph-name="backslash" unicode="\" horiz-adv-x="539" 
d="M189 691l326 -719h-166l-326 719h166z" />
    <glyph glyph-name="guilsinglleft" unicode="&#x2039;" horiz-adv-x="464" 
d="M441 509l-209 -241l209 -241h-225l-192 241l192 241h225z" />
    <glyph glyph-name="guilsinglright" unicode="&#x203a;" horiz-adv-x="464" 
d="M232 268l-209 241h225l192 -241l-192 -241h-225z" />
    <glyph glyph-name="guillemotleft" unicode="&#xab;" horiz-adv-x="816" 
d="M441 509l-209 -241l209 -241h-225l-192 241l192 241h225zM793 509l-209 -241l209 -241h-225l-192 241l192 241h225z" />
    <glyph glyph-name="guillemotright" unicode="&#xbb;" horiz-adv-x="816" 
d="M584 268l-209 241h225l192 -241l-192 -241h-225zM232 268l-209 241h225l192 -241l-192 -241h-225z" />
    <glyph glyph-name="exclam" unicode="!" horiz-adv-x="345" 
d="M47 566v110h251v-110l-41 -314h-169zM55 0v200h235v-200h-235z" />
    <glyph glyph-name="exclamdown" unicode="&#xa1;" horiz-adv-x="331" 
d="M40 -146v110l41 314h169l41 -314v-110h-251zM48 330v200h235v-200h-235z" />
    <glyph glyph-name="question" unicode="?" horiz-adv-x="519" 
d="M252 483c0 27 -29 34 -57 34c-53 0 -99 -13 -139 -28l-32 159c67 26 142 41 224 41c134 0 242 -40 242 -159c0 -126 -133 -171 -133 -257v-21h-200v34c0 81 95 120 95 197zM142 0v200h235v-200h-235z" />
    <glyph glyph-name="questiondown" unicode="&#xbf;" horiz-adv-x="515" 
d="M265 47c0 -27 29 -34 57 -34c53 0 99 13 139 28l32 -159c-67 -26 -142 -41 -224 -41c-134 0 -242 40 -242 159c0 126 133 171 133 257v21h200v-34c0 -81 -95 -120 -95 -197zM375 530v-200h-235v200h235z" />
    <glyph glyph-name="bar" unicode="|" horiz-adv-x="221" 
d="M52 -194v910h117v-910h-117z" />
    <glyph glyph-name="brokenbar" unicode="&#xa6;" horiz-adv-x="276" 
d="M56 664h164v-342h-164v342zM56 185h164v-380h-164v380z" />
    <glyph glyph-name="underscore" unicode="_" horiz-adv-x="733" 
d="M120 -124v87h493v-87h-493z" />
    <glyph glyph-name="asciitilde" unicode="~" horiz-adv-x="671" 
d="M33 196c0 86 58 217 188 217c116 0 168 -74 226 -74c43 0 65 46 75 84h119c-1 -97 -67 -227 -192 -227c-114 0 -153 73 -228 73c-42 0 -63 -42 -70 -73h-118z" />
    <glyph glyph-name="logicalnot" unicode="&#xac;" horiz-adv-x="651" 
d="M34 334v149h564v-315h-151v166h-413z" />
    <glyph glyph-name="hyphen" unicode="-" horiz-adv-x="426" 
d="M378 338v-155h-330v155h330z" />
    <glyph glyph-name="endash" unicode="&#x2013;" horiz-adv-x="664" 
d="M616 338v-155h-568v155h568z" />
    <glyph glyph-name="emdash" unicode="&#x2014;" horiz-adv-x="948" 
d="M900 338v-155h-852v155h852z" />
    <glyph glyph-name="ellipsis" unicode="&#x2026;" horiz-adv-x="1063" 
d="M48 0v200h235v-200h-235zM414 0v200h235v-200h-235zM780 0v200h235v-200h-235z" />
    <glyph glyph-name="period" unicode="." horiz-adv-x="331" 
d="M48 0v200h235v-200h-235z" />
    <glyph glyph-name="comma" unicode="," horiz-adv-x="330" 
d="M48 200h235v-182l-113 -167h-117l92 149h-97v200z" />
    <glyph glyph-name="periodcentered" unicode="&#xb7;" horiz-adv-x="331" 
d="M48 217v200h235v-200h-235z" />
    <glyph glyph-name="bullet" unicode="&#x2022;" horiz-adv-x="448" 
d="M50 318c0 97 77 174 174 174s174 -77 174 -174s-77 -174 -174 -174s-174 77 -174 174z" />
    <glyph glyph-name="degree" unicode="&#xb0;" horiz-adv-x="350" 
d="M175 706c82 0 149 -67 149 -149s-67 -149 -149 -149c-83 0 -149 67 -149 149s66 149 149 149zM175 490c37 0 67 30 67 67s-30 67 -67 67s-67 -30 -67 -67s30 -67 67 -67z" />
    <glyph glyph-name="ordfeminine" unicode="&#xaa;" horiz-adv-x="506" 
d="M246 605c139 0 207 -53 207 -156v-213h-178v33c-27 -24 -62 -42 -109 -42c-75 0 -127 53 -127 116c0 77 58 116 161 116c18 0 57 -3 73 -7v4c0 21 -20 33 -65 33c-41 0 -84 -8 -118 -20l-24 108c47 17 111 28 180 28zM278 370v12c-7 2 -16 2 -26 2c-28 0 -44 -13 -44 -33
c0 -16 11 -28 31 -28c29 0 39 22 39 47z" />
    <glyph glyph-name="ordmasculine" unicode="&#xba;" horiz-adv-x="535" 
d="M268 605c122 0 226 -69 226 -189c0 -119 -104 -189 -226 -189s-227 69 -227 189c0 121 105 189 227 189zM267 353c32 0 53 29 53 63s-21 63 -53 63s-53 -29 -53 -63s21 -63 53 -63z" />
    <glyph glyph-name="colon" unicode=":" horiz-adv-x="349" 
d="M57 0v200h235v-200h-235zM57 330v200h235v-200h-235z" />
    <glyph glyph-name="semicolon" unicode=";" horiz-adv-x="348" 
d="M57 330v200h235v-200h-235zM57 200h235v-182l-113 -167h-117l92 149h-97v200z" />
    <glyph glyph-name="quotesingle" unicode="'" horiz-adv-x="264" 
d="M46 608v68h172v-68l-10 -242h-152z" />
    <glyph glyph-name="quotedbl" unicode="&#x22;" horiz-adv-x="514" 
d="M46 608v68h172v-68l-10 -242h-152zM296 608v68h172v-68l-10 -242h-152z" />
    <glyph glyph-name="quotesinglbase" unicode="&#x201a;" horiz-adv-x="330" 
d="M48 200h235v-182l-113 -167h-117l92 149h-97v200z" />
    <glyph glyph-name="quoteleft" unicode="&#x2018;" horiz-adv-x="322" 
d="M276 327h-235v182l113 167h117l-92 -149h97v-200z" />
    <glyph glyph-name="quoteright" unicode="&#x2019;" horiz-adv-x="312" 
d="M47 676h235v-182l-113 -167h-117l92 149h-97v200z" />
    <glyph glyph-name="quotedblleft" unicode="&#x201c;" horiz-adv-x="625" 
d="M276 327h-235v182l113 167h117l-92 -149h97v-200zM579 327h-235v182l113 167h117l-92 -149h97v-200z" />
    <glyph glyph-name="quotedblright" unicode="&#x201d;" horiz-adv-x="615" 
d="M350 676h235v-182l-113 -167h-117l92 149h-97v200zM47 676h235v-182l-113 -167h-117l92 149h-97v200z" />
    <glyph glyph-name="quotedblbase" unicode="&#x201e;" horiz-adv-x="633" 
d="M351 200h235v-182l-113 -167h-117l92 149h-97v200zM48 200h235v-182l-113 -167h-117l92 149h-97v200z" />
    <glyph glyph-name="A" unicode="A" horiz-adv-x="758" 
d="M534 676l237 -676h-261l-31 113h-200l-30 -113h-262l236 676h311zM379 479l-57 -208h114z" />
    <glyph glyph-name="B" unicode="B" horiz-adv-x="716" 
d="M696 189c0 -167 -187 -202 -400 -202c-89 0 -182 7 -238 14v671c54 7 147 17 235 17c175 0 369 -38 369 -203c0 -74 -42 -119 -91 -143c44 -9 125 -56 125 -154zM306 522v-111c9 -1 28 -1 37 -1c39 0 87 10 87 59c0 44 -47 55 -84 55c-9 0 -30 -1 -40 -2zM351 158
c41 0 100 12 100 61c0 54 -62 62 -103 62c-9 0 -32 -1 -42 -2v-120c7 -1 35 -1 45 -1z" />
    <glyph glyph-name="C" unicode="C" horiz-adv-x="665" 
d="M465 186c49 0 97 11 130 25l50 -182c-63 -21 -148 -42 -245 -42c-222 0 -372 134 -372 351c0 218 150 351 372 351c97 0 182 -21 245 -42l-50 -182c-33 14 -81 25 -130 25c-110 0 -172 -56 -172 -152s62 -152 172 -152z" />
    <glyph glyph-name="D" unicode="D" horiz-adv-x="782" 
d="M318 689c258 0 437 -127 437 -355c0 -299 -280 -347 -469 -347c-88 0 -172 8 -228 14v671c74 11 151 17 260 17zM318 179c8 -1 21 -1 30 -1c101 0 144 71 144 168c0 100 -51 158 -142 158c-10 0 -24 0 -32 -1v-324z" />
    <glyph glyph-name="E" unicode="E" horiz-adv-x="658" 
d="M616 486h-304v-59h266v-176h-266v-62h304v-189h-558v676h558v-190z" />
    <glyph glyph-name="F" unicode="F" horiz-adv-x="612" 
d="M588 484h-272v-83h238v-199h-238v-202h-258v676h530v-192z" />
    <glyph glyph-name="G" unicode="G" horiz-adv-x="730" 
d="M465 375h227v-337c-69 -30 -155 -51 -281 -51c-219 0 -384 127 -384 349c0 218 165 353 396 353c110 0 172 -14 240 -32l-33 -186c-41 12 -90 24 -156 24c-133 0 -182 -63 -182 -159c0 -107 77 -155 149 -155c9 0 17 1 24 2v192z" />
    <glyph glyph-name="H" unicode="H" horiz-adv-x="802" 
d="M485 676h259v-676h-259v251h-168v-251h-259v676h259v-243h168v243z" />
    <glyph glyph-name="I" unicode="I" horiz-adv-x="377" 
d="M319 676v-676h-261v676h261z" />
    <glyph glyph-name="J" unicode="J" horiz-adv-x="530" 
d="M99 676h380v-396c0 -188 -90 -293 -292 -293c-70 0 -125 11 -179 37l45 177c17 -5 42 -11 69 -11c57 0 98 11 98 76v215h-121v195z" />
    <glyph glyph-name="K" unicode="K" horiz-adv-x="750" 
d="M537 372l225 -372h-298l-145 275v-275h-261v676h261v-240l145 240h280z" />
    <glyph glyph-name="L" unicode="L" horiz-adv-x="585" 
d="M319 676v-486h256v-190h-517v676h261z" />
    <glyph glyph-name="M" unicode="M" horiz-adv-x="879" 
d="M559 676h262v-676h-243v345l-136 -216h-6l-135 216v-345h-243v676h262l119 -221z" />
    <glyph glyph-name="N" unicode="N" horiz-adv-x="814" 
d="M517 676h239v-676h-247l-212 347v-347h-239v676h260l199 -345v345z" />
    <glyph glyph-name="O" unicode="O" horiz-adv-x="819" 
d="M410 689c227 0 382 -132 382 -351s-155 -351 -382 -351c-228 0 -383 132 -383 351s155 351 383 351zM410 181c79 0 119 57 119 157s-40 157 -119 157c-80 0 -120 -57 -120 -157s40 -157 120 -157z" />
    <glyph glyph-name="P" unicode="P" horiz-adv-x="711" 
d="M301 689c177 0 395 -57 395 -263c0 -199 -206 -266 -382 -252v-174h-256v673c45 7 128 16 243 16zM312 498v-143c41 -3 129 2 129 73c0 67 -92 75 -129 70z" />
    <glyph glyph-name="Q" unicode="Q" horiz-adv-x="820" 
d="M720 19l77 -116c-137 -126 -393 -124 -434 85c-200 17 -335 146 -335 349c0 219 155 352 383 352c227 0 382 -133 382 -352c0 -156 -80 -269 -207 -319c33 -41 93 -22 134 1zM291 338c0 -100 40 -160 120 -160c79 0 119 60 119 160s-40 157 -119 157
c-80 0 -120 -57 -120 -157z" />
    <glyph glyph-name="R" unicode="R" horiz-adv-x="742" 
d="M579 278c57 -11 112 -73 140 -278h-259c-41 212 -73 211 -151 211v-211h-251v669c58 10 170 20 260 20c194 0 385 -47 385 -235c0 -105 -69 -151 -124 -176zM331 369c43 0 119 10 119 70c0 56 -68 68 -112 68c-12 0 -22 -1 -30 -2v-135c7 -1 14 -1 23 -1z" />
    <glyph glyph-name="S" unicode="S" horiz-adv-x="635" 
d="M286 483c0 -49 323 -17 323 -256c0 -166 -116 -240 -294 -240c-121 0 -205 21 -281 51l41 183c64 -31 127 -55 223 -55c43 0 56 11 56 25c0 50 -320 9 -318 265c1 151 116 233 288 233c95 0 184 -17 259 -39l-41 -182c-44 20 -121 40 -200 40c-34 0 -56 -5 -56 -25z" />
    <glyph glyph-name="T" unicode="T" horiz-adv-x="665" 
d="M463 483v-483h-261v483h-192v193h645v-193h-192z" />
    <glyph glyph-name="U" unicode="U" horiz-adv-x="755" 
d="M443 676h261v-409c0 -192 -122 -280 -327 -280s-326 88 -326 280v409h261v-406c0 -48 10 -84 65 -84c56 0 66 37 66 84v406z" />
    <glyph glyph-name="V" unicode="V" horiz-adv-x="749" 
d="M196 0l-202 676h266l114 -449l115 449h267l-204 -676h-356z" />
    <glyph glyph-name="W" unicode="W" horiz-adv-x="1103" 
d="M841 676h259l-151 -676h-318l-80 380l-81 -380h-316l-151 676h258l68 -460l102 460h238l103 -460z" />
    <glyph glyph-name="X" unicode="X" horiz-adv-x="745" 
d="M6 676h270l96 -190l95 190h272l-189 -326l199 -350h-270l-107 206l-107 -206h-270l198 350z" />
    <glyph glyph-name="Y" unicode="Y" horiz-adv-x="715" 
d="M469 676h263l-244 -435v-241h-261v241l-245 435h264l110 -244z" />
    <glyph glyph-name="Z" unicode="Z" horiz-adv-x="660" 
d="M48 676h566v-186l-254 -299h260v-191h-587v155l285 330h-270v191z" />
    <glyph glyph-name="AE" unicode="&#xc6;" horiz-adv-x="1048" 
d="M520 0l-8 109h-224l-55 -109h-264l358 676h679v-190h-285l4 -59h238v-176h-225l4 -62h264v-189h-486zM479 486l-109 -215h130l-15 215h-6z" />
    <glyph glyph-name="AEacute" unicode="&#x1fc;" horiz-adv-x="1048" 
d="M520 0l-8 109h-224l-55 -109h-264l358 676h679v-190h-285l4 -59h238v-176h-225l4 -62h264v-189h-486zM479 486l-109 -215h130l-15 215h-6zM731 891l-164 -155h-145l110 155h199z" />
    <glyph glyph-name="AEmacron" unicode="&#x1e2;" horiz-adv-x="1048" 
d="M520 0l-8 109h-224l-55 -109h-264l358 676h679v-190h-285l4 -59h238v-176h-225l4 -62h264v-189h-486zM479 486l-109 -215h130l-15 215h-6zM389 751v101h357v-101h-357z" />
    <glyph glyph-name="Aacute" unicode="&#xc1;" horiz-adv-x="758" 
d="M534 676l237 -676h-261l-31 113h-200l-30 -113h-262l236 676h311zM379 479l-57 -208h114zM587 891l-164 -155h-145l110 155h199z" />
    <glyph glyph-name="Abreve" unicode="&#x102;" horiz-adv-x="758" 
d="M534 676l237 -676h-261l-31 113h-200l-30 -113h-262l236 676h311zM379 479l-57 -208h114zM475 886h91c-9 -103 -82 -154 -187 -154s-178 51 -187 154h91c10 -42 52 -60 96 -60s86 18 96 60z" />
    <glyph glyph-name="Acaron" unicode="&#x1cd;" horiz-adv-x="758" 
d="M534 676l237 -676h-261l-31 113h-200l-30 -113h-262l236 676h311zM379 479l-57 -208h114zM595 891l-119 -155h-194l-119 155h145l71 -70l71 70h145z" />
    <glyph glyph-name="Acircumflex" unicode="&#xc2;" horiz-adv-x="758" 
d="M534 676l237 -676h-261l-31 113h-200l-30 -113h-262l236 676h311zM379 479l-57 -208h114zM476 891l119 -155h-145l-71 70l-71 -70h-145l119 155h194z" />
    <glyph glyph-name="Adblgrave" unicode="&#x200;" horiz-adv-x="758" 
d="M458 736l-164 155h199l110 -155h-145zM197 736l-164 155h199l110 -155h-145zM534 676l237 -676h-261l-31 113h-200l-30 -113h-262l236 676h311zM379 479l-57 -208h114z" />
    <glyph glyph-name="Adieresis" unicode="&#xc4;" horiz-adv-x="758" 
d="M534 676l237 -676h-261l-31 113h-200l-30 -113h-262l236 676h311zM379 479l-57 -208h114zM172 744v131h163v-131h-163zM424 744v131h163v-131h-163z" />
    <glyph glyph-name="Adieresismacron" unicode="&#x1de;" horiz-adv-x="758" 
d="M534 676l237 -676h-261l-31 113h-200l-30 -113h-262l236 676h311zM379 479l-57 -208h114zM201 923v101h357v-101h-357zM172 741v131h163v-131h-163zM424 741v131h163v-131h-163z" />
    <glyph glyph-name="Adotaccentmacron" unicode="&#x1e0;" horiz-adv-x="758" 
d="M534 676l237 -676h-261l-31 113h-200l-30 -113h-262l236 676h311zM379 479l-57 -208h114zM298 737v131h163v-131h-163zM201 928v101h357v-101h-357z" />
    <glyph glyph-name="Agrave" unicode="&#xc0;" horiz-adv-x="758" 
d="M534 676l237 -676h-261l-31 113h-200l-30 -113h-262l236 676h311zM379 479l-57 -208h114zM325 736l-164 155h199l110 -155h-145z" />
    <glyph glyph-name="Ainvertedbreve" unicode="&#x202;" horiz-adv-x="758" 
d="M534 676l237 -676h-261l-31 113h-200l-30 -113h-262l236 676h311zM379 479l-57 -208h114zM566 736h-91c-10 42 -52 60 -96 60s-86 -18 -96 -60h-91c9 103 82 154 187 154s178 -51 187 -154z" />
    <glyph glyph-name="Amacron" unicode="&#x100;" horiz-adv-x="758" 
d="M534 676l237 -676h-261l-31 113h-200l-30 -113h-262l236 676h311zM379 479l-57 -208h114zM201 751v101h357v-101h-357z" />
    <glyph glyph-name="Aogonek" unicode="&#x104;" horiz-adv-x="758" 
d="M761 -123l39 -25c-25 -36 -73 -63 -135 -63c-54 0 -116 27 -116 87c0 55 48 100 85 124h-124l-31 113h-200l-30 -113h-262l236 676h311l237 -676c-81 -34 -110 -68 -110 -102c0 -32 25 -41 45 -41c21 0 43 8 55 20zM379 479l-57 -208h114z" />
    <glyph glyph-name="Aring" unicode="&#xc5;" horiz-adv-x="758" 
d="M534 676l237 -676h-261l-31 113h-200l-30 -113h-262l236 676h311zM379 479l-57 -208h114zM379 711c-66 0 -123 44 -123 113s57 113 123 113s123 -44 123 -113s-57 -113 -123 -113zM379 873c-29 0 -52 -20 -52 -49s23 -49 52 -49s52 20 52 49s-23 49 -52 49z" />
    <glyph glyph-name="Aringacute" unicode="&#x1fa;" horiz-adv-x="758" 
d="M578 1137l-164 -155h-145l110 155h199zM534 676l237 -676h-261l-31 113h-200l-30 -113h-262l236 676h311zM379 479l-57 -208h114zM379 711c-66 0 -123 44 -123 113s57 113 123 113s123 -44 123 -113s-57 -113 -123 -113zM379 873c-29 0 -52 -20 -52 -49s23 -49 52 -49
s52 20 52 49s-23 49 -52 49z" />
    <glyph glyph-name="Aringbelow" unicode="&#x1e00;" horiz-adv-x="758" 
d="M534 676l237 -676h-261l-31 113h-200l-30 -113h-262l236 676h311zM379 479l-57 -208h114zM379 -283c-66 0 -123 44 -123 113s57 113 123 113s123 -44 123 -113s-57 -113 -123 -113zM379 -121c-29 0 -52 -20 -52 -49s23 -49 52 -49s52 20 52 49s-23 49 -52 49z" />
    <glyph glyph-name="Atilde" unicode="&#xc3;" horiz-adv-x="758" 
d="M534 676l237 -676h-261l-31 113h-200l-30 -113h-262l236 676h311zM379 479l-57 -208h114zM175 734c0 64 46 154 126 154c77 0 109 -50 148 -50c20 0 41 24 49 55h83c-1 -73 -54 -162 -128 -162c-76 0 -100 49 -150 49c-22 0 -40 -23 -47 -46h-81z" />
    <glyph glyph-name="Bdotaccent" unicode="&#x1e02;" horiz-adv-x="716" 
d="M696 189c0 -167 -187 -202 -400 -202c-89 0 -182 7 -238 14v671c54 7 147 17 235 17c175 0 369 -38 369 -203c0 -74 -42 -119 -91 -143c44 -9 125 -56 125 -154zM306 522v-111c9 -1 28 -1 37 -1c39 0 87 10 87 59c0 44 -47 55 -84 55c-9 0 -30 -1 -40 -2zM351 158
c41 0 100 12 100 61c0 54 -62 62 -103 62c-9 0 -32 -1 -42 -2v-120c7 -1 35 -1 45 -1zM249 744v131h163v-131h-163z" />
    <glyph glyph-name="Bdotbelow" unicode="&#x1e04;" horiz-adv-x="716" 
d="M269 -204v131h163v-131h-163zM696 189c0 -167 -187 -202 -400 -202c-89 0 -182 7 -238 14v671c54 7 147 17 235 17c175 0 369 -38 369 -203c0 -74 -42 -119 -91 -143c44 -9 125 -56 125 -154zM306 522v-111c9 -1 28 -1 37 -1c39 0 87 10 87 59c0 44 -47 55 -84 55
c-9 0 -30 -1 -40 -2zM351 158c41 0 100 12 100 61c0 54 -62 62 -103 62c-9 0 -32 -1 -42 -2v-120c7 -1 35 -1 45 -1z" />
    <glyph glyph-name="Blinebelow" unicode="&#x1e06;" horiz-adv-x="716" 
d="M180 -174v101h357v-101h-357zM696 189c0 -167 -187 -202 -400 -202c-89 0 -182 7 -238 14v671c54 7 147 17 235 17c175 0 369 -38 369 -203c0 -74 -42 -119 -91 -143c44 -9 125 -56 125 -154zM306 522v-111c9 -1 28 -1 37 -1c39 0 87 10 87 59c0 44 -47 55 -84 55
c-9 0 -30 -1 -40 -2zM351 158c41 0 100 12 100 61c0 54 -62 62 -103 62c-9 0 -32 -1 -42 -2v-120c7 -1 35 -1 45 -1z" />
    <glyph glyph-name="Cacute" unicode="&#x106;" horiz-adv-x="665" 
d="M465 186c49 0 97 11 130 25l50 -182c-63 -21 -148 -42 -245 -42c-222 0 -372 134 -372 351c0 218 150 351 372 351c97 0 182 -21 245 -42l-50 -182c-33 14 -81 25 -130 25c-110 0 -172 -56 -172 -152s62 -152 172 -152zM586 891l-164 -155h-145l110 155h199z" />
    <glyph glyph-name="Ccaron" unicode="&#x10c;" horiz-adv-x="665" 
d="M465 186c49 0 97 11 130 25l50 -182c-63 -21 -148 -42 -245 -42c-222 0 -372 134 -372 351c0 218 150 351 372 351c97 0 182 -21 245 -42l-50 -182c-33 14 -81 25 -130 25c-110 0 -172 -56 -172 -152s62 -152 172 -152zM584 891l-119 -155h-194l-119 155h145l71 -70
l71 70h145z" />
    <glyph glyph-name="Ccedilla" unicode="&#xc7;" horiz-adv-x="665" 
d="M225 -207l26 58c37 -8 122 -24 122 26c0 26 -53 33 -86 35l46 80c-185 24 -305 151 -305 346c0 218 150 351 372 351c97 0 182 -21 245 -42l-50 -182c-33 14 -81 25 -130 25c-110 0 -172 -56 -172 -152s62 -152 172 -152c49 0 97 11 130 25l50 -182
c-63 -21 -147 -41 -243 -42l-29 -45c64 -2 117 -35 117 -84c0 -50 -41 -91 -125 -91c-55 0 -94 8 -140 26z" />
    <glyph glyph-name="Ccedillaacute" unicode="&#x1e08;" horiz-adv-x="665" 
d="M225 -207l26 58c37 -8 122 -24 122 26c0 26 -53 33 -86 35l46 80c-185 24 -305 151 -305 346c0 218 150 351 372 351c97 0 182 -21 245 -42l-50 -182c-33 14 -81 25 -130 25c-110 0 -172 -56 -172 -152s62 -152 172 -152c49 0 97 11 130 25l50 -182
c-63 -21 -147 -41 -243 -42l-29 -45c64 -2 117 -35 117 -84c0 -50 -41 -91 -125 -91c-55 0 -94 8 -140 26zM586 891l-164 -155h-145l110 155h199z" />
    <glyph glyph-name="Ccircumflex" unicode="&#x108;" horiz-adv-x="665" 
d="M465 186c49 0 97 11 130 25l50 -182c-63 -21 -148 -42 -245 -42c-222 0 -372 134 -372 351c0 218 150 351 372 351c97 0 182 -21 245 -42l-50 -182c-33 14 -81 25 -130 25c-110 0 -172 -56 -172 -152s62 -152 172 -152zM475 891l119 -155h-145l-71 70l-71 -70h-145
l119 155h194z" />
    <glyph glyph-name="Cdotaccent" unicode="&#x10a;" horiz-adv-x="665" 
d="M465 186c49 0 97 11 130 25l50 -182c-63 -21 -148 -42 -245 -42c-222 0 -372 134 -372 351c0 218 150 351 372 351c97 0 182 -21 245 -42l-50 -182c-33 14 -81 25 -130 25c-110 0 -172 -56 -172 -152s62 -152 172 -152zM290 744v131h163v-131h-163z" />
    <glyph glyph-name="Dcaron" unicode="&#x10e;" horiz-adv-x="782" 
d="M318 689c258 0 437 -127 437 -355c0 -299 -280 -347 -469 -347c-88 0 -172 8 -228 14v671c74 11 151 17 260 17zM318 179c8 -1 21 -1 30 -1c101 0 144 71 144 168c0 100 -51 158 -142 158c-10 0 -24 0 -32 -1v-324zM563 891l-119 -155h-194l-119 155h145l71 -70l71 70
h145z" />
    <glyph glyph-name="Dcedilla" unicode="&#x1e10;" horiz-adv-x="782" 
d="M226 -207l26 58c37 -8 122 -24 122 26c0 26 -53 33 -86 35l44 76c-16 0 -31 -1 -46 -1c-88 0 -172 8 -228 14v671c74 11 151 17 260 17c258 0 437 -127 437 -355c0 -239 -179 -318 -347 -339l-34 -53c64 -2 117 -35 117 -84c0 -50 -41 -91 -125 -91c-55 0 -94 8 -140 26z
M318 179c8 -1 21 -1 30 -1c101 0 144 71 144 168c0 100 -51 158 -142 158c-10 0 -24 0 -32 -1v-324z" />
    <glyph glyph-name="Dcircumflexbelow" unicode="&#x1e12;" horiz-adv-x="782" 
d="M466 -73l119 -155h-145l-71 70l-71 -70h-145l119 155h194zM318 689c258 0 437 -127 437 -355c0 -299 -280 -347 -469 -347c-88 0 -172 8 -228 14v671c74 11 151 17 260 17zM318 179c8 -1 21 -1 30 -1c101 0 144 71 144 168c0 100 -51 158 -142 158c-10 0 -24 0 -32 -1
v-324z" />
    <glyph glyph-name="Dcroat" unicode="&#x110;" horiz-adv-x="793" 
d="M4 396h65v276c74 11 151 17 260 17c258 0 437 -127 437 -355c0 -299 -280 -347 -469 -347c-88 0 -172 8 -228 14v295h-65v100zM359 178c101 0 144 71 144 168c0 100 -51 158 -142 158c-10 0 -24 0 -32 -1v-107h105v-100h-105v-117c8 -1 21 -1 30 -1z" />
    <glyph glyph-name="Ddotaccent" unicode="&#x1e0a;" horiz-adv-x="782" 
d="M318 689c258 0 437 -127 437 -355c0 -299 -280 -347 -469 -347c-88 0 -172 8 -228 14v671c74 11 151 17 260 17zM318 179c8 -1 21 -1 30 -1c101 0 144 71 144 168c0 100 -51 158 -142 158c-10 0 -24 0 -32 -1v-324zM268 744v131h163v-131h-163z" />
    <glyph glyph-name="Ddotbelow" unicode="&#x1e0c;" horiz-adv-x="782" 
d="M278 -204v131h163v-131h-163zM318 689c258 0 437 -127 437 -355c0 -299 -280 -347 -469 -347c-88 0 -172 8 -228 14v671c74 11 151 17 260 17zM318 179c8 -1 21 -1 30 -1c101 0 144 71 144 168c0 100 -51 158 -142 158c-10 0 -24 0 -32 -1v-324z" />
    <glyph glyph-name="Dlinebelow" unicode="&#x1e0e;" horiz-adv-x="782" 
d="M188 -174v101h357v-101h-357zM318 689c258 0 437 -127 437 -355c0 -299 -280 -347 -469 -347c-88 0 -172 8 -228 14v671c74 11 151 17 260 17zM318 179c8 -1 21 -1 30 -1c101 0 144 71 144 168c0 100 -51 158 -142 158c-10 0 -24 0 -32 -1v-324z" />
    <glyph glyph-name="Eacute" unicode="&#xc9;" horiz-adv-x="658" 
d="M616 486h-304v-59h266v-176h-266v-62h304v-189h-558v676h558v-190zM526 891l-164 -155h-145l110 155h199z" />
    <glyph glyph-name="Ebreve" unicode="&#x114;" horiz-adv-x="658" 
d="M616 486h-304v-59h266v-176h-266v-62h304v-189h-558v676h558v-190zM435 886h91c-9 -103 -82 -154 -187 -154s-178 51 -187 154h91c10 -42 52 -60 96 -60s86 18 96 60z" />
    <glyph glyph-name="Ecaron" unicode="&#x11a;" horiz-adv-x="658" 
d="M616 486h-304v-59h266v-176h-266v-62h304v-189h-558v676h558v-190zM554 891l-119 -155h-194l-119 155h145l71 -70l71 70h145z" />
    <glyph glyph-name="Ecedillabreve" unicode="&#x1e1c;" horiz-adv-x="658" 
d="M193 -207l26 58c37 -8 122 -24 122 26c0 26 -53 33 -86 35l51 88h-248v676h558v-190h-304v-59h266v-176h-266v-62h304v-189h-237l-38 -58c64 -2 117 -35 117 -84c0 -50 -41 -91 -125 -91c-55 0 -94 8 -140 26zM435 886h91c-9 -103 -82 -154 -187 -154s-178 51 -187 154
h91c10 -42 52 -60 96 -60s86 18 96 60z" />
    <glyph glyph-name="Ecircumflex" unicode="&#xca;" horiz-adv-x="658" 
d="M616 486h-304v-59h266v-176h-266v-62h304v-189h-558v676h558v-190zM434 891l119 -155h-145l-71 70l-71 -70h-145l119 155h194z" />
    <glyph glyph-name="Ecircumflexbelow" unicode="&#x1e18;" horiz-adv-x="658" 
d="M435 -73l119 -155h-145l-71 70l-71 -70h-145l119 155h194zM616 486h-304v-59h266v-176h-266v-62h304v-189h-558v676h558v-190z" />
    <glyph glyph-name="Edblgrave" unicode="&#x204;" horiz-adv-x="658" 
d="M438 736l-164 155h199l110 -155h-145zM177 736l-164 155h199l110 -155h-145zM616 486h-304v-59h266v-176h-266v-62h304v-189h-558v676h558v-190z" />
    <glyph glyph-name="Edieresis" unicode="&#xcb;" horiz-adv-x="658" 
d="M616 486h-304v-59h266v-176h-266v-62h304v-189h-558v676h558v-190zM132 744v131h163v-131h-163zM384 744v131h163v-131h-163z" />
    <glyph glyph-name="Edotaccent" unicode="&#x116;" horiz-adv-x="658" 
d="M616 486h-304v-59h266v-176h-266v-62h304v-189h-558v676h558v-190zM255 744v131h163v-131h-163z" />
    <glyph glyph-name="Egrave" unicode="&#xc8;" horiz-adv-x="658" 
d="M616 486h-304v-59h266v-176h-266v-62h304v-189h-558v676h558v-190zM287 736l-164 155h199l110 -155h-145z" />
    <glyph glyph-name="Einvertedbreve" unicode="&#x206;" horiz-adv-x="658" 
d="M616 486h-304v-59h266v-176h-266v-62h304v-189h-558v676h558v-190zM527 736h-91c-10 42 -52 60 -96 60s-86 -18 -96 -60h-91c9 103 82 154 187 154s178 -51 187 -154z" />
    <glyph glyph-name="Emacron" unicode="&#x112;" horiz-adv-x="658" 
d="M616 486h-304v-59h266v-176h-266v-62h304v-189h-558v676h558v-190zM163 751v101h357v-101h-357z" />
    <glyph glyph-name="Emacronacute" unicode="&#x1e16;" horiz-adv-x="658" 
d="M550 1041l-164 -155h-145l110 155h199zM616 486h-304v-59h266v-176h-266v-62h304v-189h-558v676h558v-190zM163 739v101h357v-101h-357z" />
    <glyph glyph-name="Emacrongrave" unicode="&#x1e14;" horiz-adv-x="658" 
d="M616 486h-304v-59h266v-176h-266v-62h304v-189h-558v676h558v-190zM309 886l-164 155h199l110 -155h-145zM163 739v101h357v-101h-357z" />
    <glyph glyph-name="Eogonek" unicode="&#x118;" horiz-adv-x="658" 
d="M637 -123l39 -25c-25 -36 -73 -63 -135 -63c-54 0 -116 22 -116 82c0 66 69 110 100 129h-467v676h558v-190h-304v-59h266v-176h-266v-62h304v-189c-50 -37 -79 -68 -79 -102c0 -32 25 -41 45 -41c21 0 43 8 55 20z" />
    <glyph glyph-name="Etildebelow" unicode="&#x1e1a;" horiz-adv-x="658" 
d="M129 -226c0 64 46 154 126 154c77 0 109 -50 148 -50c20 0 41 24 49 55h83c-1 -73 -54 -162 -128 -162c-76 0 -100 49 -150 49c-22 0 -40 -23 -47 -46h-81zM616 486h-304v-59h266v-176h-266v-62h304v-189h-558v676h558v-190z" />
    <glyph glyph-name="Fdotaccent" unicode="&#x1e1e;" horiz-adv-x="612" 
d="M588 484h-272v-83h238v-199h-238v-202h-258v676h530v-192zM242 744v131h163v-131h-163z" />
    <glyph glyph-name="Gacute" unicode="&#x1f4;" horiz-adv-x="730" 
d="M465 375h227v-337c-69 -30 -155 -51 -281 -51c-219 0 -384 127 -384 349c0 218 165 353 396 353c110 0 172 -14 240 -32l-33 -186c-41 12 -90 24 -156 24c-133 0 -182 -63 -182 -159c0 -107 77 -155 149 -155c9 0 17 1 24 2v192zM598 891l-164 -155h-145l110 155h199z
" />
    <glyph glyph-name="Gbreve" unicode="&#x11e;" horiz-adv-x="730" 
d="M465 375h227v-337c-69 -30 -155 -51 -281 -51c-219 0 -384 127 -384 349c0 218 165 353 396 353c110 0 172 -14 240 -32l-33 -186c-41 12 -90 24 -156 24c-133 0 -182 -63 -182 -159c0 -107 77 -155 149 -155c9 0 17 1 24 2v192zM489 886h91c-9 -103 -82 -154 -187 -154
s-178 51 -187 154h91c10 -42 52 -60 96 -60s86 18 96 60z" />
    <glyph glyph-name="Gcaron" unicode="&#x1e6;" horiz-adv-x="730" 
d="M465 375h227v-337c-69 -30 -155 -51 -281 -51c-219 0 -384 127 -384 349c0 218 165 353 396 353c110 0 172 -14 240 -32l-33 -186c-41 12 -90 24 -156 24c-133 0 -182 -63 -182 -159c0 -107 77 -155 149 -155c9 0 17 1 24 2v192zM613 891l-119 -155h-194l-119 155h145
l71 -70l71 70h145z" />
    <glyph glyph-name="Gcedilla" horiz-adv-x="731" 
d="M466 375h227v-337c-63 -28 -141 -47 -250 -50l-29 -46c64 -2 117 -35 117 -84c0 -50 -41 -91 -125 -91c-55 0 -94 8 -140 26l26 58c37 -8 122 -24 122 26c0 26 -53 33 -86 35l44 77c-199 14 -344 138 -344 347c0 218 165 353 396 353c110 0 172 -14 240 -32l-33 -186
c-41 12 -90 24 -156 24c-133 0 -182 -63 -182 -159c0 -107 77 -155 149 -155c9 0 17 1 24 2v192z" />
    <glyph glyph-name="Gcircumflex" unicode="&#x11c;" horiz-adv-x="730" 
d="M465 375h227v-337c-69 -30 -155 -51 -281 -51c-219 0 -384 127 -384 349c0 218 165 353 396 353c110 0 172 -14 240 -32l-33 -186c-41 12 -90 24 -156 24c-133 0 -182 -63 -182 -159c0 -107 77 -155 149 -155c9 0 17 1 24 2v192zM494 891l119 -155h-145l-71 70l-71 -70
h-145l119 155h194z" />
    <glyph glyph-name="Gcommaaccent" unicode="&#x122;" horiz-adv-x="730" 
d="M465 375h227v-337c-69 -30 -155 -51 -281 -51c-219 0 -384 127 -384 349c0 218 165 353 396 353c110 0 172 -14 240 -32l-33 -186c-41 12 -90 24 -156 24c-133 0 -182 -63 -182 -159c0 -107 77 -155 149 -155c9 0 17 1 24 2v192zM296 -73h186v-144l-89 -131h-92l72 117
h-77v158z" />
    <glyph glyph-name="Gdotaccent" unicode="&#x120;" horiz-adv-x="730" 
d="M465 375h227v-337c-69 -30 -155 -51 -281 -51c-219 0 -384 127 -384 349c0 218 165 353 396 353c110 0 172 -14 240 -32l-33 -186c-41 12 -90 24 -156 24c-133 0 -182 -63 -182 -159c0 -107 77 -155 149 -155c9 0 17 1 24 2v192zM311 744v131h163v-131h-163z" />
    <glyph glyph-name="Gmacron" unicode="&#x1e20;" horiz-adv-x="730" 
d="M465 375h227v-337c-69 -30 -155 -51 -281 -51c-219 0 -384 127 -384 349c0 218 165 353 396 353c110 0 172 -14 240 -32l-33 -186c-41 12 -90 24 -156 24c-133 0 -182 -63 -182 -159c0 -107 77 -155 149 -155c9 0 17 1 24 2v192zM217 751v101h357v-101h-357z" />
    <glyph glyph-name="Hbar" unicode="&#x126;" horiz-adv-x="815" 
d="M491 676h259v-69h54v-98h-54v-509h-259v251h-168v-251h-259v509h-53v98h53v69h259v-69h168v69zM323 433h168v76h-168v-76z" />
    <glyph glyph-name="Hbrevebelow" unicode="&#x1e2a;" horiz-adv-x="802" 
d="M497 -71h91c-9 -103 -82 -154 -187 -154s-178 51 -187 154h91c10 -42 52 -60 96 -60s86 18 96 60zM485 676h259v-676h-259v251h-168v-251h-259v676h259v-243h168v243z" />
    <glyph glyph-name="Hcedilla" unicode="&#x1e28;" horiz-adv-x="802" 
d="M52 -207l26 58c37 -8 122 -24 122 26c0 26 -53 33 -86 35l51 88h-107v676h259v-243h168v243h259v-676h-259v251h-168v-251h-79l-38 -58c64 -2 117 -35 117 -84c0 -50 -41 -91 -125 -91c-55 0 -94 8 -140 26z" />
    <glyph glyph-name="Hcircumflex" unicode="&#x124;" horiz-adv-x="802" 
d="M485 676h259v-676h-259v251h-168v-251h-259v676h259v-243h168v243zM498 891l119 -155h-145l-71 70l-71 -70h-145l119 155h194z" />
    <glyph glyph-name="Hdieresis" unicode="&#x1e26;" horiz-adv-x="802" 
d="M485 676h259v-676h-259v251h-168v-251h-259v676h259v-243h168v243zM194 744v131h163v-131h-163zM446 744v131h163v-131h-163z" />
    <glyph glyph-name="Hdotaccent" unicode="&#x1e22;" horiz-adv-x="802" 
d="M485 676h259v-676h-259v251h-168v-251h-259v676h259v-243h168v243zM320 744v131h163v-131h-163z" />
    <glyph glyph-name="Hdotbelow" unicode="&#x1e24;" horiz-adv-x="802" 
d="M319 -204v131h163v-131h-163zM485 676h259v-676h-259v251h-168v-251h-259v676h259v-243h168v243z" />
    <glyph glyph-name="Iacute" unicode="&#xcd;" horiz-adv-x="377" 
d="M319 676v-676h-261v676h261zM396 891l-164 -155h-145l110 155h199z" />
    <glyph glyph-name="Ibreve" unicode="&#x12c;" horiz-adv-x="377" 
d="M319 676v-676h-261v676h261zM284 886h91c-9 -103 -82 -154 -187 -154s-178 51 -187 154h91c10 -42 52 -60 96 -60s86 18 96 60z" />
    <glyph glyph-name="Icaron" unicode="&#x1cf;" horiz-adv-x="377" 
d="M319 676v-676h-261v676h261zM404 891l-119 -155h-194l-119 155h145l71 -70l71 70h145z" />
    <glyph glyph-name="Icircumflex" unicode="&#xce;" horiz-adv-x="377" 
d="M319 676v-676h-261v676h261zM285 891l119 -155h-145l-71 70l-71 -70h-145l119 155h194z" />
    <glyph glyph-name="Idblgrave" unicode="&#x208;" horiz-adv-x="377" 
d="M281 736l-164 155h199l110 -155h-145zM20 736l-164 155h199l110 -155h-145zM319 676v-676h-261v676h261z" />
    <glyph glyph-name="Idieresis" unicode="&#xcf;" horiz-adv-x="377" 
d="M319 676v-676h-261v676h261zM-19 744v131h163v-131h-163zM233 744v131h163v-131h-163z" />
    <glyph glyph-name="Idieresisacute" unicode="&#x1e2e;" horiz-adv-x="377" 
d="M319 676v-676h-261v676h261zM-19 734v131h163v-131h-163zM233 734v131h163v-131h-163zM377 1065l-164 -155h-145l110 155h199z" />
    <glyph glyph-name="Idotaccent" unicode="&#x130;" horiz-adv-x="377" 
d="M319 676v-676h-261v676h261zM107 744v131h163v-131h-163z" />
    <glyph glyph-name="Igrave" unicode="&#xcc;" horiz-adv-x="377" 
d="M319 676v-676h-261v676h261zM147 736l-164 155h199l110 -155h-145z" />
    <glyph glyph-name="Iinvertedbreve" unicode="&#x20a;" horiz-adv-x="377" 
d="M319 676v-676h-261v676h261zM375 736h-91c-10 42 -52 60 -96 60s-86 -18 -96 -60h-91c9 103 82 154 187 154s178 -51 187 -154z" />
    <glyph glyph-name="Imacron" unicode="&#x12a;" horiz-adv-x="377" 
d="M319 676v-676h-261v676h261zM10 751v101h357v-101h-357z" />
    <glyph glyph-name="Iogonek" unicode="&#x12e;" horiz-adv-x="377" 
d="M340 -123l39 -25c-25 -36 -73 -63 -135 -63c-54 0 -116 22 -116 82c0 66 69 110 100 129h-170v676h261v-676c-50 -37 -79 -68 -79 -102c0 -32 25 -41 45 -41c21 0 43 8 55 20z" />
    <glyph glyph-name="Itilde" unicode="&#x128;" horiz-adv-x="377" 
d="M319 676v-676h-261v676h261zM-16 734c0 64 46 154 126 154c77 0 109 -50 148 -50c20 0 41 24 49 55h83c-1 -73 -54 -162 -128 -162c-76 0 -100 49 -150 49c-22 0 -40 -23 -47 -46h-81z" />
    <glyph glyph-name="Itildebelow" unicode="&#x1e2c;" horiz-adv-x="377" 
d="M-7 -226c0 64 46 154 126 154c77 0 109 -50 148 -50c20 0 41 24 49 55h83c-1 -73 -54 -162 -128 -162c-76 0 -100 49 -150 49c-22 0 -40 -23 -47 -46h-81zM319 676v-676h-261v676h261z" />
    <glyph glyph-name="IJ" unicode="&#x132;" horiz-adv-x="873" 
d="M319 676v-676h-261v676h261zM442 676h380v-396c0 -188 -90 -293 -292 -293c-70 0 -125 11 -179 37l45 177c17 -5 42 -11 69 -11c57 0 98 11 98 76v215h-121v195z" />
    <glyph glyph-name="Jcircumflex" unicode="&#x134;" horiz-adv-x="530" 
d="M99 676h380v-396c0 -188 -90 -293 -292 -293c-70 0 -125 11 -179 37l45 177c17 -5 42 -11 69 -11c57 0 98 11 98 76v215h-121v195zM394 891l119 -155h-145l-71 70l-71 -70h-145l119 155h194z" />
    <glyph glyph-name="Kacute" unicode="&#x1e30;" horiz-adv-x="750" 
d="M537 372l225 -372h-298l-145 275v-275h-261v676h261v-240l145 240h280zM583 891l-164 -155h-145l110 155h199z" />
    <glyph glyph-name="Kcaron" unicode="&#x1e8;" horiz-adv-x="750" 
d="M537 372l225 -372h-298l-145 275v-275h-261v676h261v-240l145 240h280zM594 891l-119 -155h-194l-119 155h145l71 -70l71 70h145z" />
    <glyph glyph-name="Kcedilla" horiz-adv-x="750" 
d="M537 372l225 -372h-298l-145 275v-275h-81l-38 -58c64 -2 117 -35 117 -84c0 -50 -41 -91 -125 -91c-55 0 -94 8 -140 26l26 58c37 -8 122 -24 122 26c0 26 -53 33 -86 35l51 88h-107v676h261v-240l145 240h280z" />
    <glyph glyph-name="Kcommaaccent" unicode="&#x136;" horiz-adv-x="750" 
d="M537 372l225 -372h-298l-145 275v-275h-261v676h261v-240l145 240h280zM287 -73h186v-144l-89 -131h-92l72 117h-77v158z" />
    <glyph glyph-name="Kdotbelow" unicode="&#x1e32;" horiz-adv-x="750" 
d="M307 -204v131h163v-131h-163zM537 372l225 -372h-298l-145 275v-275h-261v676h261v-240l145 240h280z" />
    <glyph glyph-name="Klinebelow" unicode="&#x1e34;" horiz-adv-x="750" 
d="M203 -174v101h357v-101h-357zM537 372l225 -372h-298l-145 275v-275h-261v676h261v-240l145 240h280z" />
    <glyph glyph-name="Lacute" unicode="&#x139;" horiz-adv-x="585" 
d="M319 676v-486h256v-190h-517v676h261zM403 891l-164 -155h-145l110 155h199z" />
    <glyph glyph-name="Lcaron" unicode="&#x13d;" horiz-adv-x="601" 
d="M319 676v-486h256v-190h-517v676h261zM398 676h186v-144l-89 -131h-92l72 117h-77v158z" />
    <glyph glyph-name="Lcedilla" horiz-adv-x="585" 
d="M319 676v-486h256v-190h-203l-38 -58c64 -2 117 -35 117 -84c0 -50 -41 -91 -125 -91c-55 0 -94 8 -140 26l26 58c37 -8 122 -24 122 26c0 26 -53 33 -86 35l51 88h-241v676h261z" />
    <glyph glyph-name="Lcircumflexbelow" unicode="&#x1e3c;" horiz-adv-x="585" 
d="M415 -73l119 -155h-145l-71 70l-71 -70h-145l119 155h194zM319 676v-486h256v-190h-517v676h261z" />
    <glyph glyph-name="Lcommaaccent" unicode="&#x13b;" horiz-adv-x="585" 
d="M319 676v-486h256v-190h-517v676h261zM225 -73h186v-144l-89 -131h-92l72 117h-77v158z" />
    <glyph glyph-name="Ldot" unicode="&#x13f;" horiz-adv-x="609" 
d="M405 322v131h163v-131h-163zM319 676v-486h256v-190h-517v676h261z" />
    <glyph glyph-name="Ldotbelow" unicode="&#x1e36;" horiz-adv-x="585" 
d="M243 -204v131h163v-131h-163zM319 676v-486h256v-190h-517v676h261z" />
    <glyph glyph-name="Ldotbelowmacron" unicode="&#x1e38;" horiz-adv-x="585" 
d="M243 -204v131h163v-131h-163zM319 676v-486h256v-190h-517v676h261zM147 751v101h357v-101h-357z" />
    <glyph glyph-name="Llinebelow" unicode="&#x1e3a;" horiz-adv-x="585" 
d="M141 -174v101h357v-101h-357zM319 676v-486h256v-190h-517v676h261z" />
    <glyph glyph-name="Lslash" unicode="&#x141;" horiz-adv-x="623" 
d="M19 275l77 42v359h261v-217l149 82v-134l-149 -82v-135h256v-190h-517v182l-77 -42v135z" />
    <glyph glyph-name="Macute" unicode="&#x1e3e;" horiz-adv-x="879" 
d="M559 676h262v-676h-243v345l-136 -216h-6l-135 216v-345h-243v676h262l119 -221zM613 891l-164 -155h-145l110 155h199z" />
    <glyph glyph-name="Mdotaccent" unicode="&#x1e40;" horiz-adv-x="879" 
d="M559 676h262v-676h-243v345l-136 -216h-6l-135 216v-345h-243v676h262l119 -221zM358 744v131h163v-131h-163z" />
    <glyph glyph-name="Mdotbelow" unicode="&#x1e42;" horiz-adv-x="879" 
d="M358 -204v131h163v-131h-163zM559 676h262v-676h-243v345l-136 -216h-6l-135 216v-345h-243v676h262l119 -221z" />
    <glyph glyph-name="Nacute" unicode="&#x143;" horiz-adv-x="814" 
d="M517 676h239v-676h-247l-212 347v-347h-239v676h260l199 -345v345zM599 891l-164 -155h-145l110 155h199z" />
    <glyph glyph-name="Ncaron" unicode="&#x147;" horiz-adv-x="814" 
d="M517 676h239v-676h-247l-212 347v-347h-239v676h260l199 -345v345zM618 891l-119 -155h-194l-119 155h145l71 -70l71 70h145z" />
    <glyph glyph-name="Ncedilla" horiz-adv-x="814" 
d="M517 676h239v-676h-247l-212 347v-347h-67l-38 -58c64 -2 117 -35 117 -84c0 -50 -41 -91 -125 -91c-55 0 -94 8 -140 26l26 58c37 -8 122 -24 122 26c0 26 -53 33 -86 35l51 88h-99v676h260l199 -345v345z" />
    <glyph glyph-name="Ncircumflexbelow" unicode="&#x1e4a;" horiz-adv-x="814" 
d="M512 -73l119 -155h-145l-71 70l-71 -70h-145l119 155h194zM517 676h239v-676h-247l-212 347v-347h-239v676h260l199 -345v345z" />
    <glyph glyph-name="Ncommaaccent" unicode="&#x145;" horiz-adv-x="814" 
d="M517 676h239v-676h-247l-212 347v-347h-239v676h260l199 -345v345zM317 -73h186v-144l-89 -131h-92l72 117h-77v158z" />
    <glyph glyph-name="Ndotaccent" unicode="&#x1e44;" horiz-adv-x="814" 
d="M517 676h239v-676h-247l-212 347v-347h-239v676h260l199 -345v345zM324 744v131h163v-131h-163z" />
    <glyph glyph-name="Ndotbelow" unicode="&#x1e46;" horiz-adv-x="814" 
d="M326 -204v131h163v-131h-163zM517 676h239v-676h-247l-212 347v-347h-239v676h260l199 -345v345z" />
    <glyph glyph-name="Ngrave" unicode="&#x1f8;" horiz-adv-x="814" 
d="M517 676h239v-676h-247l-212 347v-347h-239v676h260l199 -345v345zM375 736l-164 155h199l110 -155h-145z" />
    <glyph glyph-name="Nlinebelow" unicode="&#x1e48;" horiz-adv-x="814" 
d="M237 -174v101h357v-101h-357zM517 676h239v-676h-247l-212 347v-347h-239v676h260l199 -345v345z" />
    <glyph glyph-name="Ntilde" unicode="&#xd1;" horiz-adv-x="814" 
d="M517 676h239v-676h-247l-212 347v-347h-239v676h260l199 -345v345zM212 734c0 64 46 154 126 154c77 0 109 -50 148 -50c20 0 41 24 49 55h83c-1 -73 -54 -162 -128 -162c-76 0 -100 49 -150 49c-22 0 -40 -23 -47 -46h-81z" />
    <glyph glyph-name="OE" unicode="&#x152;" horiz-adv-x="1078" 
d="M410 676h626v-190h-291v-59h253v-176h-253v-62h291v-189h-626c-227 0 -382 119 -382 338s155 338 382 338zM495 482h-85c-79 0 -119 -44 -119 -144s40 -144 119 -144h85v288z" />
    <glyph glyph-name="Oacute" unicode="&#xd3;" horiz-adv-x="819" 
d="M410 689c227 0 382 -132 382 -351s-155 -351 -382 -351c-228 0 -383 132 -383 351s155 351 383 351zM410 181c79 0 119 57 119 157s-40 157 -119 157c-80 0 -120 -57 -120 -157s40 -157 120 -157zM607 891l-164 -155h-145l110 155h199z" />
    <glyph glyph-name="Obreve" unicode="&#x14e;" horiz-adv-x="819" 
d="M410 689c227 0 382 -132 382 -351s-155 -351 -382 -351c-228 0 -383 132 -383 351s155 351 383 351zM410 181c79 0 119 57 119 157s-40 157 -119 157c-80 0 -120 -57 -120 -157s40 -157 120 -157zM505 886h91c-9 -103 -82 -154 -187 -154s-178 51 -187 154h91
c10 -42 52 -60 96 -60s86 18 96 60z" />
    <glyph glyph-name="Ocaron" unicode="&#x1d1;" horiz-adv-x="819" 
d="M410 689c227 0 382 -132 382 -351s-155 -351 -382 -351c-228 0 -383 132 -383 351s155 351 383 351zM410 181c79 0 119 57 119 157s-40 157 -119 157c-80 0 -120 -57 -120 -157s40 -157 120 -157zM625 891l-119 -155h-194l-119 155h145l71 -70l71 70h145z" />
    <glyph glyph-name="Ocircumflex" unicode="&#xd4;" horiz-adv-x="819" 
d="M410 689c227 0 382 -132 382 -351s-155 -351 -382 -351c-228 0 -383 132 -383 351s155 351 383 351zM410 181c79 0 119 57 119 157s-40 157 -119 157c-80 0 -120 -57 -120 -157s40 -157 120 -157zM506 891l119 -155h-145l-71 70l-71 -70h-145l119 155h194z" />
    <glyph glyph-name="Odblgrave" unicode="&#x20c;" horiz-adv-x="819" 
d="M495 736l-164 155h199l110 -155h-145zM234 736l-164 155h199l110 -155h-145zM410 689c227 0 382 -132 382 -351s-155 -351 -382 -351c-228 0 -383 132 -383 351s155 351 383 351zM410 181c79 0 119 57 119 157s-40 157 -119 157c-80 0 -120 -57 -120 -157
s40 -157 120 -157z" />
    <glyph glyph-name="Odieresis" unicode="&#xd6;" horiz-adv-x="819" 
d="M410 689c227 0 382 -132 382 -351s-155 -351 -382 -351c-228 0 -383 132 -383 351s155 351 383 351zM410 181c79 0 119 57 119 157s-40 157 -119 157c-80 0 -120 -57 -120 -157s40 -157 120 -157zM202 744v131h163v-131h-163zM454 744v131h163v-131h-163z" />
    <glyph glyph-name="Ograve" unicode="&#xd2;" horiz-adv-x="819" 
d="M410 689c227 0 382 -132 382 -351s-155 -351 -382 -351c-228 0 -383 132 -383 351s155 351 383 351zM410 181c79 0 119 57 119 157s-40 157 -119 157c-80 0 -120 -57 -120 -157s40 -157 120 -157zM370 736l-164 155h199l110 -155h-145z" />
    <glyph glyph-name="Ohungarumlaut" unicode="&#x150;" horiz-adv-x="819" 
d="M410 689c227 0 382 -132 382 -351s-155 -351 -382 -351c-228 0 -383 132 -383 351s155 351 383 351zM410 181c79 0 119 57 119 157s-40 157 -119 157c-80 0 -120 -57 -120 -157s40 -157 120 -157zM498 891l-164 -155h-145l110 155h199zM759 891l-164 -155h-145l110 155
h199z" />
    <glyph glyph-name="Oinvertedbreve" unicode="&#x20e;" horiz-adv-x="819" 
d="M410 689c227 0 382 -132 382 -351s-155 -351 -382 -351c-228 0 -383 132 -383 351s155 351 383 351zM410 181c79 0 119 57 119 157s-40 157 -119 157c-80 0 -120 -57 -120 -157s40 -157 120 -157zM596 736h-91c-10 42 -52 60 -96 60s-86 -18 -96 -60h-91
c9 103 82 154 187 154s178 -51 187 -154z" />
    <glyph glyph-name="Omacron" unicode="&#x14c;" horiz-adv-x="819" 
d="M410 689c227 0 382 -132 382 -351s-155 -351 -382 -351c-228 0 -383 132 -383 351s155 351 383 351zM410 181c79 0 119 57 119 157s-40 157 -119 157c-80 0 -120 -57 -120 -157s40 -157 120 -157zM231 751v101h357v-101h-357z" />
    <glyph glyph-name="Omacronacute" unicode="&#x1e52;" horiz-adv-x="819" 
d="M410 689c227 0 382 -132 382 -351s-155 -351 -382 -351c-228 0 -383 132 -383 351s155 351 383 351zM410 181c79 0 119 57 119 157s-40 157 -119 157c-80 0 -120 -57 -120 -157s40 -157 120 -157zM618 1041l-164 -155h-145l110 155h199zM231 739v101h357v-101h-357z" />
    <glyph glyph-name="Omacrongrave" unicode="&#x1e50;" horiz-adv-x="819" 
d="M410 689c227 0 382 -132 382 -351s-155 -351 -382 -351c-228 0 -383 132 -383 351s155 351 383 351zM410 181c79 0 119 57 119 157s-40 157 -119 157c-80 0 -120 -57 -120 -157s40 -157 120 -157zM377 886l-164 155h199l110 -155h-145zM231 739v101h357v-101h-357z" />
    <glyph glyph-name="Oogonek" unicode="&#x1ea;" horiz-adv-x="820" 
d="M577 -123l39 -25c-25 -36 -73 -63 -135 -63c-54 0 -116 22 -116 82c0 47 35 90 66 117c-7 -1 -14 -1 -21 -1c-228 0 -383 132 -383 351s155 351 383 351c227 0 382 -132 382 -351c0 -178 -90 -260 -210 -323c-82 -43 -105 -83 -105 -117c0 -32 25 -41 45 -41
c21 0 43 8 55 20zM410 181c79 0 119 57 119 157s-40 157 -119 157c-80 0 -120 -57 -120 -157s40 -157 120 -157z" />
    <glyph glyph-name="Oogonekmacron" unicode="&#x1ec;" horiz-adv-x="820" 
d="M577 -123l39 -25c-25 -36 -73 -63 -135 -63c-54 0 -116 22 -116 82c0 47 35 90 66 117c-7 -1 -14 -1 -21 -1c-228 0 -383 132 -383 351s155 351 383 351c227 0 382 -132 382 -351c0 -178 -90 -260 -210 -323c-82 -43 -105 -83 -105 -117c0 -32 25 -41 45 -41
c21 0 43 8 55 20zM410 181c79 0 119 57 119 157s-40 157 -119 157c-80 0 -120 -57 -120 -157s40 -157 120 -157zM232 751v101h357v-101h-357z" />
    <glyph glyph-name="Oslash" unicode="&#xd8;" horiz-adv-x="819" 
d="M410 689c72 0 138 -14 193 -40l57 78l47 -35l-53 -71c87 -60 138 -157 138 -283c0 -219 -155 -351 -382 -351c-73 0 -139 14 -195 39l-57 -77l-47 34l53 72c-86 60 -137 157 -137 283c0 219 155 351 383 351zM410 181c79 0 119 57 119 157c0 36 -6 67 -16 91l-170 -230
c18 -12 40 -18 67 -18zM290 338c0 -36 5 -67 15 -91l170 230c-17 12 -39 18 -65 18c-80 0 -120 -57 -120 -157z" />
    <glyph glyph-name="Oslashacute" unicode="&#x1fe;" horiz-adv-x="819" 
d="M410 689c72 0 138 -14 193 -40l57 78l47 -35l-53 -71c87 -60 138 -157 138 -283c0 -219 -155 -351 -382 -351c-73 0 -139 14 -195 39l-57 -77l-47 34l53 72c-86 60 -137 157 -137 283c0 219 155 351 383 351zM410 181c79 0 119 57 119 157c0 36 -6 67 -16 91l-170 -230
c18 -12 40 -18 67 -18zM290 338c0 -36 5 -67 15 -91l170 230c-17 12 -39 18 -65 18c-80 0 -120 -57 -120 -157zM607 891l-164 -155h-145l110 155h199z" />
    <glyph glyph-name="Otilde" unicode="&#xd5;" horiz-adv-x="819" 
d="M410 689c227 0 382 -132 382 -351s-155 -351 -382 -351c-228 0 -383 132 -383 351s155 351 383 351zM410 181c79 0 119 57 119 157s-40 157 -119 157c-80 0 -120 -57 -120 -157s40 -157 120 -157zM205 734c0 64 46 154 126 154c77 0 109 -50 148 -50c20 0 41 24 49 55h83
c-1 -73 -54 -162 -128 -162c-76 0 -100 49 -150 49c-22 0 -40 -23 -47 -46h-81z" />
    <glyph glyph-name="Otildeacute" unicode="&#x1e4c;" horiz-adv-x="819" 
d="M617 1089l-164 -155h-145l110 155h199zM410 689c227 0 382 -132 382 -351s-155 -351 -382 -351c-228 0 -383 132 -383 351s155 351 383 351zM410 181c79 0 119 57 119 157s-40 157 -119 157c-80 0 -120 -57 -120 -157s40 -157 120 -157zM205 734c0 64 46 154 126 154
c77 0 109 -50 148 -50c20 0 41 24 49 55h83c-1 -73 -54 -162 -128 -162c-76 0 -100 49 -150 49c-22 0 -40 -23 -47 -46h-81z" />
    <glyph glyph-name="Otildedieresis" unicode="&#x1e4e;" horiz-adv-x="819" 
d="M204 942v131h163v-131h-163zM456 942v131h163v-131h-163zM410 689c227 0 382 -132 382 -351s-155 -351 -382 -351c-228 0 -383 132 -383 351s155 351 383 351zM410 181c79 0 119 57 119 157s-40 157 -119 157c-80 0 -120 -57 -120 -157s40 -157 120 -157zM205 734
c0 64 46 154 126 154c77 0 109 -50 148 -50c20 0 41 24 49 55h83c-1 -73 -54 -162 -128 -162c-76 0 -100 49 -150 49c-22 0 -40 -23 -47 -46h-81z" />
    <glyph glyph-name="Pacute" unicode="&#x1e54;" horiz-adv-x="711" 
d="M301 689c177 0 395 -57 395 -263c0 -199 -206 -266 -382 -252v-174h-256v673c45 7 128 16 243 16zM312 498v-143c41 -3 129 2 129 73c0 67 -92 75 -129 70zM523 891l-164 -155h-145l110 155h199z" />
    <glyph glyph-name="Pdotaccent" unicode="&#x1e56;" horiz-adv-x="711" 
d="M301 689c177 0 395 -57 395 -263c0 -199 -206 -266 -382 -252v-174h-256v673c45 7 128 16 243 16zM312 498v-143c41 -3 129 2 129 73c0 67 -92 75 -129 70zM264 744v131h163v-131h-163z" />
    <glyph glyph-name="Racute" unicode="&#x154;" horiz-adv-x="742" 
d="M579 278c57 -11 112 -73 140 -278h-259c-41 212 -73 211 -151 211v-211h-251v669c58 10 170 20 260 20c194 0 385 -47 385 -235c0 -105 -69 -151 -124 -176zM331 369c43 0 119 10 119 70c0 56 -68 68 -112 68c-12 0 -22 -1 -30 -2v-135c7 -1 14 -1 23 -1zM545 891
l-164 -155h-145l110 155h199z" />
    <glyph glyph-name="Rcaron" unicode="&#x158;" horiz-adv-x="742" 
d="M579 278c57 -11 112 -73 140 -278h-259c-41 212 -73 211 -151 211v-211h-251v669c58 10 170 20 260 20c194 0 385 -47 385 -235c0 -105 -69 -151 -124 -176zM331 369c43 0 119 10 119 70c0 56 -68 68 -112 68c-12 0 -22 -1 -30 -2v-135c7 -1 14 -1 23 -1zM585 891
l-119 -155h-194l-119 155h145l71 -70l71 70h145z" />
    <glyph glyph-name="Rcedilla" horiz-adv-x="742" 
d="M579 278c57 -11 112 -73 140 -278h-259c-41 212 -73 211 -151 211v-211h-78l-38 -58c64 -2 117 -35 117 -84c0 -50 -41 -91 -125 -91c-55 0 -94 8 -140 26l26 58c37 -8 122 -24 122 26c0 26 -53 33 -86 35l51 88h-100v669c58 10 170 20 260 20c194 0 385 -47 385 -235
c0 -105 -69 -151 -124 -176zM331 369c43 0 119 10 119 70c0 56 -68 68 -112 68c-12 0 -22 -1 -30 -2v-135c7 -1 14 -1 23 -1z" />
    <glyph glyph-name="Rcommaaccent" unicode="&#x156;" horiz-adv-x="742" 
d="M579 278c57 -11 112 -73 140 -278h-259c-41 212 -73 211 -151 211v-211h-251v669c58 10 170 20 260 20c194 0 385 -47 385 -235c0 -105 -69 -151 -124 -176zM331 369c43 0 119 10 119 70c0 56 -68 68 -112 68c-12 0 -22 -1 -30 -2v-135c7 -1 14 -1 23 -1zM283 -73h186
v-144l-89 -131h-92l72 117h-77v158z" />
    <glyph glyph-name="Rdblgrave" unicode="&#x210;" horiz-adv-x="742" 
d="M450 736l-164 155h199l110 -155h-145zM189 736l-164 155h199l110 -155h-145zM579 278c57 -11 112 -73 140 -278h-259c-41 212 -73 211 -151 211v-211h-251v669c58 10 170 20 260 20c194 0 385 -47 385 -235c0 -105 -69 -151 -124 -176zM331 369c43 0 119 10 119 70
c0 56 -68 68 -112 68c-12 0 -22 -1 -30 -2v-135c7 -1 14 -1 23 -1z" />
    <glyph glyph-name="Rdotaccent" unicode="&#x1e58;" horiz-adv-x="742" 
d="M579 278c57 -11 112 -73 140 -278h-259c-41 212 -73 211 -151 211v-211h-251v669c58 10 170 20 260 20c194 0 385 -47 385 -235c0 -105 -69 -151 -124 -176zM331 369c43 0 119 10 119 70c0 56 -68 68 -112 68c-12 0 -22 -1 -30 -2v-135c7 -1 14 -1 23 -1zM266 744v131
h163v-131h-163z" />
    <glyph glyph-name="Rdotbelow" unicode="&#x1e5a;" horiz-adv-x="742" 
d="M294 -204v131h163v-131h-163zM579 278c57 -11 112 -73 140 -278h-259c-41 212 -73 211 -151 211v-211h-251v669c58 10 170 20 260 20c194 0 385 -47 385 -235c0 -105 -69 -151 -124 -176zM331 369c43 0 119 10 119 70c0 56 -68 68 -112 68c-12 0 -22 -1 -30 -2v-135
c7 -1 14 -1 23 -1z" />
    <glyph glyph-name="Rdotbelowmacron" unicode="&#x1e5c;" horiz-adv-x="742" 
d="M294 -204v131h163v-131h-163zM579 278c57 -11 112 -73 140 -278h-259c-41 212 -73 211 -151 211v-211h-251v669c58 10 170 20 260 20c194 0 385 -47 385 -235c0 -105 -69 -151 -124 -176zM331 369c43 0 119 10 119 70c0 56 -68 68 -112 68c-12 0 -22 -1 -30 -2v-135
c7 -1 14 -1 23 -1zM189 751v101h357v-101h-357z" />
    <glyph glyph-name="Rinvertedbreve" unicode="&#x212;" horiz-adv-x="742" 
d="M579 278c57 -11 112 -73 140 -278h-259c-41 212 -73 211 -151 211v-211h-251v669c58 10 170 20 260 20c194 0 385 -47 385 -235c0 -105 -69 -151 -124 -176zM331 369c43 0 119 10 119 70c0 56 -68 68 -112 68c-12 0 -22 -1 -30 -2v-135c7 -1 14 -1 23 -1zM546 736h-91
c-10 42 -52 60 -96 60s-86 -18 -96 -60h-91c9 103 82 154 187 154s178 -51 187 -154z" />
    <glyph glyph-name="Rlinebelow" unicode="&#x1e5e;" horiz-adv-x="742" 
d="M204 -174v101h357v-101h-357zM579 278c57 -11 112 -73 140 -278h-259c-41 212 -73 211 -151 211v-211h-251v669c58 10 170 20 260 20c194 0 385 -47 385 -235c0 -105 -69 -151 -124 -176zM331 369c43 0 119 10 119 70c0 56 -68 68 -112 68c-12 0 -22 -1 -30 -2v-135
c7 -1 14 -1 23 -1z" />
    <glyph glyph-name="Sacute" unicode="&#x15a;" horiz-adv-x="635" 
d="M286 483c0 -49 323 -17 323 -256c0 -166 -116 -240 -294 -240c-121 0 -205 21 -281 51l41 183c64 -31 127 -55 223 -55c43 0 56 11 56 25c0 50 -320 9 -318 265c1 151 116 233 288 233c95 0 184 -17 259 -39l-41 -182c-44 20 -121 40 -200 40c-34 0 -56 -5 -56 -25z
M522 891l-164 -155h-145l110 155h199z" />
    <glyph glyph-name="Sacutedotaccent" unicode="&#x1e64;" horiz-adv-x="635" 
d="M286 483c0 -49 323 -17 323 -256c0 -166 -116 -240 -294 -240c-121 0 -205 21 -281 51l41 183c64 -31 127 -55 223 -55c43 0 56 11 56 25c0 50 -320 9 -318 265c1 151 116 233 288 233c95 0 184 -17 259 -39l-41 -182c-44 20 -121 40 -200 40c-34 0 -56 -5 -56 -25z
M603 890l-164 -155h-145l110 155h199zM121 805v131h163v-131h-163z" />
    <glyph glyph-name="Scaron" unicode="&#x160;" horiz-adv-x="635" 
d="M286 483c0 -49 323 -17 323 -256c0 -166 -116 -240 -294 -240c-121 0 -205 21 -281 51l41 183c64 -31 127 -55 223 -55c43 0 56 11 56 25c0 50 -320 9 -318 265c1 151 116 233 288 233c95 0 184 -17 259 -39l-41 -182c-44 20 -121 40 -200 40c-34 0 -56 -5 -56 -25z
M537 891l-119 -155h-194l-119 155h145l71 -70l71 70h145z" />
    <glyph glyph-name="Scarondotaccent" unicode="&#x1e66;" horiz-adv-x="635" 
d="M234 930v131h163v-131h-163zM286 483c0 -49 323 -17 323 -256c0 -166 -116 -240 -294 -240c-121 0 -205 21 -281 51l41 183c64 -31 127 -55 223 -55c43 0 56 11 56 25c0 50 -320 9 -318 265c1 151 116 233 288 233c95 0 184 -17 259 -39l-41 -182c-44 20 -121 40 -200 40
c-34 0 -56 -5 -56 -25zM532 886l-119 -155h-194l-119 155h145l71 -70l71 70h145z" />
    <glyph glyph-name="Scedilla" unicode="&#x15e;" horiz-adv-x="636" 
d="M163 -207l26 58c37 -8 122 -24 122 26c0 26 -53 33 -86 35l44 76c-97 5 -169 24 -235 50l41 183c64 -31 127 -55 223 -55c43 0 56 11 56 25c0 50 -320 9 -318 265c1 151 116 233 288 233c95 0 184 -17 259 -39l-41 -182c-44 20 -121 40 -200 40c-34 0 -56 -5 -56 -25
c0 -49 323 -17 323 -256c0 -158 -105 -232 -269 -239l-29 -46c64 -2 117 -35 117 -84c0 -50 -41 -91 -125 -91c-55 0 -94 8 -140 26z" />
    <glyph glyph-name="Scircumflex" unicode="&#x15c;" horiz-adv-x="635" 
d="M286 483c0 -49 323 -17 323 -256c0 -166 -116 -240 -294 -240c-121 0 -205 21 -281 51l41 183c64 -31 127 -55 223 -55c43 0 56 11 56 25c0 50 -320 9 -318 265c1 151 116 233 288 233c95 0 184 -17 259 -39l-41 -182c-44 20 -121 40 -200 40c-34 0 -56 -5 -56 -25z
M420 891l119 -155h-145l-71 70l-71 -70h-145l119 155h194z" />
    <glyph glyph-name="Scommaaccent" unicode="&#x218;" horiz-adv-x="635" 
d="M286 483c0 -49 323 -17 323 -256c0 -166 -116 -240 -294 -240c-121 0 -205 21 -281 51l41 183c64 -31 127 -55 223 -55c43 0 56 11 56 25c0 50 -320 9 -318 265c1 151 116 233 288 233c95 0 184 -17 259 -39l-41 -182c-44 20 -121 40 -200 40c-34 0 -56 -5 -56 -25z
M232 -73h186v-144l-89 -131h-92l72 117h-77v158z" />
    <glyph glyph-name="Sdotaccent" unicode="&#x1e60;" horiz-adv-x="635" 
d="M286 483c0 -49 323 -17 323 -256c0 -166 -116 -240 -294 -240c-121 0 -205 21 -281 51l41 183c64 -31 127 -55 223 -55c43 0 56 11 56 25c0 50 -320 9 -318 265c1 151 116 233 288 233c95 0 184 -17 259 -39l-41 -182c-44 20 -121 40 -200 40c-34 0 -56 -5 -56 -25z
M238 744v131h163v-131h-163z" />
    <glyph glyph-name="Sdotbelow" unicode="&#x1e62;" horiz-adv-x="635" 
d="M241 -204v131h163v-131h-163zM286 483c0 -49 323 -17 323 -256c0 -166 -116 -240 -294 -240c-121 0 -205 21 -281 51l41 183c64 -31 127 -55 223 -55c43 0 56 11 56 25c0 50 -320 9 -318 265c1 151 116 233 288 233c95 0 184 -17 259 -39l-41 -182
c-44 20 -121 40 -200 40c-34 0 -56 -5 -56 -25z" />
    <glyph glyph-name="Sdotbelowdotaccent" unicode="&#x1e68;" horiz-adv-x="635" 
d="M241 -204v131h163v-131h-163zM286 483c0 -49 323 -17 323 -256c0 -166 -116 -240 -294 -240c-121 0 -205 21 -281 51l41 183c64 -31 127 -55 223 -55c43 0 56 11 56 25c0 50 -320 9 -318 265c1 151 116 233 288 233c95 0 184 -17 259 -39l-41 -182
c-44 20 -121 40 -200 40c-34 0 -56 -5 -56 -25zM238 744v131h163v-131h-163z" />
    <glyph glyph-name="Tbar" unicode="&#x166;" horiz-adv-x="665" 
d="M463 483v-123h131v-108h-131v-252h-261v252h-131v108h131v123h-192v193h645v-193h-192z" />
    <glyph glyph-name="Tcaron" unicode="&#x164;" horiz-adv-x="665" 
d="M463 483v-483h-261v483h-192v193h645v-193h-192zM548 891l-119 -155h-194l-119 155h145l71 -70l71 70h145z" />
    <glyph glyph-name="Tcircumflexbelow" unicode="&#x1e70;" horiz-adv-x="665" 
d="M429 -73l119 -155h-145l-71 70l-71 -70h-145l119 155h194zM463 483v-483h-261v483h-192v193h645v-193h-192z" />
    <glyph glyph-name="uni021A" unicode="&#x21a;" horiz-adv-x="665" 
d="M463 483v-483h-261v483h-192v193h645v-193h-192zM242 -73h186v-144l-89 -131h-92l72 117h-77v158z" />
    <glyph glyph-name="Tcommaaccent" unicode="&#x162;" horiz-adv-x="665" 
d="M463 483v-483h-261v483h-192v193h645v-193h-192zM242 -73h186v-144l-89 -131h-92l72 117h-77v158z" />
    <glyph glyph-name="Tdotaccent" unicode="&#x1e6a;" horiz-adv-x="665" 
d="M463 483v-483h-261v483h-192v193h645v-193h-192zM251 744v131h163v-131h-163z" />
    <glyph glyph-name="Tdotbelow" unicode="&#x1e6c;" horiz-adv-x="665" 
d="M251 -204v131h163v-131h-163zM463 483v-483h-261v483h-192v193h645v-193h-192z" />
    <glyph glyph-name="Tlinebelow" unicode="&#x1e6e;" horiz-adv-x="665" 
d="M154 -174v101h357v-101h-357zM463 483v-483h-261v483h-192v193h645v-193h-192z" />
    <glyph glyph-name="Uacute" unicode="&#xda;" horiz-adv-x="755" 
d="M443 676h261v-409c0 -192 -122 -280 -327 -280s-326 88 -326 280v409h261v-406c0 -48 10 -84 65 -84c56 0 66 37 66 84v406zM591 891l-164 -155h-145l110 155h199z" />
    <glyph glyph-name="Ubreve" unicode="&#x16c;" horiz-adv-x="755" 
d="M443 676h261v-409c0 -192 -122 -280 -327 -280s-326 88 -326 280v409h261v-406c0 -48 10 -84 65 -84c56 0 66 37 66 84v406zM473 886h91c-9 -103 -82 -154 -187 -154s-178 51 -187 154h91c10 -42 52 -60 96 -60s86 18 96 60z" />
    <glyph glyph-name="Ucaron" unicode="&#x1d3;" horiz-adv-x="755" 
d="M443 676h261v-409c0 -192 -122 -280 -327 -280s-326 88 -326 280v409h261v-406c0 -48 10 -84 65 -84c56 0 66 37 66 84v406zM593 891l-119 -155h-194l-119 155h145l71 -70l71 70h145z" />
    <glyph glyph-name="Ucircumflex" unicode="&#xdb;" horiz-adv-x="755" 
d="M443 676h261v-409c0 -192 -122 -280 -327 -280s-326 88 -326 280v409h261v-406c0 -48 10 -84 65 -84c56 0 66 37 66 84v406zM474 891l119 -155h-145l-71 70l-71 -70h-145l119 155h194z" />
    <glyph glyph-name="Ucircumflexbelow" unicode="&#x1e76;" horiz-adv-x="755" 
d="M474 -73l119 -155h-145l-71 70l-71 -70h-145l119 155h194zM443 676h261v-409c0 -192 -122 -280 -327 -280s-326 88 -326 280v409h261v-406c0 -48 10 -84 65 -84c56 0 66 37 66 84v406z" />
    <glyph glyph-name="Udblgrave" unicode="&#x214;" horiz-adv-x="755" 
d="M466 736l-164 155h199l110 -155h-145zM205 736l-164 155h199l110 -155h-145zM443 676h261v-409c0 -192 -122 -280 -327 -280s-326 88 -326 280v409h261v-406c0 -48 10 -84 65 -84c56 0 66 37 66 84v406z" />
    <glyph glyph-name="Udieresis" unicode="&#xdc;" horiz-adv-x="755" 
d="M443 676h261v-409c0 -192 -122 -280 -327 -280s-326 88 -326 280v409h261v-406c0 -48 10 -84 65 -84c56 0 66 37 66 84v406zM170 744v131h163v-131h-163zM422 744v131h163v-131h-163z" />
    <glyph glyph-name="Udieresisacute" unicode="&#x1d7;" horiz-adv-x="755" 
d="M584 1088l-164 -155h-145l110 155h199zM443 676h261v-409c0 -192 -122 -280 -327 -280s-326 88 -326 280v409h261v-406c0 -48 10 -84 65 -84c56 0 66 37 66 84v406zM170 741v131h163v-131h-163zM422 741v131h163v-131h-163z" />
    <glyph glyph-name="Udieresisbelow" unicode="&#x1e72;" horiz-adv-x="755" 
d="M170 -204v131h163v-131h-163zM422 -204v131h163v-131h-163zM443 676h261v-409c0 -192 -122 -280 -327 -280s-326 88 -326 280v409h261v-406c0 -48 10 -84 65 -84c56 0 66 37 66 84v406z" />
    <glyph glyph-name="Udieresiscaron" unicode="&#x1d9;" horiz-adv-x="755" 
d="M593 1082l-119 -155h-194l-119 155h145l71 -70l71 70h145zM443 676h261v-409c0 -192 -122 -280 -327 -280s-326 88 -326 280v409h261v-406c0 -48 10 -84 65 -84c56 0 66 37 66 84v406zM170 741v131h163v-131h-163zM422 741v131h163v-131h-163z" />
    <glyph glyph-name="Udieresisgrave" unicode="&#x1db;" horiz-adv-x="755" 
d="M329 933l-164 155h199l110 -155h-145zM443 676h261v-409c0 -192 -122 -280 -327 -280s-326 88 -326 280v409h261v-406c0 -48 10 -84 65 -84c56 0 66 37 66 84v406zM170 741v131h163v-131h-163zM422 741v131h163v-131h-163z" />
    <glyph glyph-name="Udieresismacron" unicode="&#x1d5;" horiz-adv-x="755" 
d="M199 923v101h357v-101h-357zM443 676h261v-409c0 -192 -122 -280 -327 -280s-326 88 -326 280v409h261v-406c0 -48 10 -84 65 -84c56 0 66 37 66 84v406zM170 741v131h163v-131h-163zM422 741v131h163v-131h-163z" />
    <glyph glyph-name="Ugrave" unicode="&#xd9;" horiz-adv-x="755" 
d="M443 676h261v-409c0 -192 -122 -280 -327 -280s-326 88 -326 280v409h261v-406c0 -48 10 -84 65 -84c56 0 66 37 66 84v406zM337 736l-164 155h199l110 -155h-145z" />
    <glyph glyph-name="Uhungarumlaut" unicode="&#x170;" horiz-adv-x="755" 
d="M443 676h261v-409c0 -192 -122 -280 -327 -280s-326 88 -326 280v409h261v-406c0 -48 10 -84 65 -84c56 0 66 37 66 84v406zM470 891l-164 -155h-145l110 155h199zM731 891l-164 -155h-145l110 155h199z" />
    <glyph glyph-name="Uinvertedbreve" unicode="&#x216;" horiz-adv-x="755" 
d="M443 676h261v-409c0 -192 -122 -280 -327 -280s-326 88 -326 280v409h261v-406c0 -48 10 -84 65 -84c56 0 66 37 66 84v406zM564 736h-91c-10 42 -52 60 -96 60s-86 -18 -96 -60h-91c9 103 82 154 187 154s178 -51 187 -154z" />
    <glyph glyph-name="Umacron" unicode="&#x16a;" horiz-adv-x="755" 
d="M443 676h261v-409c0 -192 -122 -280 -327 -280s-326 88 -326 280v409h261v-406c0 -48 10 -84 65 -84c56 0 66 37 66 84v406zM199 751v101h357v-101h-357z" />
    <glyph glyph-name="Umacrondieresis" unicode="&#x1e7a;" horiz-adv-x="755" 
d="M170 899v131h163v-131h-163zM422 899v131h163v-131h-163zM443 676h261v-409c0 -192 -122 -280 -327 -280s-326 88 -326 280v409h261v-406c0 -48 10 -84 65 -84c56 0 66 37 66 84v406zM199 742v101h357v-101h-357z" />
    <glyph glyph-name="Uogonek" unicode="&#x172;" horiz-adv-x="756" 
d="M582 -123l39 -25c-25 -36 -73 -63 -135 -63c-54 0 -116 27 -116 87c0 48 36 88 68 114c-20 -2 -40 -3 -61 -3c-205 0 -326 88 -326 280v409h261v-406c0 -48 10 -84 65 -84c56 0 66 37 66 84v406h261v-409c0 -261 -222 -228 -222 -364c0 -32 25 -46 45 -46
c21 0 43 8 55 20z" />
    <glyph glyph-name="Uring" unicode="&#x16e;" horiz-adv-x="755" 
d="M443 676h261v-409c0 -192 -122 -280 -327 -280s-326 88 -326 280v409h261v-406c0 -48 10 -84 65 -84c56 0 66 37 66 84v406zM377 711c-66 0 -123 44 -123 113s57 113 123 113s123 -44 123 -113s-57 -113 -123 -113zM377 873c-29 0 -52 -20 -52 -49s23 -49 52 -49
s52 20 52 49s-23 49 -52 49z" />
    <glyph glyph-name="Utilde" unicode="&#x168;" horiz-adv-x="755" 
d="M443 676h261v-409c0 -192 -122 -280 -327 -280s-326 88 -326 280v409h261v-406c0 -48 10 -84 65 -84c56 0 66 37 66 84v406zM177 734c0 64 46 154 126 154c77 0 109 -50 148 -50c20 0 41 24 49 55h83c-1 -73 -54 -162 -128 -162c-76 0 -100 49 -150 49
c-22 0 -40 -23 -47 -46h-81z" />
    <glyph glyph-name="Utildeacute" unicode="&#x1e78;" horiz-adv-x="755" 
d="M443 676h261v-409c0 -192 -122 -280 -327 -280s-326 88 -326 280v409h261v-406c0 -48 10 -84 65 -84c56 0 66 37 66 84v406zM589 1089l-164 -155h-145l110 155h199zM177 734c0 64 46 154 126 154c77 0 109 -50 148 -50c20 0 41 24 49 55h83c-1 -73 -54 -162 -128 -162
c-76 0 -100 49 -150 49c-22 0 -40 -23 -47 -46h-81z" />
    <glyph glyph-name="Utildebelow" unicode="&#x1e74;" horiz-adv-x="755" 
d="M173 -226c0 64 46 154 126 154c77 0 109 -50 148 -50c20 0 41 24 49 55h83c-1 -73 -54 -162 -128 -162c-76 0 -100 49 -150 49c-22 0 -40 -23 -47 -46h-81zM443 676h261v-409c0 -192 -122 -280 -327 -280s-326 88 -326 280v409h261v-406c0 -48 10 -84 65 -84
c56 0 66 37 66 84v406z" />
    <glyph glyph-name="Vdotbelow" unicode="&#x1e7e;" horiz-adv-x="749" 
d="M293 -204v131h163v-131h-163zM196 0l-202 676h266l114 -449l115 449h267l-204 -676h-356z" />
    <glyph glyph-name="Vtilde" unicode="&#x1e7c;" horiz-adv-x="749" 
d="M196 0l-202 676h266l114 -449l115 449h267l-204 -676h-356zM174 734c0 64 46 154 126 154c77 0 109 -50 148 -50c20 0 41 24 49 55h83c-1 -73 -54 -162 -128 -162c-76 0 -100 49 -150 49c-22 0 -40 -23 -47 -46h-81z" />
    <glyph glyph-name="Wacute" unicode="&#x1e82;" horiz-adv-x="1103" 
d="M841 676h259l-151 -676h-318l-80 380l-81 -380h-316l-151 676h258l68 -460l102 460h238l103 -460zM736 891l-164 -155h-145l110 155h199z" />
    <glyph glyph-name="Wcircumflex" unicode="&#x174;" horiz-adv-x="1103" 
d="M841 676h259l-151 -676h-318l-80 380l-81 -380h-316l-151 676h258l68 -460l102 460h238l103 -460zM648 891l119 -155h-145l-71 70l-71 -70h-145l119 155h194z" />
    <glyph glyph-name="Wdieresis" unicode="&#x1e84;" horiz-adv-x="1103" 
d="M841 676h259l-151 -676h-318l-80 380l-81 -380h-316l-151 676h258l68 -460l102 460h238l103 -460zM344 744v131h163v-131h-163zM596 744v131h163v-131h-163z" />
    <glyph glyph-name="Wdotaccent" unicode="&#x1e86;" horiz-adv-x="1103" 
d="M841 676h259l-151 -676h-318l-80 380l-81 -380h-316l-151 676h258l68 -460l102 460h238l103 -460zM470 744v131h163v-131h-163z" />
    <glyph glyph-name="Wdotbelow" unicode="&#x1e88;" horiz-adv-x="1103" 
d="M470 -204v131h163v-131h-163zM841 676h259l-151 -676h-318l-80 380l-81 -380h-316l-151 676h258l68 -460l102 460h238l103 -460z" />
    <glyph glyph-name="Wgrave" unicode="&#x1e80;" horiz-adv-x="1103" 
d="M841 676h259l-151 -676h-318l-80 380l-81 -380h-316l-151 676h258l68 -460l102 460h238l103 -460zM518 736l-164 155h199l110 -155h-145z" />
    <glyph glyph-name="Xdieresis" unicode="&#x1e8c;" horiz-adv-x="745" 
d="M6 676h270l96 -190l95 190h272l-189 -326l199 -350h-270l-107 206l-107 -206h-270l198 350zM165 744v131h163v-131h-163zM417 744v131h163v-131h-163z" />
    <glyph glyph-name="Xdotaccent" unicode="&#x1e8a;" horiz-adv-x="745" 
d="M6 676h270l96 -190l95 190h272l-189 -326l199 -350h-270l-107 206l-107 -206h-270l198 350zM291 744v131h163v-131h-163z" />
    <glyph glyph-name="Yacute" unicode="&#xdd;" horiz-adv-x="715" 
d="M469 676h263l-244 -435v-241h-261v241l-245 435h264l110 -244zM544 891l-164 -155h-145l110 155h199z" />
    <glyph glyph-name="Ycircumflex" unicode="&#x176;" horiz-adv-x="715" 
d="M469 676h263l-244 -435v-241h-261v241l-245 435h264l110 -244zM454 891l119 -155h-145l-71 70l-71 -70h-145l119 155h194z" />
    <glyph glyph-name="Ydieresis" unicode="&#x178;" horiz-adv-x="715" 
d="M469 676h263l-244 -435v-241h-261v241l-245 435h264l110 -244zM149 744v131h163v-131h-163zM401 744v131h163v-131h-163z" />
    <glyph glyph-name="Ydotaccent" unicode="&#x1e8e;" horiz-adv-x="715" 
d="M469 676h263l-244 -435v-241h-261v241l-245 435h264l110 -244zM275 744v131h163v-131h-163z" />
    <glyph glyph-name="Zacute" unicode="&#x179;" horiz-adv-x="660" 
d="M48 676h566v-186l-254 -299h260v-191h-587v155l285 330h-270v191zM530 891l-164 -155h-145l110 155h199z" />
    <glyph glyph-name="Zcaron" unicode="&#x17d;" horiz-adv-x="660" 
d="M48 676h566v-186l-254 -299h260v-191h-587v155l285 330h-270v191zM546 891l-119 -155h-194l-119 155h145l71 -70l71 70h145z" />
    <glyph glyph-name="Zcircumflex" unicode="&#x1e90;" horiz-adv-x="660" 
d="M48 676h566v-186l-254 -299h260v-191h-587v155l285 330h-270v191zM427 891l119 -155h-145l-71 70l-71 -70h-145l119 155h194z" />
    <glyph glyph-name="Zdotaccent" unicode="&#x17b;" horiz-adv-x="660" 
d="M48 676h566v-186l-254 -299h260v-191h-587v155l285 330h-270v191zM251 744v131h163v-131h-163z" />
    <glyph glyph-name="Zdotbelow" unicode="&#x1e92;" horiz-adv-x="660" 
d="M251 -204v131h163v-131h-163zM48 676h566v-186l-254 -299h260v-191h-587v155l285 330h-270v191z" />
    <glyph glyph-name="Zlinebelow" unicode="&#x1e94;" horiz-adv-x="660" 
d="M149 -174v101h357v-101h-357zM48 676h566v-186l-254 -299h260v-191h-587v155l285 330h-270v191z" />
    <glyph glyph-name="Eng" unicode="&#x14a;" horiz-adv-x="814" 
d="M517 676h239v-584c0 -188 -59 -299 -261 -299c-70 0 -137 13 -190 37l45 177c17 -5 45 -11 72 -11c40 0 71 5 86 32l-211 319v-347h-239v676h260l199 -318v318z" />
    <glyph glyph-name="Eth" unicode="&#xd0;" horiz-adv-x="793" 
d="M4 396h65v276c74 11 151 17 260 17c258 0 437 -127 437 -355c0 -299 -280 -347 -469 -347c-88 0 -172 8 -228 14v295h-65v100zM359 178c101 0 144 71 144 168c0 100 -51 158 -142 158c-10 0 -24 0 -32 -1v-107h105v-100h-105v-117c8 -1 21 -1 30 -1z" />
    <glyph glyph-name="Thorn" unicode="&#xde;" horiz-adv-x="719" 
d="M58 676h256v-78c187 -5 382 -56 382 -257c0 -189 -192 -256 -382 -252v-89h-256v676zM441 343c0 66 -89 75 -127 70v-143c42 -3 127 3 127 73z" />
    <glyph glyph-name="zeroinferior" unicode="&#x2080;" horiz-adv-x="405" 
d="M202 264c129 0 193 -87 193 -210s-64 -211 -193 -211c-128 0 -193 88 -193 211s65 210 193 210zM202 -45c24 0 32 39 32 99s-7 99 -32 99c-23 0 -32 -39 -32 -99s8 -99 32 -99z" />
    <glyph glyph-name="oneinferior" unicode="&#x2081;" horiz-adv-x="405" 
d="M158 -149v229h-98v90c61 0 120 18 124 87h132v-406h-158z" />
    <glyph glyph-name="twoinferior" unicode="&#x2082;" horiz-adv-x="405" 
d="M197 264c96 0 174 -25 174 -130c0 -66 -48 -110 -115 -158h119v-125h-348v119c88 54 182 98 182 144c0 17 -21 25 -48 25c-47 0 -84 -13 -111 -26l-23 117c43 18 118 34 170 34z" />
    <glyph glyph-name="threeinferior" unicode="&#x2083;" horiz-adv-x="405" 
d="M293 59c44 -11 86 -49 86 -99c0 -87 -94 -117 -196 -117c-63 0 -120 10 -159 24l15 120c33 -14 70 -25 111 -25c36 0 64 4 64 20c0 15 -15 21 -40 21h-78v107h61c24 0 45 2 45 18s-20 18 -49 18c-37 0 -74 -10 -96 -19l-18 113c39 14 89 24 145 24
c105 0 175 -36 175 -117c0 -43 -31 -73 -66 -88z" />
    <glyph glyph-name="fourinferior" unicode="&#x2084;" horiz-adv-x="405" 
d="M388 38v-114h-39v-73h-148v73h-195v113l157 220h186v-219h39zM133 35h71v101z" />
    <glyph glyph-name="fiveinferior" unicode="&#x2085;" horiz-adv-x="405" 
d="M37 56l30 201h293v-120h-155l-7 -27c7 0 15 1 23 1c76 0 154 -37 154 -135c0 -99 -98 -133 -198 -133c-49 0 -106 10 -151 23l16 117c32 -14 69 -24 100 -24c38 0 61 7 61 26c0 26 -29 32 -57 32c-20 0 -39 -3 -49 -5z" />
    <glyph glyph-name="sixinferior" unicode="&#x2086;" horiz-adv-x="405" 
d="M258 119c90 0 130 -58 130 -134c0 -83 -64 -142 -184 -142c-122 0 -185 81 -185 211c0 131 90 210 202 210c61 0 104 -11 144 -30l-22 -108c-19 9 -55 18 -93 18c-40 0 -75 -15 -79 -50c25 16 51 25 87 25zM209 -52c17 0 26 17 26 37c0 21 -7 38 -26 38
c-17 0 -26 -17 -26 -38c0 -20 7 -37 26 -37z" />
    <glyph glyph-name="seveninferior" unicode="&#x2087;" horiz-adv-x="405" 
d="M31 257h345v-111c-64 -81 -113 -170 -118 -295h-163c2 97 49 190 107 278h-171v128z" />
    <glyph glyph-name="eightinferior" unicode="&#x2088;" horiz-adv-x="405" 
d="M307 58c50 -16 81 -47 81 -101c0 -93 -82 -114 -186 -114s-186 21 -186 114c0 54 31 85 82 101c-43 14 -67 43 -67 98c0 74 67 108 171 108c105 0 172 -34 172 -108c0 -55 -25 -84 -67 -98zM202 180c-17 0 -23 -16 -23 -36c0 -21 9 -35 23 -35c15 0 23 14 23 35
c0 19 -5 36 -23 36zM202 -70c20 0 28 17 28 41c0 27 -6 44 -28 44c-21 0 -28 -17 -28 -44c0 -25 8 -41 28 -41z" />
    <glyph glyph-name="nineinferior" unicode="&#x2089;" horiz-adv-x="405" 
d="M154 -12c-93 0 -138 61 -138 137c0 83 74 139 177 139c143 0 196 -91 196 -205c0 -131 -67 -216 -206 -216c-52 0 -113 12 -153 31l22 111c26 -12 69 -22 107 -22c49 0 73 12 78 44c-17 -9 -38 -19 -83 -19zM198 159c-19 0 -27 -18 -27 -39s7 -38 27 -38
c21 0 27 17 27 38s-8 39 -27 39z" />
    <glyph glyph-name="zero.dnom" unicode="&#xf655;" horiz-adv-x="436" 
d="M218 413c129 0 193 -87 193 -210s-64 -211 -193 -211c-128 0 -193 88 -193 211s65 210 193 210zM218 104c24 0 32 39 32 99s-7 99 -32 99c-23 0 -32 -39 -32 -99s8 -99 32 -99z" />
    <glyph glyph-name="one.dnom" unicode="&#xf656;" horiz-adv-x="308" 
d="M108 0v229h-98v90c61 0 120 18 124 87h132v-406h-158z" />
    <glyph glyph-name="two.dnom" unicode="&#xf657;" horiz-adv-x="408" 
d="M199 413c96 0 174 -25 174 -130c0 -66 -48 -110 -115 -158h119v-125h-348v119c88 54 182 98 182 144c0 17 -21 25 -48 25c-47 0 -84 -13 -111 -26l-23 117c43 18 118 34 170 34z" />
    <glyph glyph-name="three.dnom" unicode="&#xf658;" horiz-adv-x="397" 
d="M289 208c44 -11 86 -49 86 -99c0 -87 -94 -117 -196 -117c-63 0 -120 10 -159 24l15 120c33 -14 70 -25 111 -25c36 0 64 4 64 20c0 15 -15 21 -40 21h-78v107h61c24 0 45 2 45 18s-20 18 -49 18c-37 0 -74 -10 -96 -19l-18 113c39 14 89 24 145 24
c105 0 175 -36 175 -117c0 -43 -31 -73 -66 -88z" />
    <glyph glyph-name="four.dnom" unicode="&#xf659;" horiz-adv-x="423" 
d="M396 187v-114h-39v-73h-148v73h-195v113l157 220h186v-219h39zM141 184h71v101z" />
    <glyph glyph-name="five.dnom" unicode="&#xf65a;" horiz-adv-x="394" 
d="M32 205l30 201h293v-120h-155l-7 -27c7 0 15 1 23 1c76 0 154 -37 154 -135c0 -99 -98 -133 -198 -133c-49 0 -106 10 -151 23l16 117c32 -14 69 -24 100 -24c38 0 61 7 61 26c0 26 -29 32 -57 32c-20 0 -39 -3 -49 -5z" />
    <glyph glyph-name="six.dnom" unicode="&#xf65b;" horiz-adv-x="417" 
d="M264 268c90 0 130 -58 130 -134c0 -83 -64 -142 -184 -142c-122 0 -185 81 -185 211c0 131 90 210 202 210c61 0 104 -11 144 -30l-22 -108c-19 9 -55 18 -93 18c-40 0 -75 -15 -79 -50c25 16 51 25 87 25zM215 97c17 0 26 17 26 37c0 21 -7 38 -26 38
c-17 0 -26 -17 -26 -38c0 -20 7 -37 26 -37z" />
    <glyph glyph-name="seven.dnom" unicode="&#xf65c;" horiz-adv-x="369" 
d="M14 406h345v-111c-64 -81 -113 -170 -118 -295h-163c2 97 49 190 107 278h-171v128z" />
    <glyph glyph-name="eight.dnom" unicode="&#xf65d;" horiz-adv-x="422" 
d="M316 207c50 -16 81 -47 81 -101c0 -93 -82 -114 -186 -114s-186 21 -186 114c0 54 31 85 82 101c-43 14 -67 43 -67 98c0 74 67 108 171 108c105 0 172 -34 172 -108c0 -55 -25 -84 -67 -98zM211 329c-17 0 -23 -16 -23 -36c0 -21 9 -35 23 -35c15 0 23 14 23 35
c0 19 -5 36 -23 36zM211 79c20 0 28 17 28 41c0 27 -6 44 -28 44c-21 0 -28 -17 -28 -44c0 -25 8 -41 28 -41z" />
    <glyph glyph-name="nine.dnom" unicode="&#xf65e;" horiz-adv-x="423" 
d="M163 137c-93 0 -138 61 -138 137c0 83 74 139 177 139c143 0 196 -91 196 -205c0 -131 -67 -216 -206 -216c-52 0 -113 12 -153 31l22 111c26 -12 69 -22 107 -22c49 0 73 12 78 44c-17 -9 -38 -19 -83 -19zM207 308c-19 0 -27 -18 -27 -39s7 -38 27 -38
c21 0 27 17 27 38s-8 39 -27 39z" />
    <glyph glyph-name="zero.numr" unicode="&#xf661;" horiz-adv-x="405" 
d="M202 694c129 0 193 -87 193 -210s-64 -211 -193 -211c-128 0 -193 88 -193 211s65 210 193 210zM202 385c24 0 32 39 32 99s-7 99 -32 99c-23 0 -32 -39 -32 -99s8 -99 32 -99z" />
    <glyph glyph-name="one.numr" unicode="&#xf662;" horiz-adv-x="405" 
d="M155 281v229h-98v90c61 0 120 18 124 87h132v-406h-158z" />
    <glyph glyph-name="two.numr" unicode="&#xf663;" horiz-adv-x="405" 
d="M197 694c96 0 174 -25 174 -130c0 -66 -48 -110 -115 -158h119v-125h-348v119c88 54 182 98 182 144c0 17 -21 25 -48 25c-47 0 -84 -13 -111 -26l-23 117c43 18 118 34 170 34z" />
    <glyph glyph-name="three.numr" unicode="&#xf664;" horiz-adv-x="405" 
d="M293 489c44 -11 86 -49 86 -99c0 -87 -94 -117 -196 -117c-63 0 -120 10 -159 24l15 120c33 -14 70 -25 111 -25c36 0 64 4 64 20c0 15 -15 21 -40 21h-78v107h61c24 0 45 2 45 18s-20 18 -49 18c-37 0 -74 -10 -96 -19l-18 113c39 14 89 24 145 24
c105 0 175 -36 175 -117c0 -43 -31 -73 -66 -88z" />
    <glyph glyph-name="four.numr" unicode="&#xf665;" horiz-adv-x="405" 
d="M387 468v-114h-39v-73h-148v73h-195v113l157 220h186v-219h39zM132 465h71v101z" />
    <glyph glyph-name="five.numr" unicode="&#xf666;" horiz-adv-x="405" 
d="M37 486l30 201h293v-120h-155l-7 -27c7 0 15 1 23 1c76 0 154 -37 154 -135c0 -99 -98 -133 -198 -133c-49 0 -106 10 -151 23l16 117c32 -14 69 -24 100 -24c38 0 61 7 61 26c0 26 -29 32 -57 32c-20 0 -39 -3 -49 -5z" />
    <glyph glyph-name="six.numr" unicode="&#xf667;" horiz-adv-x="405" 
d="M258 549c90 0 130 -58 130 -134c0 -83 -64 -142 -184 -142c-122 0 -185 81 -185 211c0 131 90 210 202 210c61 0 104 -11 144 -30l-22 -108c-19 9 -55 18 -93 18c-40 0 -75 -15 -79 -50c25 16 51 25 87 25zM209 378c17 0 26 17 26 37c0 21 -7 38 -26 38
c-17 0 -26 -17 -26 -38c0 -20 7 -37 26 -37z" />
    <glyph glyph-name="seven.numr" unicode="&#xf668;" horiz-adv-x="405" 
d="M31 687h345v-111c-64 -81 -113 -170 -118 -295h-163c2 97 49 190 107 278h-171v128z" />
    <glyph glyph-name="eight.numr" unicode="&#xf669;" horiz-adv-x="405" 
d="M307 488c50 -16 81 -47 81 -101c0 -93 -82 -114 -186 -114s-186 21 -186 114c0 54 31 85 82 101c-43 14 -67 43 -67 98c0 74 67 108 171 108c105 0 172 -34 172 -108c0 -55 -25 -84 -67 -98zM202 610c-17 0 -23 -16 -23 -36c0 -21 9 -35 23 -35c15 0 23 14 23 35
c0 19 -5 36 -23 36zM202 360c20 0 28 17 28 41c0 27 -6 44 -28 44c-21 0 -28 -17 -28 -44c0 -25 8 -41 28 -41z" />
    <glyph glyph-name="nine.numr" unicode="&#xf66a;" horiz-adv-x="405" 
d="M154 418c-93 0 -138 61 -138 137c0 83 74 139 177 139c143 0 196 -91 196 -205c0 -131 -67 -216 -206 -216c-52 0 -113 12 -153 31l22 111c26 -12 69 -22 107 -22c49 0 73 12 78 44c-17 -9 -38 -19 -83 -19zM198 589c-19 0 -27 -18 -27 -39s7 -38 27 -38
c21 0 27 17 27 38s-8 39 -27 39z" />
    <glyph glyph-name="zerosuperior" unicode="&#x2070;" horiz-adv-x="405" 
d="M202 833c129 0 193 -87 193 -210s-64 -211 -193 -211c-128 0 -193 88 -193 211s65 210 193 210zM202 524c24 0 32 39 32 99s-7 99 -32 99c-23 0 -32 -39 -32 -99s8 -99 32 -99z" />
    <glyph glyph-name="onesuperior" unicode="&#xb9;" horiz-adv-x="405" 
d="M156 420v229h-98v90c61 0 120 18 124 87h132v-406h-158z" />
    <glyph glyph-name="twosuperior" unicode="&#xb2;" horiz-adv-x="405" 
d="M197 833c96 0 174 -25 174 -130c0 -66 -48 -110 -115 -158h119v-125h-348v119c88 54 182 98 182 144c0 17 -21 25 -48 25c-47 0 -84 -13 -111 -26l-23 117c43 18 118 34 170 34z" />
    <glyph glyph-name="threesuperior" unicode="&#xb3;" horiz-adv-x="405" 
d="M293 628c44 -11 86 -49 86 -99c0 -87 -94 -117 -196 -117c-63 0 -120 10 -159 24l15 120c33 -14 70 -25 111 -25c36 0 64 4 64 20c0 15 -15 21 -40 21h-78v107h61c24 0 45 2 45 18s-20 18 -49 18c-37 0 -74 -10 -96 -19l-18 113c39 14 89 24 145 24
c105 0 175 -36 175 -117c0 -43 -31 -73 -66 -88z" />
    <glyph glyph-name="foursuperior" unicode="&#x2074;" horiz-adv-x="405" 
d="M386 607v-114h-39v-73h-148v73h-195v113l157 220h186v-219h39zM131 604h71v101z" />
    <glyph glyph-name="fivesuperior" unicode="&#x2075;" horiz-adv-x="405" 
d="M38 625l30 201h293v-120h-155l-7 -27c7 0 15 1 23 1c76 0 154 -37 154 -135c0 -99 -98 -133 -198 -133c-49 0 -106 10 -151 23l16 117c32 -14 69 -24 100 -24c38 0 61 7 61 26c0 26 -29 32 -57 32c-20 0 -39 -3 -49 -5z" />
    <glyph glyph-name="sixsuperior" unicode="&#x2076;" horiz-adv-x="405" 
d="M258 688c90 0 130 -58 130 -134c0 -83 -64 -142 -184 -142c-122 0 -185 81 -185 211c0 131 90 210 202 210c61 0 104 -11 144 -30l-22 -108c-19 9 -55 18 -93 18c-40 0 -75 -15 -79 -50c25 16 51 25 87 25zM209 517c17 0 26 17 26 37c0 21 -7 38 -26 38
c-17 0 -26 -17 -26 -38c0 -20 7 -37 26 -37z" />
    <glyph glyph-name="sevensuperior" unicode="&#x2077;" horiz-adv-x="405" 
d="M32 826h345v-111c-64 -81 -113 -170 -118 -295h-163c2 97 49 190 107 278h-171v128z" />
    <glyph glyph-name="eightsuperior" unicode="&#x2078;" horiz-adv-x="405" 
d="M307 627c50 -16 81 -47 81 -101c0 -93 -82 -114 -186 -114s-186 21 -186 114c0 54 31 85 82 101c-43 14 -67 43 -67 98c0 74 67 108 171 108c105 0 172 -34 172 -108c0 -55 -25 -84 -67 -98zM202 749c-17 0 -23 -16 -23 -36c0 -21 9 -35 23 -35c15 0 23 14 23 35
c0 19 -5 36 -23 36zM202 499c20 0 28 17 28 41c0 27 -6 44 -28 44c-21 0 -28 -17 -28 -44c0 -25 8 -41 28 -41z" />
    <glyph glyph-name="ninesuperior" unicode="&#x2079;" horiz-adv-x="405" 
d="M154 557c-93 0 -138 61 -138 137c0 83 74 139 177 139c143 0 196 -91 196 -205c0 -131 -67 -216 -206 -216c-52 0 -113 12 -153 31l22 111c26 -12 69 -22 107 -22c49 0 73 12 78 44c-17 -9 -38 -19 -83 -19zM198 728c-19 0 -27 -18 -27 -39s7 -38 27 -38
c21 0 27 17 27 38s-8 39 -27 39z" />
    <glyph glyph-name="a" unicode="a" horiz-adv-x="649" 
d="M312 543c197 0 294 -79 294 -230v-313h-252v49c-39 -36 -88 -62 -155 -62c-106 0 -180 77 -180 170c0 113 83 171 228 171c26 0 81 -5 104 -10v5c0 32 -29 49 -93 49c-57 0 -119 -11 -166 -29l-35 158c67 26 158 42 255 42zM357 197v18c-10 2 -23 3 -37 3
c-39 0 -62 -19 -62 -49c0 -24 16 -41 44 -41c41 0 55 32 55 69z" />
    <glyph glyph-name="b" unicode="b" horiz-adv-x="704" 
d="M456 543c133 0 223 -124 223 -277s-90 -279 -223 -279c-66 0 -122 32 -161 81v-68h-245v739h255v-263c39 42 90 67 151 67zM358 177c44 0 74 40 74 89s-30 89 -74 89s-74 -40 -74 -89s30 -89 74 -89z" />
    <glyph glyph-name="c" unicode="c" horiz-adv-x="539" 
d="M382 171c47 0 78 11 102 22l33 -171c-52 -18 -119 -35 -196 -35c-183 0 -297 113 -297 278c0 163 114 278 297 278c77 0 144 -18 196 -36l-33 -164c-24 10 -55 21 -102 21c-85 0 -108 -52 -108 -96c0 -43 23 -97 108 -97z" />
    <glyph glyph-name="d" unicode="d" horiz-adv-x="704" 
d="M257 543c61 0 106 -25 142 -65v261h255v-739h-245v68c-39 -49 -95 -81 -161 -81c-133 0 -223 126 -223 279s95 277 232 277zM346 177c44 0 74 40 74 89s-30 89 -74 89s-74 -40 -74 -89s30 -89 74 -89z" />
    <glyph glyph-name="e" unicode="e" horiz-adv-x="612" 
d="M587 206h-333c22 -45 77 -57 145 -57c51 0 97 11 139 25l26 -150c-61 -24 -145 -37 -226 -37c-172 0 -315 91 -315 284c0 166 132 272 287 272c222 0 303 -147 277 -337zM247 325h132c-5 38 -23 70 -63 70c-42 0 -61 -32 -69 -70zM247 325h132h-132z" />
    <glyph glyph-name="f" unicode="f" horiz-adv-x="442" 
d="M297 752c62 0 112 -11 147 -25l-17 -140c-7 1 -16 2 -24 2c-31 0 -62 -4 -62 -55v-4h84v-175h-84v-355h-255v355h-56v175h56v2c0 176 107 220 211 220z" />
    <glyph glyph-name="g" unicode="g" horiz-adv-x="702" 
d="M408 530h245v-446c0 -204 -90 -291 -312 -291c-206 0 -268 66 -268 142c0 62 43 113 121 137c-104 23 -171 119 -171 232c0 132 91 239 224 239c66 0 122 -27 161 -69v56zM340 366c-41 0 -68 -38 -68 -83c0 -46 27 -84 68 -84s69 38 69 84c0 45 -28 83 -69 83zM404 -2v70
s-98 -9 -98 -79c0 -33 17 -51 47 -51c31 0 51 20 51 60z" />
    <glyph glyph-name="h" unicode="h" horiz-adv-x="699" 
d="M654 360v-360h-255v303c0 27 -21 49 -47 49s-47 -22 -47 -49v-303h-255v739h255v-258c36 37 89 62 158 62c107 0 191 -78 191 -183z" />
    <glyph glyph-name="i" unicode="i" horiz-adv-x="355" 
d="M50 0v530h255v-530h-255zM308 739v-158h-261v158h261z" />
    <glyph glyph-name="j" unicode="j" horiz-adv-x="356" 
d="M51 530h255v-477c0 -227 -178 -253 -322 -260l-18 161c35 12 85 31 85 88v488zM309 739v-158h-261v158h261z" />
    <glyph glyph-name="k" unicode="k" horiz-adv-x="684" 
d="M691 0h-271l-115 216v-216h-255v739h255v-380l108 171h257l-163 -216z" />
    <glyph glyph-name="l" unicode="l" horiz-adv-x="355" 
d="M50 0v739h255v-739h-255z" />
    <glyph glyph-name="m" unicode="m" horiz-adv-x="1038" 
d="M805 543c107 0 188 -78 188 -183v-360h-255v303c0 27 -18 49 -44 49s-45 -22 -45 -49v-303h-255v303c0 27 -18 49 -44 49s-45 -22 -45 -49v-303h-255v530h244v-54c36 39 98 67 167 67c66 0 122 -30 155 -77c26 29 88 77 189 77z" />
    <glyph glyph-name="n" unicode="n" horiz-adv-x="699" 
d="M654 360v-360h-255v303c0 27 -21 49 -47 49s-47 -22 -47 -49v-303h-255v530h247v-52c40 40 97 65 166 65c107 0 191 -78 191 -183z" />
    <glyph glyph-name="o" unicode="o" horiz-adv-x="684" 
d="M343 543c172 0 319 -102 319 -278s-147 -278 -319 -278c-173 0 -321 101 -321 278s148 278 321 278zM342 172c45 0 75 43 75 93s-30 93 -75 93s-75 -43 -75 -93s30 -93 75 -93z" />
    <glyph glyph-name="p" unicode="p" horiz-adv-x="704" 
d="M447 -13c-61 0 -106 25 -142 65v-246h-255v724h245v-68c39 49 95 81 161 81c133 0 223 -126 223 -279s-95 -277 -232 -277zM358 355c-44 0 -74 -40 -74 -89s30 -89 74 -89s74 40 74 89s-30 89 -74 89z" />
    <glyph glyph-name="q" unicode="q" horiz-adv-x="704" 
d="M248 -13c-133 0 -223 124 -223 277s90 279 223 279c66 0 122 -32 161 -81v68h245v-724h-255v248c-39 -42 -90 -67 -151 -67zM346 355c-44 0 -74 -40 -74 -89s30 -89 74 -89s74 40 74 89s-30 89 -74 89z" />
    <glyph glyph-name="r" unicode="r" horiz-adv-x="477" 
d="M462 340c-99 13 -157 -38 -157 -142v-198h-255v530h238v-94c20 44 57 128 174 102v-198z" />
    <glyph glyph-name="s" unicode="s" horiz-adv-x="547" 
d="M287 369c0 -37 234 -1 234 -197c0 -125 -100 -185 -257 -185c-88 0 -172 24 -241 61l23 152c45 -30 112 -54 180 -54c27 0 42 7 42 20c0 33 -228 0 -228 191c0 126 104 186 261 186c74 0 143 -17 204 -43l-22 -145c-36 16 -101 32 -143 32c-25 0 -53 -1 -53 -18z" />
    <glyph glyph-name="t" unicode="t" horiz-adv-x="469" 
d="M27 355v175h55v123h255v-123h92v-175h-92v-141c0 -42 31 -57 62 -57c9 0 19 1 27 2l20 -141c-39 -17 -105 -31 -171 -31c-113 0 -193 41 -193 165v203h-55z" />
    <glyph glyph-name="u" unicode="u" horiz-adv-x="699" 
d="M45 170v360h255v-303c0 -27 21 -49 47 -49s47 22 47 49v303h255v-530h-247v52c-40 -40 -97 -65 -166 -65c-107 0 -191 78 -191 183z" />
    <glyph glyph-name="v" unicode="v" horiz-adv-x="644" 
d="M396 530h255l-186 -530h-286l-186 530h255l74 -313z" />
    <glyph glyph-name="w" unicode="w" horiz-adv-x="955" 
d="M699 530h257l-160 -530h-247l-71 241l-73 -241h-246l-160 530h260l51 -289l75 289h181l79 -289z" />
    <glyph glyph-name="x" unicode="x" horiz-adv-x="676" 
d="M508 277l173 -277h-271l-72 158l-72 -158h-271l173 277l-155 253h246l79 -139l79 139h246z" />
    <glyph glyph-name="y" unicode="y" horiz-adv-x="696" 
d="M392 530h255v-446c0 -204 -90 -291 -312 -291c-206 0 -268 66 -268 142c0 60 40 110 114 135c-90 7 -138 58 -138 139v321h255v-287c0 -28 21 -50 47 -50s47 22 47 50v287zM392 -3v71s-92 -13 -92 -83c0 -25 11 -47 43 -47c37 0 49 25 49 59z" />
    <glyph glyph-name="z" unicode="z" horiz-adv-x="567" 
d="M526 377l-191 -206h196v-171h-502v144l204 215h-186v171h479v-153z" />
    <glyph glyph-name="aacute" unicode="&#xe1;" horiz-adv-x="649" 
d="M312 543c197 0 294 -79 294 -230v-313h-252v49c-39 -36 -88 -62 -155 -62c-106 0 -180 77 -180 170c0 113 83 171 228 171c26 0 81 -5 104 -10v5c0 32 -29 49 -93 49c-57 0 -119 -11 -166 -29l-35 158c67 26 158 42 255 42zM357 197v18c-10 2 -23 3 -37 3
c-39 0 -62 -19 -62 -49c0 -24 16 -41 44 -41c41 0 55 32 55 69zM499 745l-164 -155h-145l110 155h199z" />
    <glyph glyph-name="abreve" unicode="&#x103;" horiz-adv-x="649" 
d="M312 543c197 0 294 -79 294 -230v-313h-252v49c-39 -36 -88 -62 -155 -62c-106 0 -180 77 -180 170c0 113 83 171 228 171c26 0 81 -5 104 -10v5c0 32 -29 49 -93 49c-57 0 -119 -11 -166 -29l-35 158c67 26 158 42 255 42zM357 197v18c-10 2 -23 3 -37 3
c-39 0 -62 -19 -62 -49c0 -24 16 -41 44 -41c41 0 55 32 55 69zM418 740h91c-9 -103 -82 -154 -187 -154s-178 51 -187 154h91c10 -42 52 -60 96 -60s86 18 96 60z" />
    <glyph glyph-name="acaron" unicode="&#x1ce;" horiz-adv-x="649" 
d="M312 543c197 0 294 -79 294 -230v-313h-252v49c-39 -36 -88 -62 -155 -62c-106 0 -180 77 -180 170c0 113 83 171 228 171c26 0 81 -5 104 -10v5c0 32 -29 49 -93 49c-57 0 -119 -11 -166 -29l-35 158c67 26 158 42 255 42zM357 197v18c-10 2 -23 3 -37 3
c-39 0 -62 -19 -62 -49c0 -24 16 -41 44 -41c41 0 55 32 55 69zM532 745l-119 -155h-194l-119 155h145l71 -70l71 70h145z" />
    <glyph glyph-name="acircumflex" unicode="&#xe2;" horiz-adv-x="649" 
d="M312 543c197 0 294 -79 294 -230v-313h-252v49c-39 -36 -88 -62 -155 -62c-106 0 -180 77 -180 170c0 113 83 171 228 171c26 0 81 -5 104 -10v5c0 32 -29 49 -93 49c-57 0 -119 -11 -166 -29l-35 158c67 26 158 42 255 42zM357 197v18c-10 2 -23 3 -37 3
c-39 0 -62 -19 -62 -49c0 -24 16 -41 44 -41c41 0 55 32 55 69zM411 745l119 -155h-145l-71 70l-71 -70h-145l119 155h194z" />
    <glyph glyph-name="adblgrave" unicode="&#x201;" horiz-adv-x="649" 
d="M406 590l-164 155h199l110 -155h-145zM145 590l-164 155h199l110 -155h-145zM312 543c197 0 294 -79 294 -230v-313h-252v49c-39 -36 -88 -62 -155 -62c-106 0 -180 77 -180 170c0 113 83 171 228 171c26 0 81 -5 104 -10v5c0 32 -29 49 -93 49c-57 0 -119 -11 -166 -29
l-35 158c67 26 158 42 255 42zM357 197v18c-10 2 -23 3 -37 3c-39 0 -62 -19 -62 -49c0 -24 16 -41 44 -41c41 0 55 32 55 69z" />
    <glyph glyph-name="adieresis" unicode="&#xe4;" horiz-adv-x="649" 
d="M312 543c197 0 294 -79 294 -230v-313h-252v49c-39 -36 -88 -62 -155 -62c-106 0 -180 77 -180 170c0 113 83 171 228 171c26 0 81 -5 104 -10v5c0 32 -29 49 -93 49c-57 0 -119 -11 -166 -29l-35 158c67 26 158 42 255 42zM357 197v18c-10 2 -23 3 -37 3
c-39 0 -62 -19 -62 -49c0 -24 16 -41 44 -41c41 0 55 32 55 69zM112 598v131h163v-131h-163zM364 598v131h163v-131h-163z" />
    <glyph glyph-name="adieresismacron" unicode="&#x1df;" horiz-adv-x="649" 
d="M312 543c197 0 294 -79 294 -230v-313h-252v49c-39 -36 -88 -62 -155 -62c-106 0 -180 77 -180 170c0 113 83 171 228 171c26 0 81 -5 104 -10v5c0 32 -29 49 -93 49c-57 0 -119 -11 -166 -29l-35 158c67 26 158 42 255 42zM357 197v18c-10 2 -23 3 -37 3
c-39 0 -62 -19 -62 -49c0 -24 16 -41 44 -41c41 0 55 32 55 69zM141 797v101h357v-101h-357zM112 598v131h163v-131h-163zM364 598v131h163v-131h-163z" />
    <glyph glyph-name="adotaccentmacron" unicode="&#x1e1;" horiz-adv-x="649" 
d="M312 543c197 0 294 -79 294 -230v-313h-252v49c-39 -36 -88 -62 -155 -62c-106 0 -180 77 -180 170c0 113 83 171 228 171c26 0 81 -5 104 -10v5c0 32 -29 49 -93 49c-57 0 -119 -11 -166 -29l-35 158c67 26 158 42 255 42zM357 197v18c-10 2 -23 3 -37 3
c-39 0 -62 -19 -62 -49c0 -24 16 -41 44 -41c41 0 55 32 55 69zM237 598v131h163v-131h-163zM140 786v101h357v-101h-357z" />
    <glyph glyph-name="ae" unicode="&#xe6;" horiz-adv-x="963" 
d="M283 543c102 0 168 -32 208 -79c39 50 99 79 180 79c183 0 271 -114 271 -277c0 -19 -2 -39 -4 -60h-333c22 -45 77 -57 145 -57c51 0 97 11 139 25l26 -150c-61 -24 -131 -37 -212 -37c-97 0 -173 28 -222 88c-71 -84 -180 -88 -234 -88c-147 0 -229 77 -229 170
c0 113 83 171 228 171c26 0 81 -5 104 -10v5c0 32 -29 49 -93 49c-57 0 -119 -11 -166 -29l-35 158c67 26 152 42 227 42zM359 197v18c-10 2 -23 3 -37 3c-39 0 -62 -19 -62 -49c0 -24 16 -41 44 -41c41 0 55 32 55 69zM594 325h132c-5 38 -23 70 -63 70
c-42 0 -61 -32 -69 -70z" />
    <glyph glyph-name="aeacute" unicode="&#x1fd;" horiz-adv-x="963" 
d="M283 543c102 0 168 -32 208 -79c39 50 99 79 180 79c183 0 271 -114 271 -277c0 -19 -2 -39 -4 -60h-333c22 -45 77 -57 145 -57c51 0 97 11 139 25l26 -150c-61 -24 -131 -37 -212 -37c-97 0 -173 28 -222 88c-71 -84 -180 -88 -234 -88c-147 0 -229 77 -229 170
c0 113 83 171 228 171c26 0 81 -5 104 -10v5c0 32 -29 49 -93 49c-57 0 -119 -11 -166 -29l-35 158c67 26 152 42 227 42zM359 197v18c-10 2 -23 3 -37 3c-39 0 -62 -19 -62 -49c0 -24 16 -41 44 -41c41 0 55 32 55 69zM594 325h132c-5 38 -23 70 -63 70
c-42 0 -61 -32 -69 -70zM686 745l-164 -155h-145l110 155h199z" />
    <glyph glyph-name="aemacron" unicode="&#x1e3;" horiz-adv-x="963" 
d="M283 543c102 0 168 -32 208 -79c39 50 99 79 180 79c183 0 271 -114 271 -277c0 -19 -2 -39 -4 -60h-333c22 -45 77 -57 145 -57c51 0 97 11 139 25l26 -150c-61 -24 -131 -37 -212 -37c-97 0 -173 28 -222 88c-71 -84 -180 -88 -234 -88c-147 0 -229 77 -229 170
c0 113 83 171 228 171c26 0 81 -5 104 -10v5c0 32 -29 49 -93 49c-57 0 -119 -11 -166 -29l-35 158c67 26 152 42 227 42zM359 197v18c-10 2 -23 3 -37 3c-39 0 -62 -19 -62 -49c0 -24 16 -41 44 -41c41 0 55 32 55 69zM594 325h132c-5 38 -23 70 -63 70
c-42 0 -61 -32 -69 -70zM300 609v101h357v-101h-357z" />
    <glyph glyph-name="agrave" unicode="&#xe0;" horiz-adv-x="649" 
d="M312 543c197 0 294 -79 294 -230v-313h-252v49c-39 -36 -88 -62 -155 -62c-106 0 -180 77 -180 170c0 113 83 171 228 171c26 0 81 -5 104 -10v5c0 32 -29 49 -93 49c-57 0 -119 -11 -166 -29l-35 158c67 26 158 42 255 42zM357 197v18c-10 2 -23 3 -37 3
c-39 0 -62 -19 -62 -49c0 -24 16 -41 44 -41c41 0 55 32 55 69zM276 590l-164 155h199l110 -155h-145z" />
    <glyph glyph-name="ainvertedbreve" unicode="&#x203;" horiz-adv-x="649" 
d="M312 543c197 0 294 -79 294 -230v-313h-252v49c-39 -36 -88 -62 -155 -62c-106 0 -180 77 -180 170c0 113 83 171 228 171c26 0 81 -5 104 -10v5c0 32 -29 49 -93 49c-57 0 -119 -11 -166 -29l-35 158c67 26 158 42 255 42zM357 197v18c-10 2 -23 3 -37 3
c-39 0 -62 -19 -62 -49c0 -24 16 -41 44 -41c41 0 55 32 55 69zM513 586h-91c-10 42 -52 60 -96 60s-86 -18 -96 -60h-91c9 103 82 154 187 154s178 -51 187 -154z" />
    <glyph glyph-name="amacron" unicode="&#x101;" horiz-adv-x="649" 
d="M312 543c197 0 294 -79 294 -230v-313h-252v49c-39 -36 -88 -62 -155 -62c-106 0 -180 77 -180 170c0 113 83 171 228 171c26 0 81 -5 104 -10v5c0 32 -29 49 -93 49c-57 0 -119 -11 -166 -29l-35 158c67 26 158 42 255 42zM357 197v18c-10 2 -23 3 -37 3
c-39 0 -62 -19 -62 -49c0 -24 16 -41 44 -41c41 0 55 32 55 69zM145 609v101h357v-101h-357z" />
    <glyph glyph-name="aogonek" unicode="&#x105;" horiz-adv-x="649" 
d="M628 -123l39 -25c-25 -36 -73 -63 -135 -63c-54 0 -116 28 -116 88c0 55 50 99 85 123h-147v49c-39 -36 -88 -62 -155 -62c-106 0 -180 77 -180 170c0 113 83 171 228 171c26 0 81 -5 104 -10v5c0 32 -29 49 -93 49c-57 0 -119 -11 -166 -29l-35 158c67 26 158 42 255 42
c197 0 294 -79 294 -230v-313c-52 -30 -78 -68 -78 -102c0 -32 25 -41 45 -41c21 0 43 8 55 20zM357 197v18c-10 2 -23 3 -37 3c-39 0 -62 -19 -62 -49c0 -24 16 -41 44 -41c41 0 55 32 55 69z" />
    <glyph glyph-name="aring" unicode="&#xe5;" horiz-adv-x="649" 
d="M312 543c197 0 294 -79 294 -230v-313h-252v49c-39 -36 -88 -62 -155 -62c-106 0 -180 77 -180 170c0 113 83 171 228 171c26 0 81 -5 104 -10v5c0 32 -29 49 -93 49c-57 0 -119 -11 -166 -29l-35 158c67 26 158 42 255 42zM357 197v18c-10 2 -23 3 -37 3
c-39 0 -62 -19 -62 -49c0 -24 16 -41 44 -41c41 0 55 32 55 69zM314 586c-66 0 -123 44 -123 113s57 113 123 113s123 -44 123 -113s-57 -113 -123 -113zM314 748c-29 0 -52 -20 -52 -49s23 -49 52 -49s52 20 52 49s-23 49 -52 49z" />
    <glyph glyph-name="aringacute" unicode="&#x1fb;" horiz-adv-x="649" 
d="M515 1019l-164 -155h-145l110 155h199zM312 543c197 0 294 -79 294 -230v-313h-252v49c-39 -36 -88 -62 -155 -62c-106 0 -180 77 -180 170c0 113 83 171 228 171c26 0 81 -5 104 -10v5c0 32 -29 49 -93 49c-57 0 -119 -11 -166 -29l-35 158c67 26 158 42 255 42z
M357 197v18c-10 2 -23 3 -37 3c-39 0 -62 -19 -62 -49c0 -24 16 -41 44 -41c41 0 55 32 55 69zM314 586c-66 0 -123 44 -123 113s57 113 123 113s123 -44 123 -113s-57 -113 -123 -113zM314 748c-29 0 -52 -20 -52 -49s23 -49 52 -49s52 20 52 49s-23 49 -52 49z" />
    <glyph glyph-name="aringbelow" unicode="&#x1e01;" horiz-adv-x="649" 
d="M312 543c197 0 294 -79 294 -230v-313h-252v49c-39 -36 -88 -62 -155 -62c-106 0 -180 77 -180 170c0 113 83 171 228 171c26 0 81 -5 104 -10v5c0 32 -29 49 -93 49c-57 0 -119 -11 -166 -29l-35 158c67 26 158 42 255 42zM357 197v18c-10 2 -23 3 -37 3
c-39 0 -62 -19 -62 -49c0 -24 16 -41 44 -41c41 0 55 32 55 69zM320 -283c-66 0 -123 44 -123 113s57 113 123 113s123 -44 123 -113s-57 -113 -123 -113zM320 -121c-29 0 -52 -20 -52 -49s23 -49 52 -49s52 20 52 49s-23 49 -52 49z" />
    <glyph glyph-name="atilde" unicode="&#xe3;" horiz-adv-x="649" 
d="M312 543c197 0 294 -79 294 -230v-313h-252v49c-39 -36 -88 -62 -155 -62c-106 0 -180 77 -180 170c0 113 83 171 228 171c26 0 81 -5 104 -10v5c0 32 -29 49 -93 49c-57 0 -119 -11 -166 -29l-35 158c67 26 158 42 255 42zM357 197v18c-10 2 -23 3 -37 3
c-39 0 -62 -19 -62 -49c0 -24 16 -41 44 -41c41 0 55 32 55 69zM118 588c0 64 46 154 126 154c77 0 109 -50 148 -50c20 0 41 24 49 55h83c-1 -73 -54 -162 -128 -162c-76 0 -100 49 -150 49c-22 0 -40 -23 -47 -46h-81z" />
    <glyph glyph-name="bdotaccent" unicode="&#x1e03;" horiz-adv-x="704" 
d="M456 543c133 0 223 -124 223 -277s-90 -279 -223 -279c-66 0 -122 32 -161 81v-68h-245v739h255v-263c39 42 90 67 151 67zM358 177c44 0 74 40 74 89s-30 89 -74 89s-74 -40 -74 -89s30 -89 74 -89zM357 767v131h163v-131h-163z" />
    <glyph glyph-name="bdotbelow" unicode="&#x1e05;" horiz-adv-x="704" 
d="M274 -204v131h163v-131h-163zM456 543c133 0 223 -124 223 -277s-90 -279 -223 -279c-66 0 -122 32 -161 81v-68h-245v739h255v-263c39 42 90 67 151 67zM358 177c44 0 74 40 74 89s-30 89 -74 89s-74 -40 -74 -89s30 -89 74 -89z" />
    <glyph glyph-name="blinebelow" unicode="&#x1e07;" horiz-adv-x="704" 
d="M165 -174v101h357v-101h-357zM456 543c133 0 223 -124 223 -277s-90 -279 -223 -279c-66 0 -122 32 -161 81v-68h-245v739h255v-263c39 42 90 67 151 67zM358 177c44 0 74 40 74 89s-30 89 -74 89s-74 -40 -74 -89s30 -89 74 -89z" />
    <glyph glyph-name="cacute" unicode="&#x107;" horiz-adv-x="539" 
d="M382 171c47 0 78 11 102 22l33 -171c-52 -18 -119 -35 -196 -35c-183 0 -297 113 -297 278c0 163 114 278 297 278c77 0 144 -18 196 -36l-33 -164c-24 10 -55 21 -102 21c-85 0 -108 -52 -108 -96c0 -43 23 -97 108 -97zM495 745l-164 -155h-145l110 155h199z" />
    <glyph glyph-name="ccaron" unicode="&#x10d;" horiz-adv-x="539" 
d="M382 171c47 0 78 11 102 22l33 -171c-52 -18 -119 -35 -196 -35c-183 0 -297 113 -297 278c0 163 114 278 297 278c77 0 144 -18 196 -36l-33 -164c-24 10 -55 21 -102 21c-85 0 -108 -52 -108 -96c0 -43 23 -97 108 -97zM509 745l-119 -155h-194l-119 155h145l71 -70
l71 70h145z" />
    <glyph glyph-name="ccedilla" unicode="&#xe7;" horiz-adv-x="539" 
d="M155 -207l26 58c37 -8 122 -24 122 26c0 26 -53 33 -86 35l46 79c-149 21 -239 127 -239 274c0 163 114 278 297 278c77 0 144 -18 196 -36l-33 -164c-24 10 -55 21 -102 21c-85 0 -108 -52 -108 -96c0 -43 23 -97 108 -97c47 0 78 11 102 22l33 -171
c-50 -17 -113 -33 -185 -35l-29 -45c64 -2 117 -35 117 -84c0 -50 -41 -91 -125 -91c-55 0 -94 8 -140 26z" />
    <glyph glyph-name="ccedillaacute" unicode="&#x1e09;" horiz-adv-x="539" 
d="M155 -207l26 58c37 -8 122 -24 122 26c0 26 -53 33 -86 35l46 79c-149 21 -239 127 -239 274c0 163 114 278 297 278c77 0 144 -18 196 -36l-33 -164c-24 10 -55 21 -102 21c-85 0 -108 -52 -108 -96c0 -43 23 -97 108 -97c47 0 78 11 102 22l33 -171
c-50 -17 -113 -33 -185 -35l-29 -45c64 -2 117 -35 117 -84c0 -50 -41 -91 -125 -91c-55 0 -94 8 -140 26zM495 745l-164 -155h-145l110 155h199z" />
    <glyph glyph-name="ccircumflex" unicode="&#x109;" horiz-adv-x="539" 
d="M382 171c47 0 78 11 102 22l33 -171c-52 -18 -119 -35 -196 -35c-183 0 -297 113 -297 278c0 163 114 278 297 278c77 0 144 -18 196 -36l-33 -164c-24 10 -55 21 -102 21c-85 0 -108 -52 -108 -96c0 -43 23 -97 108 -97zM391 745l119 -155h-145l-71 70l-71 -70h-145
l119 155h194z" />
    <glyph glyph-name="cdotaccent" unicode="&#x10b;" horiz-adv-x="539" 
d="M382 171c47 0 78 11 102 22l33 -171c-52 -18 -119 -35 -196 -35c-183 0 -297 113 -297 278c0 163 114 278 297 278c77 0 144 -18 196 -36l-33 -164c-24 10 -55 21 -102 21c-85 0 -108 -52 -108 -96c0 -43 23 -97 108 -97zM209 598v131h163v-131h-163z" />
    <glyph glyph-name="dcaron" unicode="&#x10f;" horiz-adv-x="839" 
d="M257 543c61 0 106 -25 142 -65v261h255v-739h-245v68c-39 -49 -95 -81 -161 -81c-133 0 -223 126 -223 279s95 277 232 277zM346 177c44 0 74 40 74 89s-30 89 -74 89s-74 -40 -74 -89s30 -89 74 -89zM719 739h186v-144l-89 -131h-92l72 117h-77v158z" />
    <glyph glyph-name="dcedilla" unicode="&#x1e11;" horiz-adv-x="704" 
d="M162 -206l26 58c37 -8 122 -24 122 26c0 26 -53 33 -86 35l44 75c-7 0 -14 -1 -20 -1c-133 0 -223 126 -223 279s95 277 232 277c61 0 106 -25 142 -65v261h255v-739h-245v68c-14 -17 -29 -32 -46 -44l-53 -81c64 -2 117 -35 117 -84c0 -50 -41 -91 -125 -91
c-55 0 -94 8 -140 26zM346 177c44 0 74 40 74 89s-30 89 -74 89s-74 -40 -74 -89s30 -89 74 -89z" />
    <glyph glyph-name="dcircumflexbelow" unicode="&#x1e13;" horiz-adv-x="704" 
d="M445 -73l119 -155h-145l-71 70l-71 -70h-145l119 155h194zM257 543c61 0 106 -25 142 -65v261h255v-739h-245v68c-39 -49 -95 -81 -161 -81c-133 0 -223 126 -223 279s95 277 232 277zM346 177c44 0 74 40 74 89s-30 89 -74 89s-74 -40 -74 -89s30 -89 74 -89z" />
    <glyph glyph-name="dcroat" unicode="&#x111;" horiz-adv-x="704" 
d="M290 676h109v63h255v-63h70v-97h-70v-579h-245v68c-39 -49 -95 -81 -161 -81c-133 0 -223 126 -223 279s95 277 232 277c61 0 106 -25 142 -65v101h-109v97zM346 177c44 0 74 40 74 89s-30 89 -74 89s-74 -40 -74 -89s30 -89 74 -89z" />
    <glyph glyph-name="ddotaccent" unicode="&#x1e0b;" horiz-adv-x="704" 
d="M257 543c61 0 106 -25 142 -65v261h255v-739h-245v68c-39 -49 -95 -81 -161 -81c-133 0 -223 126 -223 279s95 277 232 277zM346 177c44 0 74 40 74 89s-30 89 -74 89s-74 -40 -74 -89s30 -89 74 -89zM180 767v131h163v-131h-163z" />
    <glyph glyph-name="ddotbelow" unicode="&#x1e0d;" horiz-adv-x="704" 
d="M270 -204v131h163v-131h-163zM257 543c61 0 106 -25 142 -65v261h255v-739h-245v68c-39 -49 -95 -81 -161 -81c-133 0 -223 126 -223 279s95 277 232 277zM346 177c44 0 74 40 74 89s-30 89 -74 89s-74 -40 -74 -89s30 -89 74 -89z" />
    <glyph glyph-name="dlinebelow" unicode="&#x1e0f;" horiz-adv-x="704" 
d="M173 -174v101h357v-101h-357zM257 543c61 0 106 -25 142 -65v261h255v-739h-245v68c-39 -49 -95 -81 -161 -81c-133 0 -223 126 -223 279s95 277 232 277zM346 177c44 0 74 40 74 89s-30 89 -74 89s-74 -40 -74 -89s30 -89 74 -89z" />
    <glyph glyph-name="eacute" unicode="&#xe9;" horiz-adv-x="612" 
d="M587 206c26 190 -55 337 -277 337c-155 0 -287 -106 -287 -272c0 -193 143 -284 315 -284c81 0 165 13 226 37l-26 150c-42 -14 -88 -25 -139 -25c-68 0 -123 12 -145 57h333zM379 325h-132c8 38 27 70 69 70c40 0 58 -32 63 -70zM379 325h-132h132zM498 745l-164 -155
h-145l110 155h199z" />
    <glyph glyph-name="ebreve" unicode="&#x115;" horiz-adv-x="612" 
d="M587 206c26 190 -55 337 -277 337c-155 0 -287 -106 -287 -272c0 -193 143 -284 315 -284c81 0 165 13 226 37l-26 150c-42 -14 -88 -25 -139 -25c-68 0 -123 12 -145 57h333zM379 325h-132c8 38 27 70 69 70c40 0 58 -32 63 -70zM379 325h-132h132zM410 740h91
c-9 -103 -82 -154 -187 -154s-178 51 -187 154h91c10 -42 52 -60 96 -60s86 18 96 60z" />
    <glyph glyph-name="ecaron" unicode="&#x11b;" horiz-adv-x="612" 
d="M587 206c26 190 -55 337 -277 337c-155 0 -287 -106 -287 -272c0 -193 143 -284 315 -284c81 0 165 13 226 37l-26 150c-42 -14 -88 -25 -139 -25c-68 0 -123 12 -145 57h333zM379 325h-132c8 38 27 70 69 70c40 0 58 -32 63 -70zM379 325h-132h132zM527 745l-119 -155
h-194l-119 155h145l71 -70l71 70h145z" />
    <glyph glyph-name="ecedillabreve" unicode="&#x1e1d;" horiz-adv-x="613" 
d="M311 543c222 0 303 -147 277 -337h-333c22 -45 77 -57 145 -57c51 0 97 11 139 25l26 -150c-60 -24 -142 -37 -222 -37l-29 -45c64 -2 117 -35 117 -84c0 -50 -41 -91 -125 -91c-55 0 -94 8 -140 26l26 58c37 -8 122 -24 122 26c0 26 -53 33 -86 35l46 79
c-141 21 -250 112 -250 280c0 166 132 272 287 272zM248 325h132c-5 38 -23 70 -63 70c-42 0 -61 -32 -69 -70zM315 586c-105 0 -178 51 -187 154h91c10 -42 52 -60 96 -60s86 18 96 60h91c-9 -103 -82 -154 -187 -154z" />
    <glyph glyph-name="ecircumflex" unicode="&#xea;" horiz-adv-x="612" 
d="M587 206c26 190 -55 337 -277 337c-155 0 -287 -106 -287 -272c0 -193 143 -284 315 -284c81 0 165 13 226 37l-26 150c-42 -14 -88 -25 -139 -25c-68 0 -123 12 -145 57h333zM379 325h-132c8 38 27 70 69 70c40 0 58 -32 63 -70zM379 325h-132h132zM407 745l119 -155
h-145l-71 70l-71 -70h-145l119 155h194z" />
    <glyph glyph-name="ecircumflexbelow" unicode="&#x1e19;" horiz-adv-x="612" 
d="M412 -73l119 -155h-145l-71 70l-71 -70h-145l119 155h194zM587 206h-333c22 -45 77 -57 145 -57c51 0 97 11 139 25l26 -150c-61 -24 -145 -37 -226 -37c-172 0 -315 91 -315 284c0 166 132 272 287 272c222 0 303 -147 277 -337zM247 325h132c-5 38 -23 70 -63 70
c-42 0 -61 -32 -69 -70zM247 325h132h-132z" />
    <glyph glyph-name="edblgrave" unicode="&#x205;" horiz-adv-x="612" 
d="M402 590l-164 155h199l110 -155h-145zM141 590l-164 155h199l110 -155h-145zM587 206c26 190 -55 337 -277 337c-155 0 -287 -106 -287 -272c0 -193 143 -284 315 -284c81 0 165 13 226 37l-26 150c-42 -14 -88 -25 -139 -25c-68 0 -123 12 -145 57h333zM379 325h-132
c8 38 27 70 69 70c40 0 58 -32 63 -70zM379 325h-132h132z" />
    <glyph glyph-name="edieresis" unicode="&#xeb;" horiz-adv-x="612" 
d="M587 206c26 190 -55 337 -277 337c-155 0 -287 -106 -287 -272c0 -193 143 -284 315 -284c81 0 165 13 226 37l-26 150c-42 -14 -88 -25 -139 -25c-68 0 -123 12 -145 57h333zM379 325h-132c8 38 27 70 69 70c40 0 58 -32 63 -70zM379 325h-132h132zM102 598v131h163
v-131h-163zM354 598v131h163v-131h-163z" />
    <glyph glyph-name="edotaccent" unicode="&#x117;" horiz-adv-x="612" 
d="M587 206c26 190 -55 337 -277 337c-155 0 -287 -106 -287 -272c0 -193 143 -284 315 -284c81 0 165 13 226 37l-26 150c-42 -14 -88 -25 -139 -25c-68 0 -123 12 -145 57h333zM379 325h-132c8 38 27 70 69 70c40 0 58 -32 63 -70zM379 325h-132h132zM231 598v131h163
v-131h-163z" />
    <glyph glyph-name="egrave" unicode="&#xe8;" horiz-adv-x="612" 
d="M587 206c26 190 -55 337 -277 337c-155 0 -287 -106 -287 -272c0 -193 143 -284 315 -284c81 0 165 13 226 37l-26 150c-42 -14 -88 -25 -139 -25c-68 0 -123 12 -145 57h333zM379 325h-132c8 38 27 70 69 70c40 0 58 -32 63 -70zM379 325h-132h132zM271 590l-164 155
h199l110 -155h-145z" />
    <glyph glyph-name="einvertedbreve" unicode="&#x207;" horiz-adv-x="612" 
d="M587 206c26 190 -55 337 -277 337c-155 0 -287 -106 -287 -272c0 -193 143 -284 315 -284c81 0 165 13 226 37l-26 150c-42 -14 -88 -25 -139 -25c-68 0 -123 12 -145 57h333zM379 325h-132c8 38 27 70 69 70c40 0 58 -32 63 -70zM379 325h-132h132zM492 586h-91
c-10 42 -52 60 -96 60s-86 -18 -96 -60h-91c9 103 82 154 187 154s178 -51 187 -154z" />
    <glyph glyph-name="emacron" unicode="&#x113;" horiz-adv-x="612" 
d="M587 206c26 190 -55 337 -277 337c-155 0 -287 -106 -287 -272c0 -193 143 -284 315 -284c81 0 165 13 226 37l-26 150c-42 -14 -88 -25 -139 -25c-68 0 -123 12 -145 57h333zM379 325h-132c8 38 27 70 69 70c40 0 58 -32 63 -70zM379 325h-132h132zM132 609v101h357
v-101h-357z" />
    <glyph glyph-name="emacronacute" unicode="&#x1e17;" horiz-adv-x="612" 
d="M508 902l-164 -155h-145l110 155h199zM587 206c26 190 -55 337 -277 337c-155 0 -287 -106 -287 -272c0 -193 143 -284 315 -284c81 0 165 13 226 37l-26 150c-42 -14 -88 -25 -139 -25c-68 0 -123 12 -145 57h333zM379 325h-132c8 38 27 70 69 70c40 0 58 -32 63 -70z
M379 325h-132h132zM126 600v101h357v-101h-357z" />
    <glyph glyph-name="emacrongrave" unicode="&#x1e15;" horiz-adv-x="612" 
d="M587 206c26 190 -55 337 -277 337c-155 0 -287 -106 -287 -272c0 -193 143 -284 315 -284c81 0 165 13 226 37l-26 150c-42 -14 -88 -25 -139 -25c-68 0 -123 12 -145 57h333zM379 325h-132c8 38 27 70 69 70c40 0 58 -32 63 -70zM379 325h-132h132zM272 747l-164 155
h199l110 -155h-145zM126 600v101h357v-101h-357z" />
    <glyph glyph-name="eogonek" unicode="&#x119;" horiz-adv-x="614" 
d="M574 -123l39 -25c-25 -36 -73 -63 -135 -63c-54 0 -116 26 -116 86c0 51 41 92 74 118c-32 -4 -65 -6 -98 -6c-172 0 -315 91 -315 284c0 166 132 272 287 272c222 0 303 -147 277 -337h-333c22 -45 77 -57 145 -57c51 0 97 11 139 25l26 -150c-50 -37 -90 -83 -90 -126
c0 -32 25 -41 45 -41c21 0 43 8 55 20zM316 395c-42 0 -61 -32 -69 -70h132c-5 38 -23 70 -63 70z" />
    <glyph glyph-name="etildebelow" unicode="&#x1e1b;" horiz-adv-x="612" 
d="M114 -226c0 64 46 154 126 154c77 0 109 -50 148 -50c20 0 41 24 49 55h83c-1 -73 -54 -162 -128 -162c-76 0 -100 49 -150 49c-22 0 -40 -23 -47 -46h-81zM587 206h-333c22 -45 77 -57 145 -57c51 0 97 11 139 25l26 -150c-61 -24 -145 -37 -226 -37
c-172 0 -315 91 -315 284c0 166 132 272 287 272c222 0 303 -147 277 -337zM247 325h132c-5 38 -23 70 -63 70c-42 0 -61 -32 -69 -70zM247 325h132h-132z" />
    <glyph glyph-name="fdotaccent" unicode="&#x1e1f;" horiz-adv-x="442" 
d="M297 752c62 0 112 -11 147 -25l-17 -140c-7 1 -16 2 -24 2c-31 0 -62 -4 -62 -55v-4h84v-175h-84v-355h-255v355h-56v175h56v2c0 176 107 220 211 220zM165 810v131h163v-131h-163z" />
    <glyph glyph-name="gacute" unicode="&#x1f5;" horiz-adv-x="702" 
d="M408 530h245v-446c0 -204 -90 -291 -312 -291c-206 0 -268 66 -268 142c0 62 43 113 121 137c-104 23 -171 119 -171 232c0 132 91 239 224 239c66 0 122 -27 161 -69v56zM340 366c-41 0 -68 -38 -68 -83c0 -46 27 -84 68 -84s69 38 69 84c0 45 -28 83 -69 83zM404 -2v70
s-98 -9 -98 -79c0 -33 17 -51 47 -51c31 0 51 20 51 60zM537 745l-164 -155h-145l110 155h199z" />
    <glyph glyph-name="gbreve" unicode="&#x11f;" horiz-adv-x="702" 
d="M408 530h245v-446c0 -204 -90 -291 -312 -291c-206 0 -268 66 -268 142c0 62 43 113 121 137c-104 23 -171 119 -171 232c0 132 91 239 224 239c66 0 122 -27 161 -69v56zM340 366c-41 0 -68 -38 -68 -83c0 -46 27 -84 68 -84s69 38 69 84c0 45 -28 83 -69 83zM404 -2v70
s-98 -9 -98 -79c0 -33 17 -51 47 -51c31 0 51 20 51 60zM445 740h91c-9 -103 -82 -154 -187 -154s-178 51 -187 154h91c10 -42 52 -60 96 -60s86 18 96 60z" />
    <glyph glyph-name="gcaron" unicode="&#x1e7;" horiz-adv-x="702" 
d="M408 530h245v-446c0 -204 -90 -291 -312 -291c-206 0 -268 66 -268 142c0 62 43 113 121 137c-104 23 -171 119 -171 232c0 132 91 239 224 239c66 0 122 -27 161 -69v56zM340 366c-41 0 -68 -38 -68 -83c0 -46 27 -84 68 -84s69 38 69 84c0 45 -28 83 -69 83zM404 -2v70
s-98 -9 -98 -79c0 -33 17 -51 47 -51c31 0 51 20 51 60zM562 745l-119 -155h-194l-119 155h145l71 -70l71 70h145z" />
    <glyph glyph-name="gcedilla" horiz-adv-x="702" 
d="M211 -405l26 58c37 -8 122 -24 122 26c0 26 -53 33 -86 35l46 79c-189 5 -246 69 -246 142c0 62 43 113 121 137c-104 23 -171 119 -171 232c0 132 91 239 224 239c66 0 122 -27 161 -69v56h245v-446c0 -187 -77 -276 -261 -289l-33 -51c64 -2 117 -35 117 -84
c0 -50 -41 -91 -125 -91c-55 0 -94 8 -140 26zM340 366c-41 0 -68 -38 -68 -83c0 -46 27 -84 68 -84s69 38 69 84c0 45 -28 83 -69 83zM404 -2v70s-98 -9 -98 -79c0 -33 17 -51 47 -51c31 0 51 20 51 60z" />
    <glyph glyph-name="gcircumflex" unicode="&#x11d;" horiz-adv-x="702" 
d="M408 530h245v-446c0 -204 -90 -291 -312 -291c-206 0 -268 66 -268 142c0 62 43 113 121 137c-104 23 -171 119 -171 232c0 132 91 239 224 239c66 0 122 -27 161 -69v56zM340 366c-41 0 -68 -38 -68 -83c0 -46 27 -84 68 -84s69 38 69 84c0 45 -28 83 -69 83zM404 -2v70
s-98 -9 -98 -79c0 -33 17 -51 47 -51c31 0 51 20 51 60zM443 745l119 -155h-145l-71 70l-71 -70h-145l119 155h194z" />
    <glyph glyph-name="gcommaaccent" unicode="&#x123;" horiz-adv-x="702" 
d="M408 530h245v-446c0 -204 -90 -291 -312 -291c-206 0 -268 66 -268 142c0 62 43 113 121 137c-104 23 -171 119 -171 232c0 132 91 239 224 239c66 0 122 -27 161 -69v56zM340 366c-41 0 -68 -38 -68 -83c0 -46 27 -84 68 -84s69 38 69 84c0 45 -28 83 -69 83zM404 -2v70
s-98 -9 -98 -79c0 -33 17 -51 47 -51c31 0 51 20 51 60zM439 594h-186v144l89 131h92l-72 -117h77v-158z" />
    <glyph glyph-name="gdotaccent" unicode="&#x121;" horiz-adv-x="702" 
d="M408 530h245v-446c0 -204 -90 -291 -312 -291c-206 0 -268 66 -268 142c0 62 43 113 121 137c-104 23 -171 119 -171 232c0 132 91 239 224 239c66 0 122 -27 161 -69v56zM340 366c-41 0 -68 -38 -68 -83c0 -46 27 -84 68 -84s69 38 69 84c0 45 -28 83 -69 83zM404 -2v70
s-98 -9 -98 -79c0 -33 17 -51 47 -51c31 0 51 20 51 60zM266 598v131h163v-131h-163z" />
    <glyph glyph-name="gmacron" unicode="&#x1e21;" horiz-adv-x="702" 
d="M408 530h245v-446c0 -204 -90 -291 -312 -291c-206 0 -268 66 -268 142c0 62 43 113 121 137c-104 23 -171 119 -171 232c0 132 91 239 224 239c66 0 122 -27 161 -69v56zM340 366c-41 0 -68 -38 -68 -83c0 -46 27 -84 68 -84s69 38 69 84c0 45 -28 83 -69 83zM404 -2v70
s-98 -9 -98 -79c0 -33 17 -51 47 -51c31 0 51 20 51 60zM169 609v101h357v-101h-357z" />
    <glyph glyph-name="hbar" unicode="&#x127;" horiz-adv-x="699" 
d="M654 360v-360h-255v303c0 27 -21 49 -47 49s-47 -22 -47 -49v-303h-255v579h-66v97h66v63h255v-63h113v-97h-113v-98c36 37 89 62 158 62c107 0 191 -78 191 -183z" />
    <glyph glyph-name="hbrevebelow" unicode="&#x1e2b;" horiz-adv-x="699" 
d="M448 -71h91c-9 -103 -82 -154 -187 -154s-178 51 -187 154h91c10 -42 52 -60 96 -60s86 18 96 60zM654 360v-360h-255v303c0 27 -21 49 -47 49s-47 -22 -47 -49v-303h-255v739h255v-258c36 37 89 62 158 62c107 0 191 -78 191 -183z" />
    <glyph glyph-name="hcedilla" unicode="&#x1e29;" horiz-adv-x="699" 
d="M41 -207l26 58c37 -8 122 -24 122 26c0 26 -53 33 -86 35l51 88h-104v739h255v-258c36 37 89 62 158 62c107 0 191 -78 191 -183v-360h-255v303c0 27 -21 49 -47 49s-47 -22 -47 -49v-303h-78l-38 -58c64 -2 117 -35 117 -84c0 -50 -41 -91 -125 -91c-55 0 -94 8 -140 26
z" />
    <glyph glyph-name="hcircumflex" unicode="&#x125;" horiz-adv-x="699" 
d="M654 360v-360h-255v303c0 27 -21 49 -47 49s-47 -22 -47 -49v-303h-255v739h255v-258c36 37 89 62 158 62c107 0 191 -78 191 -183zM270 935l119 -155h-145l-71 70l-71 -70h-145l119 155h194z" />
    <glyph glyph-name="hdieresis" unicode="&#x1e27;" horiz-adv-x="699" 
d="M654 360v-360h-255v303c0 27 -21 49 -47 49s-47 -22 -47 -49v-303h-255v739h255v-258c36 37 89 62 158 62c107 0 191 -78 191 -183zM158 813v131h163v-131h-163zM410 813v131h163v-131h-163z" />
    <glyph glyph-name="hdotaccent" unicode="&#x1e23;" horiz-adv-x="699" 
d="M654 360v-360h-255v303c0 27 -21 49 -47 49s-47 -22 -47 -49v-303h-255v739h255v-258c36 37 89 62 158 62c107 0 191 -78 191 -183zM98 810v131h163v-131h-163z" />
    <glyph glyph-name="hdotbelow" unicode="&#x1e25;" horiz-adv-x="699" 
d="M271 -204v131h163v-131h-163zM654 360v-360h-255v303c0 27 -21 49 -47 49s-47 -22 -47 -49v-303h-255v739h255v-258c36 37 89 62 158 62c107 0 191 -78 191 -183z" />
    <glyph glyph-name="hlinebelow" unicode="&#x1e96;" horiz-adv-x="699" 
d="M173 -174v101h357v-101h-357zM654 360v-360h-255v303c0 27 -21 49 -47 49s-47 -22 -47 -49v-303h-255v739h255v-258c36 37 89 62 158 62c107 0 191 -78 191 -183z" />
    <glyph glyph-name="iacute" unicode="&#xed;" horiz-adv-x="355" 
d="M50 0v530h255v-530h-255zM384 745l-164 -155h-145l110 155h199z" />
    <glyph glyph-name="ibreve" unicode="&#x12d;" horiz-adv-x="355" 
d="M50 0v530h255v-530h-255zM273 740h91c-9 -103 -82 -154 -187 -154s-178 51 -187 154h91c10 -42 52 -60 96 -60s86 18 96 60z" />
    <glyph glyph-name="icaron" unicode="&#x1d0;" horiz-adv-x="355" 
d="M50 0v530h255v-530h-255zM393 745l-119 -155h-194l-119 155h145l71 -70l71 70h145z" />
    <glyph glyph-name="icircumflex" unicode="&#xee;" horiz-adv-x="355" 
d="M50 0v530h255v-530h-255zM274 745l119 -155h-145l-71 70l-71 -70h-145l119 155h194z" />
    <glyph glyph-name="idblgrave" unicode="&#x209;" horiz-adv-x="355" 
d="M278 590l-164 155h199l110 -155h-145zM17 590l-164 155h199l110 -155h-145zM50 0v530h255v-530h-255z" />
    <glyph glyph-name="idieresis" unicode="&#xef;" horiz-adv-x="355" 
d="M50 0v530h255v-530h-255zM-30 598v131h163v-131h-163zM222 598v131h163v-131h-163z" />
    <glyph glyph-name="idieresisacute" unicode="&#x1e2f;" horiz-adv-x="355" 
d="M50 0v530h255v-530h-255zM-30 598v131h163v-131h-163zM222 598v131h163v-131h-163zM366 935l-164 -155h-145l110 155h199z" />
    <glyph glyph-name="igrave" unicode="&#xec;" horiz-adv-x="355" 
d="M50 0v530h255v-530h-255zM140 590l-164 155h199l110 -155h-145z" />
    <glyph glyph-name="iinvertedbreve" unicode="&#x20b;" horiz-adv-x="355" 
d="M50 0v530h255v-530h-255zM364 586h-91c-10 42 -52 60 -96 60s-86 -18 -96 -60h-91c9 103 82 154 187 154s178 -51 187 -154z" />
    <glyph glyph-name="imacron" unicode="&#x12b;" horiz-adv-x="355" 
d="M50 0v530h255v-530h-255zM-1 609v101h357v-101h-357z" />
    <glyph glyph-name="dotlessi" unicode="&#x131;" horiz-adv-x="355" 
d="M50 0v530h255v-530h-255z" />
    <glyph glyph-name="iogonek" unicode="&#x12f;" horiz-adv-x="355" 
d="M50 0v530h255v-530c-50 -37 -79 -68 -79 -102c0 -32 25 -41 45 -41c21 0 43 8 55 20l39 -25c-25 -36 -73 -63 -135 -63c-54 0 -116 22 -116 82c0 66 69 110 100 129h-164zM308 739v-158h-261v158h261z" />
    <glyph glyph-name="itilde" unicode="&#x129;" horiz-adv-x="355" 
d="M50 0v530h255v-530h-255zM-25 588c0 64 46 154 126 154c77 0 109 -50 148 -50c20 0 41 24 49 55h83c-1 -73 -54 -162 -128 -162c-76 0 -100 49 -150 49c-22 0 -40 -23 -47 -46h-81z" />
    <glyph glyph-name="itildebelow" unicode="&#x1e2d;" horiz-adv-x="355" 
d="M-21 -226c0 64 46 154 126 154c77 0 109 -50 148 -50c20 0 41 24 49 55h83c-1 -73 -54 -162 -128 -162c-76 0 -100 49 -150 49c-22 0 -40 -23 -47 -46h-81zM50 0v530h255v-530h-255zM308 739v-158h-261v158h261z" />
    <glyph glyph-name="ij" unicode="&#x133;" horiz-adv-x="707" 
d="M50 0v530h255v-530h-255zM308 739v-158h-261v158h261zM402 530h255v-477c0 -227 -178 -253 -322 -260l-18 161c35 12 85 31 85 88v488zM660 739v-158h-261v158h261z" />
    <glyph glyph-name="jcircumflex" unicode="&#x135;" horiz-adv-x="356" 
d="M51 530h255v-477c0 -227 -178 -253 -322 -260l-18 161c35 12 85 31 85 88v488zM277 745l119 -155h-145l-71 70l-71 -70h-145l119 155h194z" />
    <glyph glyph-name="kacute" unicode="&#x1e31;" horiz-adv-x="684" 
d="M691 0h-271l-115 216v-216h-255v739h255v-380l108 171h257l-163 -216zM431 966l-164 -155h-145l110 155h199z" />
    <glyph glyph-name="kcaron" unicode="&#x1e9;" horiz-adv-x="684" 
d="M691 0h-271l-115 216v-216h-255v739h255v-380l108 171h257l-163 -216zM579 964l-119 -155h-194l-119 155h145l71 -70l71 70h145z" />
    <glyph glyph-name="kcedilla" horiz-adv-x="684" 
d="M54 -207l26 58c37 -8 122 -24 122 26c0 26 -53 33 -86 35l51 88h-117v739h255v-380l108 171h257l-163 -216l184 -314h-271l-115 216v-216h-65l-38 -58c64 -2 117 -35 117 -84c0 -50 -41 -91 -125 -91c-55 0 -94 8 -140 26z" />
    <glyph glyph-name="kcommaaccent" unicode="&#x137;" horiz-adv-x="684" 
d="M691 0h-271l-115 216v-216h-255v739h255v-380l108 171h257l-163 -216zM260 -73h186v-144l-89 -131h-92l72 117h-77v158z" />
    <glyph glyph-name="kdotbelow" unicode="&#x1e33;" horiz-adv-x="684" 
d="M277 -204v131h163v-131h-163zM691 0h-271l-115 216v-216h-255v739h255v-380l108 171h257l-163 -216z" />
    <glyph glyph-name="klinebelow" unicode="&#x1e35;" horiz-adv-x="684" 
d="M165 -174v101h357v-101h-357zM691 0h-271l-115 216v-216h-255v739h255v-380l108 171h257l-163 -216z" />
    <glyph glyph-name="lacute" unicode="&#x13a;" horiz-adv-x="355" 
d="M50 0v739h255v-739h-255zM383 937l-164 -155h-145l110 155h199z" />
    <glyph glyph-name="lcaron" unicode="&#x13e;" horiz-adv-x="494" 
d="M50 0v739h255v-739h-255zM373 739h186v-144l-89 -131h-92l72 117h-77v158z" />
    <glyph glyph-name="lcedilla" horiz-adv-x="355" 
d="M50 0v739h255v-739h-75l-38 -58c64 -2 117 -35 117 -84c0 -50 -41 -91 -125 -91c-55 0 -94 8 -140 26l26 58c37 -8 122 -24 122 26c0 26 -53 33 -86 35l51 88h-107z" />
    <glyph glyph-name="lcircumflexbelow" unicode="&#x1e3d;" horiz-adv-x="355" 
d="M274 -73l119 -155h-145l-71 70l-71 -70h-145l119 155h194zM50 0v739h255v-739h-255z" />
    <glyph glyph-name="lcommaaccent" unicode="&#x13c;" horiz-adv-x="355" 
d="M50 0v739h255v-739h-255zM86 -73h186v-144l-89 -131h-92l72 117h-77v158z" />
    <glyph glyph-name="ldot" unicode="&#x140;" horiz-adv-x="514" 
d="M353 259v131h163v-131h-163zM50 0v739h255v-739h-255z" />
    <glyph glyph-name="ldotbelow" unicode="&#x1e37;" horiz-adv-x="355" 
d="M96 -204v131h163v-131h-163zM50 0v739h255v-739h-255z" />
    <glyph glyph-name="ldotbelowmacron" unicode="&#x1e39;" horiz-adv-x="355" 
d="M96 -204v131h163v-131h-163zM50 0v739h255v-739h-255zM-1 814v101h357v-101h-357z" />
    <glyph glyph-name="llinebelow" unicode="&#x1e3b;" horiz-adv-x="355" 
d="M-1 -174v101h357v-101h-357zM50 0v739h255v-739h-255z" />
    <glyph glyph-name="lslash" unicode="&#x142;" horiz-adv-x="431" 
d="M18 314l64 35v390h255v-249l73 40v-134l-73 -41v-355h-255v214l-64 -35v135z" />
    <glyph glyph-name="macute" unicode="&#x1e3f;" horiz-adv-x="1038" 
d="M805 543c107 0 188 -78 188 -183v-360h-255v303c0 27 -18 49 -44 49s-45 -22 -45 -49v-303h-255v303c0 27 -18 49 -44 49s-45 -22 -45 -49v-303h-255v530h244v-54c36 39 98 67 167 67c66 0 122 -30 155 -77c26 29 88 77 189 77zM755 745l-164 -155h-145l110 155h199z" />
    <glyph glyph-name="mdotaccent" unicode="&#x1e41;" horiz-adv-x="1038" 
d="M805 543c107 0 188 -78 188 -183v-360h-255v303c0 27 -18 49 -44 49s-45 -22 -45 -49v-303h-255v303c0 27 -18 49 -44 49s-45 -22 -45 -49v-303h-255v530h244v-54c36 39 98 67 167 67c66 0 122 -30 155 -77c26 29 88 77 189 77zM445 598v131h163v-131h-163z" />
    <glyph glyph-name="mdotbelow" unicode="&#x1e43;" horiz-adv-x="1038" 
d="M442 -204v131h163v-131h-163zM805 543c107 0 188 -78 188 -183v-360h-255v303c0 27 -18 49 -44 49s-45 -22 -45 -49v-303h-255v303c0 27 -18 49 -44 49s-45 -22 -45 -49v-303h-255v530h244v-54c36 39 98 67 167 67c66 0 122 -30 155 -77c26 29 88 77 189 77z" />
    <glyph glyph-name="nacute" unicode="&#x144;" horiz-adv-x="699" 
d="M654 360v-360h-255v303c0 27 -21 49 -47 49s-47 -22 -47 -49v-303h-255v530h247v-52c40 40 97 65 166 65c107 0 191 -78 191 -183zM536 745l-164 -155h-145l110 155h199z" />
    <glyph glyph-name="napostrophe" unicode="&#x149;" horiz-adv-x="699" 
d="M654 360v-360h-255v303c0 27 -21 49 -47 49s-47 -22 -47 -49v-303h-255v530h247v-52c40 40 97 65 166 65c107 0 191 -78 191 -183zM-48 871h186v-144l-89 -131h-92l72 117h-77v158z" />
    <glyph glyph-name="ncaron" unicode="&#x148;" horiz-adv-x="699" 
d="M654 360v-360h-255v303c0 27 -21 49 -47 49s-47 -22 -47 -49v-303h-255v530h247v-52c40 40 97 65 166 65c107 0 191 -78 191 -183zM560 745l-119 -155h-194l-119 155h145l71 -70l71 70h145z" />
    <glyph glyph-name="ncedilla" horiz-adv-x="699" 
d="M55 -207l26 58c37 -8 122 -24 122 26c0 26 -53 33 -86 35l51 88h-118v530h247v-52c40 40 97 65 166 65c107 0 191 -78 191 -183v-360h-255v303c0 27 -21 49 -47 49s-47 -22 -47 -49v-303h-64l-38 -58c64 -2 117 -35 117 -84c0 -50 -41 -91 -125 -91c-55 0 -94 8 -140 26z
" />
    <glyph glyph-name="ncircumflexbelow" unicode="&#x1e4b;" horiz-adv-x="699" 
d="M451 -73l119 -155h-145l-71 70l-71 -70h-145l119 155h194zM654 360v-360h-255v303c0 27 -21 49 -47 49s-47 -22 -47 -49v-303h-255v530h247v-52c40 40 97 65 166 65c107 0 191 -78 191 -183z" />
    <glyph glyph-name="ncommaaccent" unicode="&#x146;" horiz-adv-x="699" 
d="M654 360v-360h-255v303c0 27 -21 49 -47 49s-47 -22 -47 -49v-303h-255v530h247v-52c40 40 97 65 166 65c107 0 191 -78 191 -183zM259 -73h186v-144l-89 -131h-92l72 117h-77v158z" />
    <glyph glyph-name="ndotaccent" unicode="&#x1e45;" horiz-adv-x="699" 
d="M654 360v-360h-255v303c0 27 -21 49 -47 49s-47 -22 -47 -49v-303h-255v530h247v-52c40 40 97 65 166 65c107 0 191 -78 191 -183zM274 598v131h163v-131h-163z" />
    <glyph glyph-name="ndotbelow" unicode="&#x1e47;" horiz-adv-x="699" 
d="M270 -204v131h163v-131h-163zM654 360v-360h-255v303c0 27 -21 49 -47 49s-47 -22 -47 -49v-303h-255v530h247v-52c40 40 97 65 166 65c107 0 191 -78 191 -183z" />
    <glyph glyph-name="ngrave" unicode="&#x1f9;" horiz-adv-x="699" 
d="M654 360v-360h-255v303c0 27 -21 49 -47 49s-47 -22 -47 -49v-303h-255v530h247v-52c40 40 97 65 166 65c107 0 191 -78 191 -183zM310 590l-164 155h199l110 -155h-145z" />
    <glyph glyph-name="nlinebelow" unicode="&#x1e49;" horiz-adv-x="699" 
d="M172 -174v101h357v-101h-357zM654 360v-360h-255v303c0 27 -21 49 -47 49s-47 -22 -47 -49v-303h-255v530h247v-52c40 40 97 65 166 65c107 0 191 -78 191 -183z" />
    <glyph glyph-name="ntilde" unicode="&#xf1;" horiz-adv-x="699" 
d="M654 360v-360h-255v303c0 27 -21 49 -47 49s-47 -22 -47 -49v-303h-255v530h247v-52c40 40 97 65 166 65c107 0 191 -78 191 -183zM148 588c0 64 46 154 126 154c77 0 109 -50 148 -50c20 0 41 24 49 55h83c-1 -73 -54 -162 -128 -162c-76 0 -100 49 -150 49
c-22 0 -40 -23 -47 -46h-81z" />
    <glyph glyph-name="oacute" unicode="&#xf3;" horiz-adv-x="684" 
d="M343 543c172 0 319 -102 319 -278s-147 -278 -319 -278c-173 0 -321 101 -321 278s148 278 321 278zM342 172c45 0 75 43 75 93s-30 93 -75 93s-75 -43 -75 -93s30 -93 75 -93zM537 745l-164 -155h-145l110 155h199z" />
    <glyph glyph-name="obreve" unicode="&#x14f;" horiz-adv-x="684" 
d="M343 543c172 0 319 -102 319 -278s-147 -278 -319 -278c-173 0 -321 101 -321 278s148 278 321 278zM342 172c45 0 75 43 75 93s-30 93 -75 93s-75 -43 -75 -93s30 -93 75 -93zM438 740h91c-9 -103 -82 -154 -187 -154s-178 51 -187 154h91c10 -42 52 -60 96 -60
s86 18 96 60z" />
    <glyph glyph-name="ocaron" unicode="&#x1d2;" horiz-adv-x="684" 
d="M343 543c172 0 319 -102 319 -278s-147 -278 -319 -278c-173 0 -321 101 -321 278s148 278 321 278zM342 172c45 0 75 43 75 93s-30 93 -75 93s-75 -43 -75 -93s30 -93 75 -93zM558 745l-119 -155h-194l-119 155h145l71 -70l71 70h145z" />
    <glyph glyph-name="ocircumflex" unicode="&#xf4;" horiz-adv-x="684" 
d="M343 543c172 0 319 -102 319 -278s-147 -278 -319 -278c-173 0 -321 101 -321 278s148 278 321 278zM342 172c45 0 75 43 75 93s-30 93 -75 93s-75 -43 -75 -93s30 -93 75 -93zM439 745l119 -155h-145l-71 70l-71 -70h-145l119 155h194z" />
    <glyph glyph-name="odblgrave" unicode="&#x20d;" horiz-adv-x="684" 
d="M428 590l-164 155h199l110 -155h-145zM167 590l-164 155h199l110 -155h-145zM343 543c172 0 319 -102 319 -278s-147 -278 -319 -278c-173 0 -321 101 -321 278s148 278 321 278zM342 172c45 0 75 43 75 93s-30 93 -75 93s-75 -43 -75 -93s30 -93 75 -93z" />
    <glyph glyph-name="odieresis" unicode="&#xf6;" horiz-adv-x="684" 
d="M343 543c172 0 319 -102 319 -278s-147 -278 -319 -278c-173 0 -321 101 -321 278s148 278 321 278zM342 172c45 0 75 43 75 93s-30 93 -75 93s-75 -43 -75 -93s30 -93 75 -93zM135 598v131h163v-131h-163zM387 598v131h163v-131h-163z" />
    <glyph glyph-name="oe" unicode="&#x153;" horiz-adv-x="1002" 
d="M323 543c91 0 160 -29 204 -83c39 53 105 83 183 83c183 0 271 -114 271 -277c0 -19 -2 -39 -4 -60h-333c22 -45 77 -57 145 -57c51 0 97 11 139 25l26 -150c-61 -24 -131 -37 -212 -37c-93 0 -167 27 -216 81c-44 -53 -112 -81 -203 -81c-161 0 -300 101 -300 278
s139 278 300 278zM343 172c45 0 75 43 75 93s-30 93 -75 93s-75 -43 -75 -93s30 -93 75 -93zM633 325h132c-5 38 -23 70 -63 70c-42 0 -61 -32 -69 -70z" />
    <glyph glyph-name="ograve" unicode="&#xf2;" horiz-adv-x="684" 
d="M343 543c172 0 319 -102 319 -278s-147 -278 -319 -278c-173 0 -321 101 -321 278s148 278 321 278zM342 172c45 0 75 43 75 93s-30 93 -75 93s-75 -43 -75 -93s30 -93 75 -93zM295 590l-164 155h199l110 -155h-145z" />
    <glyph glyph-name="ohungarumlaut" unicode="&#x151;" horiz-adv-x="684" 
d="M343 543c172 0 319 -102 319 -278s-147 -278 -319 -278c-173 0 -321 101 -321 278s148 278 321 278zM342 172c45 0 75 43 75 93s-30 93 -75 93s-75 -43 -75 -93s30 -93 75 -93zM410 745l-164 -155h-145l110 155h199zM671 745l-164 -155h-145l110 155h199z" />
    <glyph glyph-name="oinvertedbreve" unicode="&#x20f;" horiz-adv-x="684" 
d="M343 543c172 0 319 -102 319 -278s-147 -278 -319 -278c-173 0 -321 101 -321 278s148 278 321 278zM342 172c45 0 75 43 75 93s-30 93 -75 93s-75 -43 -75 -93s30 -93 75 -93zM529 586h-91c-10 42 -52 60 -96 60s-86 -18 -96 -60h-91c9 103 82 154 187 154
s178 -51 187 -154z" />
    <glyph glyph-name="omacron" unicode="&#x14d;" horiz-adv-x="684" 
d="M343 543c172 0 319 -102 319 -278s-147 -278 -319 -278c-173 0 -321 101 -321 278s148 278 321 278zM342 172c45 0 75 43 75 93s-30 93 -75 93s-75 -43 -75 -93s30 -93 75 -93zM164 609v101h357v-101h-357z" />
    <glyph glyph-name="omacronacute" unicode="&#x1e53;" horiz-adv-x="684" 
d="M343 543c172 0 319 -102 319 -278s-147 -278 -319 -278c-173 0 -321 101 -321 278s148 278 321 278zM342 172c45 0 75 43 75 93s-30 93 -75 93s-75 -43 -75 -93s30 -93 75 -93zM546 902l-164 -155h-145l110 155h199zM164 600v101h357v-101h-357z" />
    <glyph glyph-name="omacrongrave" unicode="&#x1e51;" horiz-adv-x="684" 
d="M343 543c172 0 319 -102 319 -278s-147 -278 -319 -278c-173 0 -321 101 -321 278s148 278 321 278zM342 172c45 0 75 43 75 93s-30 93 -75 93s-75 -43 -75 -93s30 -93 75 -93zM310 747l-164 155h199l110 -155h-145zM164 600v101h357v-101h-357z" />
    <glyph glyph-name="oogonek" unicode="&#x1eb;" horiz-adv-x="685" 
d="M504 -123l39 -25c-25 -36 -73 -63 -135 -63c-54 0 -116 22 -116 82c0 47 35 89 66 116h-15c-173 0 -321 101 -321 278s148 278 321 278c172 0 319 -102 319 -278c0 -125 -76 -202 -158 -247c-54 -30 -100 -68 -100 -120c0 -32 25 -41 45 -41c21 0 43 8 55 20zM342 172
c45 0 75 43 75 93s-30 93 -75 93s-75 -43 -75 -93s30 -93 75 -93z" />
    <glyph glyph-name="oogonekmacron" unicode="&#x1ed;" horiz-adv-x="685" 
d="M504 -123l39 -25c-25 -36 -73 -63 -135 -63c-54 0 -116 22 -116 82c0 47 35 89 66 116h-15c-173 0 -321 101 -321 278s148 278 321 278c172 0 319 -102 319 -278c0 -125 -76 -202 -158 -247c-54 -30 -100 -68 -100 -120c0 -32 25 -41 45 -41c21 0 43 8 55 20zM342 172
c45 0 75 43 75 93s-30 93 -75 93s-75 -43 -75 -93s30 -93 75 -93zM164 609v101h357v-101h-357z" />
    <glyph glyph-name="oslash" unicode="&#xf8;" horiz-adv-x="684" 
d="M565 561l34 -29l-45 -53c66 -47 108 -120 108 -214c0 -176 -147 -278 -319 -278c-63 0 -123 13 -173 39l-50 -59l-34 29l45 53c-67 48 -109 121 -109 216c0 177 148 278 321 278c63 0 122 -14 173 -40zM267 265c0 -16 2 -32 8 -46l110 129c-12 11 -26 17 -43 17
c-48 0 -75 -50 -75 -100zM342 165c48 0 75 50 75 100c0 15 -2 30 -7 44l-110 -129c11 -10 25 -15 42 -15z" />
    <glyph glyph-name="oslashacute" unicode="&#x1ff;" horiz-adv-x="684" 
d="M565 561l34 -29l-45 -53c66 -47 108 -120 108 -214c0 -176 -147 -278 -319 -278c-63 0 -123 13 -173 39l-50 -59l-34 29l45 53c-67 48 -109 121 -109 216c0 177 148 278 321 278c63 0 122 -14 173 -40zM267 265c0 -16 2 -32 8 -46l110 129c-12 11 -26 17 -43 17
c-48 0 -75 -50 -75 -100zM342 165c48 0 75 50 75 100c0 15 -2 30 -7 44l-110 -129c11 -10 25 -15 42 -15zM537 745l-164 -155h-145l110 155h199z" />
    <glyph glyph-name="otilde" unicode="&#xf5;" horiz-adv-x="684" 
d="M343 543c172 0 319 -102 319 -278s-147 -278 -319 -278c-173 0 -321 101 -321 278s148 278 321 278zM342 172c45 0 75 43 75 93s-30 93 -75 93s-75 -43 -75 -93s30 -93 75 -93zM133 588c0 64 46 154 126 154c77 0 109 -50 148 -50c20 0 41 24 49 55h83
c-1 -73 -54 -162 -128 -162c-76 0 -100 49 -150 49c-22 0 -40 -23 -47 -46h-81z" />
    <glyph glyph-name="otildeacute" unicode="&#x1e4d;" horiz-adv-x="684" 
d="M547 947l-164 -155h-145l110 155h199zM343 543c172 0 319 -102 319 -278s-147 -278 -319 -278c-173 0 -321 101 -321 278s148 278 321 278zM342 172c45 0 75 43 75 93s-30 93 -75 93s-75 -43 -75 -93s30 -93 75 -93zM133 588c0 64 46 154 126 154c77 0 109 -50 148 -50
c20 0 41 24 49 55h83c-1 -73 -54 -162 -128 -162c-76 0 -100 49 -150 49c-22 0 -40 -23 -47 -46h-81z" />
    <glyph glyph-name="otildedieresis" unicode="&#x1e4f;" horiz-adv-x="684" 
d="M134 808v131h163v-131h-163zM386 808v131h163v-131h-163zM343 543c172 0 319 -102 319 -278s-147 -278 -319 -278c-173 0 -321 101 -321 278s148 278 321 278zM342 172c45 0 75 43 75 93s-30 93 -75 93s-75 -43 -75 -93s30 -93 75 -93zM133 588c0 64 46 154 126 154
c77 0 109 -50 148 -50c20 0 41 24 49 55h83c-1 -73 -54 -162 -128 -162c-76 0 -100 49 -150 49c-22 0 -40 -23 -47 -46h-81z" />
    <glyph glyph-name="pacute" unicode="&#x1e55;" horiz-adv-x="704" 
d="M447 -13c-61 0 -106 25 -142 65v-246h-255v724h245v-68c39 49 95 81 161 81c133 0 223 -126 223 -279s-95 -277 -232 -277zM358 355c-44 0 -74 -40 -74 -89s30 -89 74 -89s74 40 74 89s-30 89 -74 89zM512 745l-164 -155h-145l110 155h199z" />
    <glyph glyph-name="pdotaccent" unicode="&#x1e57;" horiz-adv-x="704" 
d="M447 -13c-61 0 -106 25 -142 65v-246h-255v724h245v-68c39 49 95 81 161 81c133 0 223 -126 223 -279s-95 -277 -232 -277zM358 355c-44 0 -74 -40 -74 -89s30 -89 74 -89s74 40 74 89s-30 89 -74 89zM245 598v131h163v-131h-163z" />
    <glyph glyph-name="racute" unicode="&#x155;" horiz-adv-x="477" 
d="M462 340c-99 13 -157 -38 -157 -142v-198h-255v530h238v-94c20 44 57 128 174 102v-198zM484 745l-164 -155h-145l110 155h199z" />
    <glyph glyph-name="rcaron" unicode="&#x159;" horiz-adv-x="477" 
d="M462 340c-99 13 -157 -38 -157 -142v-198h-255v530h238v-94c20 44 57 128 174 102v-198zM486 745l-119 -155h-194l-119 155h145l71 -70l71 70h145z" />
    <glyph glyph-name="rcedilla" horiz-adv-x="477" 
d="M56 -207l26 58c37 -8 122 -24 122 26c0 26 -53 33 -86 35l51 88h-119v530h238v-94c20 44 57 128 174 102v-198c-99 13 -157 -38 -157 -142v-198h-63l-38 -58c64 -2 117 -35 117 -84c0 -50 -41 -91 -125 -91c-55 0 -94 8 -140 26z" />
    <glyph glyph-name="rcommaaccent" unicode="&#x157;" horiz-adv-x="477" 
d="M462 340c-99 13 -157 -38 -157 -142v-198h-255v530h238v-94c20 44 57 128 174 102v-198zM86 -73h186v-144l-89 -131h-92l72 117h-77v158z" />
    <glyph glyph-name="rdblgrave" unicode="&#x211;" horiz-adv-x="477" 
d="M356 590l-164 155h199l110 -155h-145zM95 590l-164 155h199l110 -155h-145zM462 340c-99 13 -157 -38 -157 -142v-198h-255v530h238v-94c20 44 57 128 174 102v-198z" />
    <glyph glyph-name="rdotaccent" unicode="&#x1e59;" horiz-adv-x="477" 
d="M462 340c-99 13 -157 -38 -157 -142v-198h-255v530h238v-94c20 44 57 128 174 102v-198zM177 598v131h163v-131h-163z" />
    <glyph glyph-name="rdotbelow" unicode="&#x1e5b;" horiz-adv-x="477" 
d="M99 -204v131h163v-131h-163zM462 340c-99 13 -157 -38 -157 -142v-198h-255v530h238v-94c20 44 57 128 174 102v-198z" />
    <glyph glyph-name="rdotbelowmacron" unicode="&#x1e5d;" horiz-adv-x="477" 
d="M99 -204v131h163v-131h-163zM462 340c-99 13 -157 -38 -157 -142v-198h-255v530h238v-94c20 44 57 128 174 102v-198zM68 609v101h357v-101h-357z" />
    <glyph glyph-name="rinvertedbreve" unicode="&#x213;" horiz-adv-x="477" 
d="M462 340c-99 13 -157 -38 -157 -142v-198h-255v530h238v-94c20 44 57 128 174 102v-198zM446 586h-91c-10 42 -52 60 -96 60s-86 -18 -96 -60h-91c9 103 82 154 187 154s178 -51 187 -154z" />
    <glyph glyph-name="rlinebelow" unicode="&#x1e5f;" horiz-adv-x="477" 
d="M55 -174v101h357v-101h-357zM462 340c-99 13 -157 -38 -157 -142v-198h-255v530h238v-94c20 44 57 128 174 102v-198z" />
    <glyph glyph-name="sacute" unicode="&#x15b;" horiz-adv-x="547" 
d="M287 369c0 -37 234 -1 234 -197c0 -125 -100 -185 -257 -185c-88 0 -172 24 -241 61l23 152c45 -30 112 -54 180 -54c27 0 42 7 42 20c0 33 -228 0 -228 191c0 126 104 186 261 186c74 0 143 -17 204 -43l-22 -145c-36 16 -101 32 -143 32c-25 0 -53 -1 -53 -18zM469 745
l-164 -155h-145l110 155h199z" />
    <glyph glyph-name="sacutedotaccent" unicode="&#x1e65;" horiz-adv-x="547" 
d="M287 369c0 -37 234 -1 234 -197c0 -125 -100 -185 -257 -185c-88 0 -172 24 -241 61l23 152c45 -30 112 -54 180 -54c27 0 42 7 42 20c0 33 -228 0 -228 191c0 126 104 186 261 186c74 0 143 -17 204 -43l-22 -145c-36 16 -101 32 -143 32c-25 0 -53 -1 -53 -18zM563 744
l-164 -155h-145l110 155h199zM79 646v131h163v-131h-163z" />
    <glyph glyph-name="scaron" unicode="&#x161;" horiz-adv-x="547" 
d="M287 369c0 -37 234 -1 234 -197c0 -125 -100 -185 -257 -185c-88 0 -172 24 -241 61l23 152c45 -30 112 -54 180 -54c27 0 42 7 42 20c0 33 -228 0 -228 191c0 126 104 186 261 186c74 0 143 -17 204 -43l-22 -145c-36 16 -101 32 -143 32c-25 0 -53 -1 -53 -18zM491 745
l-119 -155h-194l-119 155h145l71 -70l71 70h145z" />
    <glyph glyph-name="scarondotaccent" unicode="&#x1e67;" horiz-adv-x="547" 
d="M193 798v131h163v-131h-163zM287 369c0 -37 234 -1 234 -197c0 -125 -100 -185 -257 -185c-88 0 -172 24 -241 61l23 152c45 -30 112 -54 180 -54c27 0 42 7 42 20c0 33 -228 0 -228 191c0 126 104 186 261 186c74 0 143 -17 204 -43l-22 -145c-36 16 -101 32 -143 32
c-25 0 -53 -1 -53 -18zM491 744l-119 -155h-194l-119 155h145l71 -70l71 70h145z" />
    <glyph glyph-name="scedilla" unicode="&#x15f;" horiz-adv-x="549" 
d="M128 -207l26 58c37 -8 122 -24 122 26c0 26 -53 33 -86 35l44 76c-77 5 -149 27 -210 60l23 152c45 -30 112 -54 180 -54c27 0 42 7 42 20c0 33 -228 0 -228 191c0 126 104 186 261 186c74 0 143 -17 204 -43l-22 -145c-36 16 -101 32 -143 32c-25 0 -53 -1 -53 -18
c0 -37 234 -1 234 -197c0 -114 -83 -173 -216 -183l-30 -47c64 -2 117 -35 117 -84c0 -50 -41 -91 -125 -91c-55 0 -94 8 -140 26z" />
    <glyph glyph-name="scircumflex" unicode="&#x15d;" horiz-adv-x="547" 
d="M287 369c0 -37 234 -1 234 -197c0 -125 -100 -185 -257 -185c-88 0 -172 24 -241 61l23 152c45 -30 112 -54 180 -54c27 0 42 7 42 20c0 33 -228 0 -228 191c0 126 104 186 261 186c74 0 143 -17 204 -43l-22 -145c-36 16 -101 32 -143 32c-25 0 -53 -1 -53 -18zM374 745
l119 -155h-145l-71 70l-71 -70h-145l119 155h194z" />
    <glyph glyph-name="scommaaccent" unicode="&#x219;" horiz-adv-x="547" 
d="M287 369c0 -37 234 -1 234 -197c0 -125 -100 -185 -257 -185c-88 0 -172 24 -241 61l23 152c45 -30 112 -54 180 -54c27 0 42 7 42 20c0 33 -228 0 -228 191c0 126 104 186 261 186c74 0 143 -17 204 -43l-22 -145c-36 16 -101 32 -143 32c-25 0 -53 -1 -53 -18zM188 -73
h186v-144l-89 -131h-92l72 117h-77v158z" />
    <glyph glyph-name="sdotaccent" unicode="&#x1e61;" horiz-adv-x="547" 
d="M287 369c0 -37 234 -1 234 -197c0 -125 -100 -185 -257 -185c-88 0 -172 24 -241 61l23 152c45 -30 112 -54 180 -54c27 0 42 7 42 20c0 33 -228 0 -228 191c0 126 104 186 261 186c74 0 143 -17 204 -43l-22 -145c-36 16 -101 32 -143 32c-25 0 -53 -1 -53 -18zM186 598
v131h163v-131h-163z" />
    <glyph glyph-name="sdotbelow" unicode="&#x1e63;" horiz-adv-x="547" 
d="M200 -204v131h163v-131h-163zM287 369c0 -37 234 -1 234 -197c0 -125 -100 -185 -257 -185c-88 0 -172 24 -241 61l23 152c45 -30 112 -54 180 -54c27 0 42 7 42 20c0 33 -228 0 -228 191c0 126 104 186 261 186c74 0 143 -17 204 -43l-22 -145c-36 16 -101 32 -143 32
c-25 0 -53 -1 -53 -18z" />
    <glyph glyph-name="sdotbelowdotaccent" unicode="&#x1e69;" horiz-adv-x="547" 
d="M200 -204v131h163v-131h-163zM287 369c0 -37 234 -1 234 -197c0 -125 -100 -185 -257 -185c-88 0 -172 24 -241 61l23 152c45 -30 112 -54 180 -54c27 0 42 7 42 20c0 33 -228 0 -228 191c0 126 104 186 261 186c74 0 143 -17 204 -43l-22 -145c-36 16 -101 32 -143 32
c-25 0 -53 -1 -53 -18zM186 598v131h163v-131h-163z" />
    <glyph glyph-name="tbar" unicode="&#x167;" horiz-adv-x="469" 
d="M35 206v108h47v41h-55v175h55v123h255v-123h92v-175h-92v-41h74v-108h-74c4 -36 33 -49 62 -49c9 0 19 1 27 2l20 -141c-39 -17 -105 -31 -171 -31c-113 0 -193 41 -193 165v54h-47z" />
    <glyph glyph-name="tcaron" unicode="&#x165;" horiz-adv-x="469" 
d="M27 355v175h55v123h255v-123h92v-175h-92v-141c0 -42 31 -57 62 -57c9 0 19 1 27 2l20 -141c-39 -17 -105 -31 -171 -31c-113 0 -193 41 -193 165v203h-55zM395 904h186v-144l-89 -131h-92l72 117h-77v158z" />
    <glyph glyph-name="tcircumflexbelow" unicode="&#x1e71;" horiz-adv-x="469" 
d="M338 -73l119 -155h-145l-71 70l-71 -70h-145l119 155h194zM27 355v175h55v123h255v-123h92v-175h-92v-141c0 -42 31 -57 62 -57c9 0 19 1 27 2l20 -141c-39 -17 -105 -31 -171 -31c-113 0 -193 41 -193 165v203h-55z" />
    <glyph glyph-name="tcommaaccent" unicode="&#x163;" horiz-adv-x="469" 
d="M27 355v175h55v123h255v-123h92v-175h-92v-141c0 -42 31 -57 62 -57c9 0 19 1 27 2l20 -141c-39 -17 -105 -31 -171 -31c-113 0 -193 41 -193 165v203h-55zM152 -73h186v-144l-89 -131h-92l72 117h-77v158z" />
    <glyph glyph-name="tdieresis" unicode="&#x1e97;" horiz-adv-x="469" 
d="M27 355v175h55v123h255v-123h92v-175h-92v-141c0 -42 31 -57 62 -57c9 0 19 1 27 2l20 -141c-39 -17 -105 -31 -171 -31c-113 0 -193 41 -193 165v203h-55zM12 725v131h163v-131h-163zM264 725v131h163v-131h-163z" />
    <glyph glyph-name="tdotaccent" unicode="&#x1e6b;" horiz-adv-x="469" 
d="M27 355v175h55v123h255v-123h92v-175h-92v-141c0 -42 31 -57 62 -57c9 0 19 1 27 2l20 -141c-39 -17 -105 -31 -171 -31c-113 0 -193 41 -193 165v203h-55zM131 728v131h163v-131h-163z" />
    <glyph glyph-name="tdotbelow" unicode="&#x1e6d;" horiz-adv-x="469" 
d="M179 -204v131h163v-131h-163zM27 355v175h55v123h255v-123h92v-175h-92v-141c0 -42 31 -57 62 -57c9 0 19 1 27 2l20 -141c-39 -17 -105 -31 -171 -31c-113 0 -193 41 -193 165v203h-55z" />
    <glyph glyph-name="uni021B" unicode="&#x21b;" horiz-adv-x="469" 
d="M27 355v175h55v123h255v-123h92v-175h-92v-141c0 -42 31 -57 62 -57c9 0 19 1 27 2l20 -141c-39 -17 -105 -31 -171 -31c-113 0 -193 41 -193 165v203h-55zM152 -73h186v-144l-89 -131h-92l72 117h-77v158z" />
    <glyph glyph-name="tlinebelow" unicode="&#x1e6f;" horiz-adv-x="469" 
d="M62 -174v101h357v-101h-357zM27 355v175h55v123h255v-123h92v-175h-92v-141c0 -42 31 -57 62 -57c9 0 19 1 27 2l20 -141c-39 -17 -105 -31 -171 -31c-113 0 -193 41 -193 165v203h-55z" />
    <glyph glyph-name="uacute" unicode="&#xfa;" horiz-adv-x="699" 
d="M45 170v360h255v-303c0 -27 21 -49 47 -49s47 22 47 49v303h255v-530h-247v52c-40 -40 -97 -65 -166 -65c-107 0 -191 78 -191 183zM563 745l-164 -155h-145l110 155h199z" />
    <glyph glyph-name="ubreve" unicode="&#x16d;" horiz-adv-x="699" 
d="M45 170v360h255v-303c0 -27 21 -49 47 -49s47 22 47 49v303h255v-530h-247v52c-40 -40 -97 -65 -166 -65c-107 0 -191 78 -191 183zM443 740h91c-9 -103 -82 -154 -187 -154s-178 51 -187 154h91c10 -42 52 -60 96 -60s86 18 96 60z" />
    <glyph glyph-name="ucaron" unicode="&#x1d4;" horiz-adv-x="699" 
d="M45 170v360h255v-303c0 -27 21 -49 47 -49s47 22 47 49v303h255v-530h-247v52c-40 -40 -97 -65 -166 -65c-107 0 -191 78 -191 183zM563 745l-119 -155h-194l-119 155h145l71 -70l71 70h145z" />
    <glyph glyph-name="ucircumflex" unicode="&#xfb;" horiz-adv-x="699" 
d="M45 170v360h255v-303c0 -27 21 -49 47 -49s47 22 47 49v303h255v-530h-247v52c-40 -40 -97 -65 -166 -65c-107 0 -191 78 -191 183zM444 745l119 -155h-145l-71 70l-71 -70h-145l119 155h194z" />
    <glyph glyph-name="ucircumflexbelow" unicode="&#x1e77;" horiz-adv-x="699" 
d="M451 -73l119 -155h-145l-71 70l-71 -70h-145l119 155h194zM45 170v360h255v-303c0 -27 21 -49 47 -49s47 22 47 49v303h255v-530h-247v52c-40 -40 -97 -65 -166 -65c-107 0 -191 78 -191 183z" />
    <glyph glyph-name="udblgrave" unicode="&#x215;" horiz-adv-x="699" 
d="M437 590l-164 155h199l110 -155h-145zM176 590l-164 155h199l110 -155h-145zM45 170v360h255v-303c0 -27 21 -49 47 -49s47 22 47 49v303h255v-530h-247v52c-40 -40 -97 -65 -166 -65c-107 0 -191 78 -191 183z" />
    <glyph glyph-name="udieresis" unicode="&#xfc;" horiz-adv-x="699" 
d="M45 170v360h255v-303c0 -27 21 -49 47 -49s47 22 47 49v303h255v-530h-247v52c-40 -40 -97 -65 -166 -65c-107 0 -191 78 -191 183zM140 598v131h163v-131h-163zM392 598v131h163v-131h-163z" />
    <glyph glyph-name="udieresisacute" unicode="&#x1d8;" horiz-adv-x="699" 
d="M555 953l-164 -155h-145l110 155h199zM45 170v360h255v-303c0 -27 21 -49 47 -49s47 22 47 49v303h255v-530h-247v52c-40 -40 -97 -65 -166 -65c-107 0 -191 78 -191 183zM140 598v131h163v-131h-163zM392 598v131h163v-131h-163z" />
    <glyph glyph-name="udieresisbelow" unicode="&#x1e73;" horiz-adv-x="699" 
d="M147 -204v131h163v-131h-163zM399 -204v131h163v-131h-163zM45 170v360h255v-303c0 -27 21 -49 47 -49s47 22 47 49v303h255v-530h-247v52c-40 -40 -97 -65 -166 -65c-107 0 -191 78 -191 183z" />
    <glyph glyph-name="udieresiscaron" unicode="&#x1da;" horiz-adv-x="699" 
d="M563 956l-119 -155h-194l-119 155h145l71 -70l71 70h145zM45 170v360h255v-303c0 -27 21 -49 47 -49s47 22 47 49v303h255v-530h-247v52c-40 -40 -97 -65 -166 -65c-107 0 -191 78 -191 183zM140 598v131h163v-131h-163zM392 598v131h163v-131h-163z" />
    <glyph glyph-name="udieresisgrave" unicode="&#x1dc;" horiz-adv-x="699" 
d="M298 798l-164 155h199l110 -155h-145zM45 170v360h255v-303c0 -27 21 -49 47 -49s47 22 47 49v303h255v-530h-247v52c-40 -40 -97 -65 -166 -65c-107 0 -191 78 -191 183zM140 598v131h163v-131h-163zM392 598v131h163v-131h-163z" />
    <glyph glyph-name="udieresismacron" unicode="&#x1d6;" horiz-adv-x="699" 
d="M169 797v101h357v-101h-357zM45 170v360h255v-303c0 -27 21 -49 47 -49s47 22 47 49v303h255v-530h-247v52c-40 -40 -97 -65 -166 -65c-107 0 -191 78 -191 183zM140 598v131h163v-131h-163zM392 598v131h163v-131h-163z" />
    <glyph glyph-name="ugrave" unicode="&#xf9;" horiz-adv-x="699" 
d="M45 170v360h255v-303c0 -27 21 -49 47 -49s47 22 47 49v303h255v-530h-247v52c-40 -40 -97 -65 -166 -65c-107 0 -191 78 -191 183zM282 590l-164 155h199l110 -155h-145z" />
    <glyph glyph-name="uhungarumlaut" unicode="&#x171;" horiz-adv-x="699" 
d="M45 170v360h255v-303c0 -27 21 -49 47 -49s47 22 47 49v303h255v-530h-247v52c-40 -40 -97 -65 -166 -65c-107 0 -191 78 -191 183zM424 745l-164 -155h-145l110 155h199zM685 745l-164 -155h-145l110 155h199z" />
    <glyph glyph-name="uinvertedbreve" unicode="&#x217;" horiz-adv-x="699" 
d="M45 170v360h255v-303c0 -27 21 -49 47 -49s47 22 47 49v303h255v-530h-247v52c-40 -40 -97 -65 -166 -65c-107 0 -191 78 -191 183zM534 586h-91c-10 42 -52 60 -96 60s-86 -18 -96 -60h-91c9 103 82 154 187 154s178 -51 187 -154z" />
    <glyph glyph-name="umacron" unicode="&#x16b;" horiz-adv-x="699" 
d="M45 170v360h255v-303c0 -27 21 -49 47 -49s47 22 47 49v303h255v-530h-247v52c-40 -40 -97 -65 -166 -65c-107 0 -191 78 -191 183zM169 609v101h357v-101h-357z" />
    <glyph glyph-name="umacrondieresis" unicode="&#x1e7b;" horiz-adv-x="699" 
d="M140 764v131h163v-131h-163zM392 764v131h163v-131h-163zM45 170v360h255v-303c0 -27 21 -49 47 -49s47 22 47 49v303h255v-530h-247v52c-40 -40 -97 -65 -166 -65c-107 0 -191 78 -191 183zM169 609v101h357v-101h-357z" />
    <glyph glyph-name="uogonek" unicode="&#x173;" horiz-adv-x="699" 
d="M670 -123l39 -25c-25 -36 -73 -63 -135 -63c-54 0 -116 22 -116 82c0 66 69 110 100 129h-156v52c-40 -40 -97 -65 -166 -65c-107 0 -191 78 -191 183v360h255v-303c0 -27 21 -49 47 -49s47 22 47 49v303h255v-530c-50 -37 -79 -68 -79 -102c0 -32 25 -41 45 -41
c21 0 43 8 55 20z" />
    <glyph glyph-name="uring" unicode="&#x16f;" horiz-adv-x="699" 
d="M45 170v360h255v-303c0 -27 21 -49 47 -49s47 22 47 49v303h255v-530h-247v52c-40 -40 -97 -65 -166 -65c-107 0 -191 78 -191 183zM347 586c-66 0 -123 44 -123 113s57 113 123 113s123 -44 123 -113s-57 -113 -123 -113zM347 748c-29 0 -52 -20 -52 -49s23 -49 52 -49
s52 20 52 49s-23 49 -52 49z" />
    <glyph glyph-name="utilde" unicode="&#x169;" horiz-adv-x="699" 
d="M45 170v360h255v-303c0 -27 21 -49 47 -49s47 22 47 49v303h255v-530h-247v52c-40 -40 -97 -65 -166 -65c-107 0 -191 78 -191 183zM146 588c0 64 46 154 126 154c77 0 109 -50 148 -50c20 0 41 24 49 55h83c-1 -73 -54 -162 -128 -162c-76 0 -100 49 -150 49
c-22 0 -40 -23 -47 -46h-81z" />
    <glyph glyph-name="utildeacute" unicode="&#x1e79;" horiz-adv-x="699" 
d="M45 170v360h255v-303c0 -27 21 -49 47 -49s47 22 47 49v303h255v-530h-247v52c-40 -40 -97 -65 -166 -65c-107 0 -191 78 -191 183zM560 947l-164 -155h-145l110 155h199zM146 588c0 64 46 154 126 154c77 0 109 -50 148 -50c20 0 41 24 49 55h83
c-1 -73 -54 -162 -128 -162c-76 0 -100 49 -150 49c-22 0 -40 -23 -47 -46h-81z" />
    <glyph glyph-name="utildebelow" unicode="&#x1e75;" horiz-adv-x="699" 
d="M143 -226c0 64 46 154 126 154c77 0 109 -50 148 -50c20 0 41 24 49 55h83c-1 -73 -54 -162 -128 -162c-76 0 -100 49 -150 49c-22 0 -40 -23 -47 -46h-81zM45 170v360h255v-303c0 -27 21 -49 47 -49s47 22 47 49v303h255v-530h-247v52c-40 -40 -97 -65 -166 -65
c-107 0 -191 78 -191 183z" />
    <glyph glyph-name="vdotbelow" unicode="&#x1e7f;" horiz-adv-x="644" 
d="M241 -204v131h163v-131h-163zM396 530h255l-186 -530h-286l-186 530h255l74 -313z" />
    <glyph glyph-name="vtilde" unicode="&#x1e7d;" horiz-adv-x="644" 
d="M396 530h255l-186 -530h-286l-186 530h255l74 -313zM123 588c0 64 46 154 126 154c77 0 109 -50 148 -50c20 0 41 24 49 55h83c-1 -73 -54 -162 -128 -162c-76 0 -100 49 -150 49c-22 0 -40 -23 -47 -46h-81z" />
    <glyph glyph-name="wacute" unicode="&#x1e83;" horiz-adv-x="955" 
d="M699 530h257l-160 -530h-247l-71 241l-73 -241h-246l-160 530h260l51 -289l75 289h181l79 -289zM673 745l-164 -155h-145l110 155h199z" />
    <glyph glyph-name="wcircumflex" unicode="&#x175;" horiz-adv-x="955" 
d="M699 530h257l-160 -530h-247l-71 241l-73 -241h-246l-160 530h260l51 -289l75 289h181l79 -289zM574 745l119 -155h-145l-71 70l-71 -70h-145l119 155h194z" />
    <glyph glyph-name="wdieresis" unicode="&#x1e85;" horiz-adv-x="955" 
d="M699 530h257l-160 -530h-247l-71 241l-73 -241h-246l-160 530h260l51 -289l75 289h181l79 -289zM271 598v131h163v-131h-163zM523 598v131h163v-131h-163z" />
    <glyph glyph-name="wdotaccent" unicode="&#x1e87;" horiz-adv-x="955" 
d="M699 530h257l-160 -530h-247l-71 241l-73 -241h-246l-160 530h260l51 -289l75 289h181l79 -289zM397 598v131h163v-131h-163z" />
    <glyph glyph-name="wdotbelow" unicode="&#x1e89;" horiz-adv-x="955" 
d="M396 -204v131h163v-131h-163zM699 530h257l-160 -530h-247l-71 241l-73 -241h-246l-160 530h260l51 -289l75 289h181l79 -289z" />
    <glyph glyph-name="wgrave" unicode="&#x1e81;" horiz-adv-x="955" 
d="M699 530h257l-160 -530h-247l-71 241l-73 -241h-246l-160 530h260l51 -289l75 289h181l79 -289zM442 590l-164 155h199l110 -155h-145z" />
    <glyph glyph-name="wring" unicode="&#x1e98;" horiz-adv-x="955" 
d="M699 530h257l-160 -530h-247l-71 241l-73 -241h-246l-160 530h260l51 -289l75 289h181l79 -289zM478 586c-66 0 -123 44 -123 113s57 113 123 113s123 -44 123 -113s-57 -113 -123 -113zM478 748c-29 0 -52 -20 -52 -49s23 -49 52 -49s52 20 52 49s-23 49 -52 49z" />
    <glyph glyph-name="xdieresis" unicode="&#x1e8d;" horiz-adv-x="676" 
d="M508 277l173 -277h-271l-72 158l-72 -158h-271l173 277l-155 253h246l79 -139l79 139h246zM131 598v131h163v-131h-163zM383 598v131h163v-131h-163z" />
    <glyph glyph-name="xdotaccent" unicode="&#x1e8b;" horiz-adv-x="676" 
d="M508 277l173 -277h-271l-72 158l-72 -158h-271l173 277l-155 253h246l79 -139l79 139h246zM257 598v131h163v-131h-163z" />
    <glyph glyph-name="yacute" unicode="&#xfd;" horiz-adv-x="696" 
d="M392 530h255v-446c0 -204 -90 -291 -312 -291c-206 0 -268 66 -268 142c0 60 40 110 114 135c-90 7 -138 58 -138 139v321h255v-287c0 -28 21 -50 47 -50s47 22 47 50v287zM392 -3v71s-92 -13 -92 -83c0 -25 11 -47 43 -47c37 0 49 25 49 59zM559 745l-164 -155h-145
l110 155h199z" />
    <glyph glyph-name="ycircumflex" unicode="&#x177;" horiz-adv-x="696" 
d="M392 530h255v-446c0 -204 -90 -291 -312 -291c-206 0 -268 66 -268 142c0 60 40 110 114 135c-90 7 -138 58 -138 139v321h255v-287c0 -28 21 -50 47 -50s47 22 47 50v287zM392 -3v71s-92 -13 -92 -83c0 -25 11 -47 43 -47c37 0 49 25 49 59zM442 745l119 -155h-145
l-71 70l-71 -70h-145l119 155h194z" />
    <glyph glyph-name="ydieresis" unicode="&#xff;" horiz-adv-x="696" 
d="M392 530h255v-446c0 -204 -90 -291 -312 -291c-206 0 -268 66 -268 142c0 60 40 110 114 135c-90 7 -138 58 -138 139v321h255v-287c0 -28 21 -50 47 -50s47 22 47 50v287zM392 -3v71s-92 -13 -92 -83c0 -25 11 -47 43 -47c37 0 49 25 49 59zM138 598v131h163v-131h-163z
M390 598v131h163v-131h-163z" />
    <glyph glyph-name="ydotaccent" unicode="&#x1e8f;" horiz-adv-x="696" 
d="M392 530h255v-446c0 -204 -90 -291 -312 -291c-206 0 -268 66 -268 142c0 60 40 110 114 135c-90 7 -138 58 -138 139v321h255v-287c0 -28 21 -50 47 -50s47 22 47 50v287zM392 -3v71s-92 -13 -92 -83c0 -25 11 -47 43 -47c37 0 49 25 49 59zM264 598v131h163v-131h-163z
" />
    <glyph glyph-name="yring" unicode="&#x1e99;" horiz-adv-x="696" 
d="M392 530h255v-446c0 -204 -90 -291 -312 -291c-206 0 -268 66 -268 142c0 60 40 110 114 135c-90 7 -138 58 -138 139v321h255v-287c0 -28 21 -50 47 -50s47 22 47 50v287zM392 -3v71s-92 -13 -92 -83c0 -25 11 -47 43 -47c37 0 49 25 49 59zM345 586
c-66 0 -123 44 -123 113s57 113 123 113s123 -44 123 -113s-57 -113 -123 -113zM345 748c-29 0 -52 -20 -52 -49s23 -49 52 -49s52 20 52 49s-23 49 -52 49z" />
    <glyph glyph-name="zacute" unicode="&#x17a;" horiz-adv-x="567" 
d="M526 377l-191 -206h196v-171h-502v144l204 215h-186v171h479v-153zM477 745l-164 -155h-145l110 155h199z" />
    <glyph glyph-name="zcaron" unicode="&#x17e;" horiz-adv-x="567" 
d="M526 377l-191 -206h196v-171h-502v144l204 215h-186v171h479v-153zM506 745l-119 -155h-194l-119 155h145l71 -70l71 70h145z" />
    <glyph glyph-name="zcircumflex" unicode="&#x1e91;" horiz-adv-x="567" 
d="M526 377l-191 -206h196v-171h-502v144l204 215h-186v171h479v-153zM386 745l119 -155h-145l-71 70l-71 -70h-145l119 155h194z" />
    <glyph glyph-name="zdotaccent" unicode="&#x17c;" horiz-adv-x="567" 
d="M526 377l-191 -206h196v-171h-502v144l204 215h-186v171h479v-153zM203 598v131h163v-131h-163z" />
    <glyph glyph-name="zdotbelow" unicode="&#x1e93;" horiz-adv-x="567" 
d="M210 -204v131h163v-131h-163zM526 377l-191 -206h196v-171h-502v144l204 215h-186v171h479v-153z" />
    <glyph glyph-name="zlinebelow" unicode="&#x1e95;" horiz-adv-x="567" 
d="M108 -174v101h357v-101h-357zM526 377l-191 -206h196v-171h-502v144l204 215h-186v171h479v-153z" />
    <glyph glyph-name="germandbls" unicode="&#xdf;" horiz-adv-x="744" 
d="M346 -4l22 174c10 -1 25 -2 35 -2c39 0 74 16 74 51s-29 54 -71 54h-33v175h11c42 0 78 16 78 60c0 29 -25 57 -80 57c-66 0 -93 -43 -93 -91v-474h-240v472c0 142 99 280 333 280c170 0 307 -91 307 -213c0 -80 -44 -144 -104 -171c88 -27 135 -97 135 -180
c0 -156 -133 -201 -270 -201c-35 0 -77 4 -104 9z" />
    <glyph glyph-name="eng" unicode="&#x14b;" horiz-adv-x="698" 
d="M399 38v265c0 27 -21 49 -47 49s-47 -22 -47 -49v-303h-255v530h247v-52c40 40 97 65 166 65c107 0 191 -78 191 -183v-307c0 -227 -178 -253 -322 -260l-18 161c34 12 85 31 85 84z" />
    <glyph glyph-name="eth" unicode="&#xf0;" horiz-adv-x="636" 
d="M498 723l24 -62l-54 -22c112 -107 140 -244 140 -362c0 -186 -134 -290 -290 -290c-157 0 -292 92 -292 253s106 253 220 253c63 0 109 -18 143 -49c-22 48 -54 90 -94 127l-145 -58l-24 62l109 43c-36 25 -77 46 -119 65l216 49c28 -14 54 -29 77 -45zM317 158
c40 0 67 38 67 82c0 45 -27 83 -67 83s-67 -38 -67 -83c0 -44 27 -82 67 -82z" />
    <glyph glyph-name="thorn" unicode="&#xfe;" horiz-adv-x="704" 
d="M456 543c133 0 223 -124 223 -277s-90 -279 -223 -279c-66 0 -122 32 -161 81v-262h-245v933h255v-263c39 42 90 67 151 67zM358 177c44 0 74 40 74 89s-30 89 -74 89s-74 -40 -74 -89s30 -89 74 -89z" />
    <glyph glyph-name="cent" unicode="&#xa2;" horiz-adv-x="550" 
d="M278 670h100v-99c50 -6 96 -18 134 -30l-27 -133c-25 9 -55 14 -93 14c-109 0 -138 -67 -138 -125c0 -55 29 -126 138 -126c40 0 68 5 93 15l29 -141c-37 -12 -85 -24 -136 -29v-143h-100v144c-157 18 -252 127 -252 277c0 148 95 258 252 277v99z" />
    <glyph glyph-name="colonmonetary" unicode="&#x20a1;" horiz-adv-x="677" 
d="M518 784h84l-37 -115c30 -6 56 -14 80 -22l-50 -182c-33 14 -81 25 -130 25c-110 0 -172 -56 -172 -152s62 -152 172 -152c49 0 97 11 130 25l50 -182c-63 -21 -148 -42 -245 -42c-18 0 -36 1 -53 3l-30 -94h-84l35 109c-22 6 -42 14 -61 24l-43 -133h-84l57 179
c-69 60 -109 151 -109 263c0 196 120 323 306 347l32 99h84l-31 -95c23 -1 45 -3 67 -5z" />
    <glyph glyph-name="currency" unicode="&#xa4;" horiz-adv-x="694" 
d="M622 272c0 -55 -16 -106 -44 -149l89 -89l-81 -81l-89 89c-43 -28 -95 -45 -150 -45s-106 17 -149 45l-89 -89l-82 81l89 89c-28 43 -44 94 -44 149s16 107 44 150l-89 89l82 81l89 -89c43 28 94 44 149 44s107 -16 150 -44l89 89l81 -81l-89 -89c28 -43 44 -95 44 -150z
M347 125c82 0 148 66 148 147c0 82 -66 148 -148 148c-81 0 -148 -66 -148 -148c0 -81 67 -147 148 -147z" />
    <glyph glyph-name="dollar" unicode="$" horiz-adv-x="632" 
d="M277 485c0 -78 328 -28 328 -262c0 -145 -90 -217 -231 -232v-152h-100v149c-100 3 -174 21 -242 49c40 180 0 0 40 181c64 -29 129 -54 222 -54c48 0 62 13 62 31c0 75 -324 18 -323 261c1 137 95 217 241 231v94h100v-94c74 -4 142 -18 203 -36l-39 -174
c-46 19 -120 38 -199 38c-38 0 -62 -6 -62 -30z" />
    <glyph glyph-name="Euro" unicode="&#x20ac;" horiz-adv-x="750" 
d="M537 186c49 0 97 11 130 25l50 -182c-63 -21 -148 -42 -245 -42c-184 0 -319 92 -359 249h-83v80h539v-80h-169c29 -33 76 -50 137 -50zM569 366h-539v80h84c42 153 176 243 358 243c97 0 182 -21 245 -42l-50 -182c-33 14 -81 25 -130 25c-57 0 -102 -16 -131 -44h163
v-80z" />
    <glyph glyph-name="florin" unicode="&#x192;" horiz-adv-x="503" 
d="M427 474c-36 0 -67 -9 -67 -55v-4h84v-175h-84v-253c0 -176 -107 -220 -211 -220c-45 0 -83 6 -114 14v145c48 -5 83 10 83 55v259h-56v175h56v2c0 176 107 220 211 220c62 0 112 -11 147 -25l-17 -141c-7 1 -20 3 -32 3z" />
    <glyph glyph-name="franc" unicode="&#x20a3;" horiz-adv-x="653" 
d="M30 73v90h62v513h530v-192h-272v-71h229v-193h-229v-57h120v-90h-120v-73h-258v73h-62z" />
    <glyph glyph-name="uni20A6" unicode="&#x20a6;" horiz-adv-x="949" 
d="M918 383h-94v-71h94v-90h-94v-222h-247l-212 347v-347h-239v222h-95v90h95v71h-95v90h95v203h260l199 -345v345h239v-203h94v-90z" />
    <glyph glyph-name="uni20B9" unicode="&#x20b9;" horiz-adv-x="576" 
d="M64 405v90h135c-19 39 -63 63 -135 63v131h504l-36 -90h-141c32 -23 55 -57 63 -104h114l-37 -90h-79c-17 -72 -73 -106 -118 -127c57 -11 128 -73 156 -278h-259c-45 189 -91 209 -188 223l21 109c85 0 126 28 140 73h-140z" />
    <glyph glyph-name="sterling" unicode="&#xa3;" horiz-adv-x="628" 
d="M380 689c86 0 161 -14 218 -33l-40 -186c-35 10 -74 18 -114 18c-63 0 -95 -24 -95 -72c0 -11 1 -22 3 -35h140v-79h-130c2 -35 -1 -75 -14 -119h224v-183h-518v90c66 90 72 153 63 212h-86v79h70c-5 26 -10 54 -10 86c0 149 129 222 289 222z" />
    <glyph glyph-name="yen" unicode="&#xa5;" horiz-adv-x="736" 
d="M714 676l-152 -301h86v-79h-126l-27 -55v-28h153v-79h-153v-134h-254v134h-153v79h153v28l-28 55h-125v79h85l-151 301h250l96 -253l96 253h250z" />
    <glyph glyph-name="onehalf" unicode="&#xbd;" horiz-adv-x="1115" 
d="M57 600c61 0 120 18 124 87h132v-406h-158v229h-98v90zM888 413c96 0 174 -25 174 -130c0 -66 -48 -110 -115 -158h119v-125h-348v119c88 54 182 98 182 144c0 17 -21 25 -48 25c-47 0 -84 -13 -111 -26l-23 117c43 18 118 34 170 34zM690 700h153l-448 -719h-153z" />
    <glyph glyph-name="onethird" unicode="&#x2153;" horiz-adv-x="1115" 
d="M56 600c61 0 120 18 124 87h132v-406h-158v229h-98v90zM689 700h153l-448 -719h-153zM979 208c44 -11 86 -49 86 -99c0 -87 -94 -117 -196 -117c-63 0 -120 10 -159 24l15 120c33 -14 70 -25 111 -25c36 0 64 4 64 20c0 15 -15 21 -40 21h-78v107h61c24 0 45 2 45 18
s-20 18 -49 18c-37 0 -74 -10 -96 -19l-18 113c39 14 89 24 145 24c105 0 175 -36 175 -117c0 -43 -31 -73 -66 -88z" />
    <glyph glyph-name="onequarter" unicode="&#xbc;" horiz-adv-x="1115" 
d="M1004 406v-219h39v-114h-39v-73h-148v73h-195v113l157 220h186zM859 184v101l-71 -101h71zM72 600c61 0 120 18 124 87h132v-406h-158v229h-98v90zM705 700h153l-448 -719h-153z" />
    <glyph glyph-name="onefifth" unicode="&#x2155;" horiz-adv-x="1115" 
d="M56 600c61 0 120 18 124 87h132v-406h-158v229h-98v90zM689 700h153l-448 -719h-153zM727 205l30 201h293v-120h-155l-7 -27c7 0 15 1 23 1c76 0 154 -37 154 -135c0 -99 -98 -133 -198 -133c-49 0 -106 10 -151 23l16 117c32 -14 69 -24 100 -24c38 0 61 7 61 26
c0 26 -29 32 -57 32c-20 0 -39 -3 -49 -5z" />
    <glyph glyph-name="onesixth" unicode="&#x2159;" horiz-adv-x="1115" 
d="M49 600c61 0 120 18 124 87h132v-406h-158v229h-98v90zM682 700h153l-448 -719h-153zM936 268c90 0 130 -58 130 -134c0 -83 -64 -142 -184 -142c-122 0 -185 81 -185 211c0 131 90 210 202 210c61 0 104 -11 144 -30l-22 -108c-19 9 -55 18 -93 18
c-40 0 -75 -15 -79 -50c25 16 51 25 87 25zM887 97c17 0 26 17 26 37c0 21 -7 38 -26 38c-17 0 -26 -17 -26 -38c0 -20 7 -37 26 -37z" />
    <glyph glyph-name="oneeighth" unicode="&#x215b;" horiz-adv-x="1115" 
d="M56 600c61 0 120 18 124 87h132v-406h-158v229h-98v90zM689 700h153l-448 -719h-153zM978 207c50 -16 81 -47 81 -101c0 -93 -82 -114 -186 -114s-186 21 -186 114c0 54 31 85 82 101c-43 14 -67 43 -67 98c0 74 67 108 171 108c105 0 172 -34 172 -108
c0 -55 -25 -84 -67 -98zM873 329c-17 0 -23 -16 -23 -36c0 -21 9 -35 23 -35c15 0 23 14 23 35c0 19 -5 36 -23 36zM873 79c20 0 28 17 28 41c0 27 -6 44 -28 44c-21 0 -28 -17 -28 -44c0 -25 8 -41 28 -41z" />
    <glyph glyph-name="twothirds" unicode="&#x2154;" horiz-adv-x="1115" 
d="M722 700h153l-448 -719h-153zM1003 208c44 -11 86 -49 86 -99c0 -87 -94 -117 -196 -117c-63 0 -120 10 -159 24l15 120c33 -14 70 -25 111 -25c36 0 64 4 64 20c0 15 -15 21 -40 21h-78v107h61c24 0 45 2 45 18s-20 18 -49 18c-37 0 -74 -10 -96 -19l-18 113
c39 14 89 24 145 24c105 0 175 -36 175 -117c0 -43 -31 -73 -66 -88zM203 694c96 0 174 -25 174 -130c0 -66 -48 -110 -115 -158h119v-125h-348v119c88 54 182 98 182 144c0 17 -21 25 -48 25c-47 0 -84 -13 -111 -26l-23 117c43 18 118 34 170 34z" />
    <glyph glyph-name="twofifths" unicode="&#x2156;" horiz-adv-x="1115" 
d="M712 700h153l-448 -719h-153zM735 205l30 201h293v-120h-155l-7 -27c7 0 15 1 23 1c76 0 154 -37 154 -135c0 -99 -98 -133 -198 -133c-49 0 -106 10 -151 23l16 117c32 -14 69 -24 100 -24c38 0 61 7 61 26c0 26 -29 32 -57 32c-20 0 -39 -3 -49 -5zM208 694
c96 0 174 -25 174 -130c0 -66 -48 -110 -115 -158h119v-125h-348v119c88 54 182 98 182 144c0 17 -21 25 -48 25c-47 0 -84 -13 -111 -26l-23 117c43 18 118 34 170 34z" />
    <glyph glyph-name="threequarters" unicode="&#xbe;" horiz-adv-x="1115" 
d="M1023 406v-219h39v-114h-39v-73h-148v73h-195v113l157 220h186zM878 184v101l-71 -101h71zM714 700h153l-448 -719h-153zM322 489c44 -11 86 -49 86 -99c0 -87 -94 -117 -196 -117c-63 0 -120 10 -159 24l15 120c33 -14 70 -25 111 -25c36 0 64 4 64 20
c0 15 -15 21 -40 21h-78v107h61c24 0 45 2 45 18s-20 18 -49 18c-37 0 -74 -10 -96 -19l-18 113c39 14 89 24 145 24c105 0 175 -36 175 -117c0 -43 -31 -73 -66 -88z" />
    <glyph glyph-name="threefifths" unicode="&#x2157;" horiz-adv-x="1115" 
d="M705 700h153l-448 -719h-153zM736 205l30 201h293v-120h-155l-7 -27c7 0 15 1 23 1c76 0 154 -37 154 -135c0 -99 -98 -133 -198 -133c-49 0 -106 10 -151 23l16 117c32 -14 69 -24 100 -24c38 0 61 7 61 26c0 26 -29 32 -57 32c-20 0 -39 -3 -49 -5zM309 489
c44 -11 86 -49 86 -99c0 -87 -94 -117 -196 -117c-63 0 -120 10 -159 24l15 120c33 -14 70 -25 111 -25c36 0 64 4 64 20c0 15 -15 21 -40 21h-78v107h61c24 0 45 2 45 18s-20 18 -49 18c-37 0 -74 -10 -96 -19l-18 113c39 14 89 24 145 24c105 0 175 -36 175 -117
c0 -43 -31 -73 -66 -88z" />
    <glyph glyph-name="threeeighths" unicode="&#x215c;" horiz-adv-x="1115" 
d="M705 700h153l-448 -719h-153zM994 207c50 -16 81 -47 81 -101c0 -93 -82 -114 -186 -114s-186 21 -186 114c0 54 31 85 82 101c-43 14 -67 43 -67 98c0 74 67 108 171 108c105 0 172 -34 172 -108c0 -55 -25 -84 -67 -98zM889 329c-17 0 -23 -16 -23 -36
c0 -21 9 -35 23 -35c15 0 23 14 23 35c0 19 -5 36 -23 36zM889 79c20 0 28 17 28 41c0 27 -6 44 -28 44c-21 0 -28 -17 -28 -44c0 -25 8 -41 28 -41zM309 489c44 -11 86 -49 86 -99c0 -87 -94 -117 -196 -117c-63 0 -120 10 -159 24l15 120c33 -14 70 -25 111 -25
c36 0 64 4 64 20c0 15 -15 21 -40 21h-78v107h61c24 0 45 2 45 18s-20 18 -49 18c-37 0 -74 -10 -96 -19l-18 113c39 14 89 24 145 24c105 0 175 -36 175 -117c0 -43 -31 -73 -66 -88z" />
    <glyph glyph-name="fourfifths" unicode="&#x2158;" horiz-adv-x="1115" 
d="M723 700h153l-448 -719h-153zM743 205l30 201h293v-120h-155l-7 -27c7 0 15 1 23 1c76 0 154 -37 154 -135c0 -99 -98 -133 -198 -133c-49 0 -106 10 -151 23l16 117c32 -14 69 -24 100 -24c38 0 61 7 61 26c0 26 -29 32 -57 32c-20 0 -39 -3 -49 -5zM416 468v-114h-39
v-73h-148v73h-195v113l157 220h186v-219h39zM161 465h71v101z" />
    <glyph glyph-name="fivesixth" unicode="&#x215a;" horiz-adv-x="1115" 
d="M699 700h153l-448 -719h-153zM953 268c90 0 130 -58 130 -134c0 -83 -64 -142 -184 -142c-122 0 -185 81 -185 211c0 131 90 210 202 210c61 0 104 -11 144 -30l-22 -108c-19 9 -55 18 -93 18c-40 0 -75 -15 -79 -50c25 16 51 25 87 25zM904 97c17 0 26 17 26 37
c0 21 -7 38 -26 38c-17 0 -26 -17 -26 -38c0 -20 7 -37 26 -37zM50 486l30 201h293v-120h-155l-7 -27c7 0 15 1 23 1c76 0 154 -37 154 -135c0 -99 -98 -133 -198 -133c-49 0 -106 10 -151 23l16 117c32 -14 69 -24 100 -24c38 0 61 7 61 26c0 26 -29 32 -57 32
c-20 0 -39 -3 -49 -5z" />
    <glyph glyph-name="fiveeighths" unicode="&#x215d;" horiz-adv-x="1115" 
d="M702 700h153l-448 -719h-153zM991 207c50 -16 81 -47 81 -101c0 -93 -82 -114 -186 -114s-186 21 -186 114c0 54 31 85 82 101c-43 14 -67 43 -67 98c0 74 67 108 171 108c105 0 172 -34 172 -108c0 -55 -25 -84 -67 -98zM886 329c-17 0 -23 -16 -23 -36
c0 -21 9 -35 23 -35c15 0 23 14 23 35c0 19 -5 36 -23 36zM886 79c20 0 28 17 28 41c0 27 -6 44 -28 44c-21 0 -28 -17 -28 -44c0 -25 8 -41 28 -41zM53 486l30 201h293v-120h-155l-7 -27c7 0 15 1 23 1c76 0 154 -37 154 -135c0 -99 -98 -133 -198 -133
c-49 0 -106 10 -151 23l16 117c32 -14 69 -24 100 -24c38 0 61 7 61 26c0 26 -29 32 -57 32c-20 0 -39 -3 -49 -5z" />
    <glyph glyph-name="seveneighths" unicode="&#x215e;" horiz-adv-x="1115" 
d="M700 700h153l-448 -719h-153zM989 207c50 -16 81 -47 81 -101c0 -93 -82 -114 -186 -114s-186 21 -186 114c0 54 31 85 82 101c-43 14 -67 43 -67 98c0 74 67 108 171 108c105 0 172 -34 172 -108c0 -55 -25 -84 -67 -98zM884 329c-17 0 -23 -16 -23 -36
c0 -21 9 -35 23 -35c15 0 23 14 23 35c0 19 -5 36 -23 36zM884 79c20 0 28 17 28 41c0 27 -6 44 -28 44c-21 0 -28 -17 -28 -44c0 -25 8 -41 28 -41zM50 687h345v-111c-64 -81 -113 -170 -118 -295h-163c2 97 49 190 107 278h-171v128z" />
    <glyph glyph-name="A.smcp" unicode="&#xe06c;" horiz-adv-x="654" 
d="M464 572l200 -572h-239l-20 81h-157l-19 -81h-239l200 572h274zM327 405l-43 -176h85z" />
    <glyph glyph-name="B.smcp" unicode="&#xe06d;" horiz-adv-x="608" 
d="M482 293c66 -25 108 -72 108 -138c0 -130 -154 -165 -333 -165c-70 0 -154 5 -207 14v562c49 6 134 16 204 16c148 0 309 -32 309 -168c0 -63 -40 -96 -81 -121zM267 431v-83c45 -4 75 15 75 43c0 24 -28 45 -75 40zM267 144c56 -2 94 17 94 45c0 36 -50 48 -94 45v-90z
" />
    <glyph glyph-name="C.smcp" unicode="&#xe06e;" horiz-adv-x="570" 
d="M392 174c35 0 76 11 112 27l50 -172c-61 -20 -138 -39 -217 -39c-187 0 -313 113 -313 296s129 296 313 296c79 0 156 -20 217 -40l-50 -172c-31 14 -72 27 -111 27c-79 0 -120 -48 -120 -111c0 -62 42 -112 119 -112z" />
    <glyph glyph-name="D.smcp" unicode="&#xe06f;" horiz-adv-x="656" 
d="M275 582c214 0 357 -106 357 -299c0 -253 -226 -293 -382 -293c-75 0 -150 6 -200 13v563c69 11 136 16 225 16zM285 408v-237c73 -9 106 56 106 120c0 67 -38 123 -106 117z" />
    <glyph glyph-name="E.smcp" unicode="&#xe070;" horiz-adv-x="567" 
d="M529 413h-239v-52h209v-149h-209v-52h239v-160h-478v572h478v-159z" />
    <glyph glyph-name="F.smcp" unicode="&#xe071;" horiz-adv-x="545" 
d="M524 408h-230v-78h200v-158h-200v-172h-243v572h473v-164z" />
    <glyph glyph-name="G.smcp" unicode="&#xe072;" horiz-adv-x="615" 
d="M367 327h213v-291c-65 -29 -133 -46 -234 -46c-191 0 -323 107 -323 294c0 184 137 298 331 298c90 0 148 -13 213 -30l-33 -175c-41 13 -78 24 -127 24c-104 0 -141 -54 -141 -117c0 -72 39 -121 101 -115v158z" />
    <glyph glyph-name="H.smcp" unicode="&#xe073;" horiz-adv-x="695" 
d="M398 572h246v-572h-246v197h-101v-197h-246v572h246v-191h101v191z" />
    <glyph glyph-name="I.smcp" unicode="&#xe074;" horiz-adv-x="348" 
d="M297 572v-572h-246v572h246z" />
    <glyph glyph-name="J.smcp" unicode="&#xe075;" horiz-adv-x="461" 
d="M82 572h335v-331c0 -161 -73 -251 -245 -251c-57 0 -108 12 -164 38l45 175c21 -6 49 -13 68 -13c33 0 56 10 56 50v138h-95v194z" />
    <glyph glyph-name="K.smcp" unicode="&#xe076;" horiz-adv-x="646" 
d="M460 322l197 -322h-282l-83 180v-180h-241v572h241v-165l89 165h253z" />
    <glyph glyph-name="L.smcp" unicode="&#xe077;" horiz-adv-x="509" 
d="M297 572v-382h200v-190h-446v572h246z" />
    <glyph glyph-name="M.smcp" unicode="&#xe078;" horiz-adv-x="748" 
d="M463 572h234v-572h-223v253l-95 -131h-11l-93 131v-253h-224v572h235l87 -152z" />
    <glyph glyph-name="N.smcp" unicode="&#xe079;" horiz-adv-x="696" 
d="M420 572h225v-572h-215l-153 250v-250h-226v572h234l135 -245v245z" />
    <glyph glyph-name="O.smcp" unicode="&#xe07a;" horiz-adv-x="688" 
d="M344 582c190 0 321 -112 321 -296s-131 -296 -321 -296s-321 112 -321 296s131 296 321 296zM344 182c49 0 71 39 71 104s-22 103 -71 103c-48 0 -71 -38 -71 -103s23 -104 71 -104z" />
    <glyph glyph-name="P.smcp" unicode="&#xe07b;" horiz-adv-x="597" 
d="M257 582c149 0 326 -49 326 -227c0 -158 -141 -220 -295 -220v-135h-238v567c42 6 113 15 207 15zM282 406v-99c43 -1 80 12 80 50c0 33 -34 52 -80 49z" />
    <glyph glyph-name="Q.smcp" unicode="&#xe07c;" horiz-adv-x="689" 
d="M345 582c190 0 321 -112 321 -296c0 -124 -60 -216 -157 -262c20 -18 54 -33 86 -1l71 -98c-110 -104 -310 -115 -367 68c-165 16 -275 124 -275 293c0 184 131 296 321 296zM345 182c49 0 71 39 71 104s-22 103 -71 103c-48 0 -71 -38 -71 -103s23 -104 71 -104z" />
    <glyph glyph-name="R.smcp" unicode="&#xe07d;" horiz-adv-x="620" 
d="M582 383c0 -72 -42 -120 -81 -145c55 -39 81 -98 101 -238h-233c-17 144 -39 167 -86 168v-168h-233v563c54 9 148 19 220 19c163 0 312 -44 312 -199zM278 409v-93c42 -2 82 10 82 48c0 34 -37 46 -82 45z" />
    <glyph glyph-name="S.smcp" unicode="&#xe07e;" horiz-adv-x="554" 
d="M314 407c-31 0 -47 -8 -47 -19c0 -35 263 -11 263 -193c0 -143 -100 -205 -252 -205c-98 0 -185 19 -256 48l38 169c49 -27 124 -45 183 -45c35 0 41 11 41 20c0 36 -246 9 -246 195c0 133 98 205 248 205c76 0 155 -19 225 -45l-38 -167c-39 18 -110 37 -159 37z" />
    <glyph glyph-name="T.smcp" unicode="&#xe07f;" horiz-adv-x="562" 
d="M402 380v-380h-242v380h-147v192h536v-192h-147z" />
    <glyph glyph-name="U.smcp" unicode="&#xe080;" horiz-adv-x="644" 
d="M360 572h240v-342c0 -165 -106 -240 -279 -240s-277 75 -277 240v342h238v-357c0 -25 13 -45 39 -45c27 0 39 20 39 45v357z" />
    <glyph glyph-name="V.smcp" unicode="&#xe081;" horiz-adv-x="629" 
d="M188 0l-198 572h249l76 -321l75 321h249l-197 -572h-254z" />
    <glyph glyph-name="W.smcp" unicode="&#xe082;" horiz-adv-x="868" 
d="M434 266l-63 -266h-236l-138 572h247l45 -301l59 301h172l59 -301l45 301h247l-138 -572h-235z" />
    <glyph glyph-name="X.smcp" unicode="&#xe083;" horiz-adv-x="656" 
d="M5 572h260l63 -140l62 140h262l-174 -276l182 -296h-260l-72 149l-71 -149h-261l179 295z" />
    <glyph glyph-name="Y.smcp" unicode="&#xe084;" horiz-adv-x="620" 
d="M378 572h255l-200 -385v-187h-246v187l-200 385h255l68 -195z" />
    <glyph glyph-name="Z.smcp" unicode="&#xe085;" horiz-adv-x="570" 
d="M49 572h477v-170l-194 -218h203v-184h-507v147l219 242h-198v183z" />
    <glyph glyph-name="AE.smcp" horiz-adv-x="884" 
d="M445 0l-8 80h-180l-34 -80h-248l278 572h593v-159h-225l7 -52h188v-149h-168l7 -52h191v-160h-401zM400 413l-79 -185h101l-18 185h-4z" />
    <glyph glyph-name="AEacute.smcp" horiz-adv-x="884" 
d="M445 0l-8 80h-180l-34 -80h-248l278 572h593v-159h-225l7 -52h188v-149h-168l7 -52h191v-160h-401zM400 413l-79 -185h101l-18 185h-4zM665 787l-164 -155h-145l110 155h199z" />
    <glyph glyph-name="AEmacron.smcp" horiz-adv-x="884" 
d="M317 637v101h357v-101h-357zM445 0l-8 80h-180l-34 -80h-248l278 572h593v-159h-225l7 -52h188v-149h-168l7 -52h191v-160h-401zM400 413l-79 -185h101l-18 185h-4z" />
    <glyph glyph-name="Aacute.smcp" horiz-adv-x="654" 
d="M464 572l200 -572h-239l-20 81h-157l-19 -81h-239l200 572h274zM327 405l-43 -176h85zM543 787l-164 -155h-145l110 155h199z" />
    <glyph glyph-name="Abreve.smcp" horiz-adv-x="654" 
d="M464 572l200 -572h-239l-20 81h-157l-19 -81h-239l200 572h274zM327 405l-43 -176h85zM423 780h91c-9 -103 -82 -154 -187 -154s-178 51 -187 154h91c10 -42 52 -60 96 -60s86 18 96 60z" />
    <glyph glyph-name="Acaron.smcp" horiz-adv-x="654" 
d="M464 572l200 -572h-239l-20 81h-157l-19 -81h-239l200 572h274zM327 405l-43 -176h85zM543 787l-119 -155h-194l-119 155h145l71 -70l71 70h145z" />
    <glyph glyph-name="Acircumflex.smcp" horiz-adv-x="654" 
d="M464 572l200 -572h-239l-20 81h-157l-19 -81h-239l200 572h274zM327 405l-43 -176h85zM424 787l119 -155h-145l-71 70l-71 -70h-145l119 155h194z" />
    <glyph glyph-name="Adblgrave.smcp" horiz-adv-x="654" 
d="M409 632l-164 155h199l110 -155h-145zM148 632l-164 155h199l110 -155h-145zM464 572l200 -572h-239l-20 81h-157l-19 -81h-239l200 572h274zM327 405l-43 -176h85z" />
    <glyph glyph-name="Adieresis.smcp" horiz-adv-x="654" 
d="M464 572l200 -572h-239l-20 81h-157l-19 -81h-239l200 572h274zM327 405l-43 -176h85zM120 637v131h163v-131h-163zM372 637v131h163v-131h-163z" />
    <glyph glyph-name="Adieresismacron.smcp" horiz-adv-x="654" 
d="M464 572l200 -572h-239l-20 81h-157l-19 -81h-239l200 572h274zM327 405l-43 -176h85zM120 634v131h163v-131h-163zM372 634v131h163v-131h-163zM149 816v101h357v-101h-357z" />
    <glyph glyph-name="Adotaccentmacron.smcp" horiz-adv-x="654" 
d="M464 572l200 -572h-239l-20 81h-157l-19 -81h-239l200 572h274zM327 405l-43 -176h85zM149 815v101h357v-101h-357zM246 634v131h163v-131h-163z" />
    <glyph glyph-name="Agrave.smcp" horiz-adv-x="654" 
d="M464 572l200 -572h-239l-20 81h-157l-19 -81h-239l200 572h274zM327 405l-43 -176h85zM278 632l-164 155h199l110 -155h-145z" />
    <glyph glyph-name="Ainvertedbreve.smcp" horiz-adv-x="654" 
d="M514 626h-91c-10 42 -52 60 -96 60s-86 -18 -96 -60h-91c9 103 82 154 187 154s178 -51 187 -154zM464 572l200 -572h-239l-20 81h-157l-19 -81h-239l200 572h274zM327 405l-43 -176h85z" />
    <glyph glyph-name="Amacron.smcp" horiz-adv-x="654" 
d="M464 572l200 -572h-239l-20 81h-157l-19 -81h-239l200 572h274zM327 405l-43 -176h85zM149 637v101h357v-101h-357z" />
    <glyph glyph-name="Aogonek.smcp" horiz-adv-x="654" 
d="M684 -123l39 -25c-25 -36 -73 -63 -135 -63c-54 0 -116 22 -116 82c0 66 70 110 101 129h-148l-20 81h-157l-19 -81h-239l200 572h274l200 -572c-50 -37 -80 -68 -80 -102c0 -32 25 -41 45 -41c21 0 43 8 55 20zM327 405l-43 -176h85z" />
    <glyph glyph-name="Aring.smcp" horiz-adv-x="654" 
d="M464 572l200 -572h-239l-20 81h-157l-19 -81h-239l200 572h274zM327 405l-43 -176h85zM327 626c-66 0 -123 44 -123 113s57 113 123 113s123 -44 123 -113s-57 -113 -123 -113zM327 788c-29 0 -52 -20 -52 -49s23 -49 52 -49s52 20 52 49s-23 49 -52 49z" />
    <glyph glyph-name="Aringacute.smcp" horiz-adv-x="654" 
d="M531 1056l-164 -155h-145l110 155h199zM464 572l200 -572h-239l-20 81h-157l-19 -81h-239l200 572h274zM327 405l-43 -176h85zM327 626c-66 0 -123 44 -123 113s57 113 123 113s123 -44 123 -113s-57 -113 -123 -113zM327 788c-29 0 -52 -20 -52 -49s23 -49 52 -49
s52 20 52 49s-23 49 -52 49z" />
    <glyph glyph-name="Aringbelow.smcp" horiz-adv-x="654" 
d="M464 572l200 -572h-239l-20 81h-157l-19 -81h-239l200 572h274zM327 405l-43 -176h85zM327 -293c-66 0 -123 44 -123 113s57 113 123 113s123 -44 123 -113s-57 -113 -123 -113zM327 -131c-29 0 -52 -20 -52 -49s23 -49 52 -49s52 20 52 49s-23 49 -52 49z" />
    <glyph glyph-name="Atilde.smcp" horiz-adv-x="654" 
d="M464 572l200 -572h-239l-20 81h-157l-19 -81h-239l200 572h274zM327 405l-43 -176h85zM120 632c0 64 46 154 126 154c77 0 109 -50 148 -50c20 0 41 24 49 55h83c-1 -73 -54 -162 -128 -162c-76 0 -100 49 -150 49c-22 0 -40 -23 -47 -46h-81z" />
    <glyph glyph-name="Bdotaccent.smcp" horiz-adv-x="608" 
d="M482 293c66 -25 108 -72 108 -138c0 -130 -154 -165 -333 -165c-70 0 -154 5 -207 14v562c49 6 134 16 204 16c148 0 309 -32 309 -168c0 -63 -40 -96 -81 -121zM267 431v-83c45 -4 75 15 75 43c0 24 -28 45 -75 40zM267 144c56 -2 94 17 94 45c0 36 -50 48 -94 45v-90z
M203 637v131h163v-131h-163z" />
    <glyph glyph-name="Bdotbelow.smcp" horiz-adv-x="608" 
d="M482 293c66 -25 108 -72 108 -138c0 -130 -154 -165 -333 -165c-70 0 -154 5 -207 14v562c49 6 134 16 204 16c148 0 309 -32 309 -168c0 -63 -40 -96 -81 -121zM267 431v-83c45 -4 75 15 75 43c0 24 -28 45 -75 40zM267 144c56 -2 94 17 94 45c0 36 -50 48 -94 45v-90z
M216 -204v131h163v-131h-163z" />
    <glyph glyph-name="Blinebelow.smcp" horiz-adv-x="608" 
d="M482 293c66 -25 108 -72 108 -138c0 -130 -154 -165 -333 -165c-70 0 -154 5 -207 14v562c49 6 134 16 204 16c148 0 309 -32 309 -168c0 -63 -40 -96 -81 -121zM267 431v-83c45 -4 75 15 75 43c0 24 -28 45 -75 40zM267 144c56 -2 94 17 94 45c0 36 -50 48 -94 45v-90z
M118 -177v101h357v-101h-357z" />
    <glyph glyph-name="Cacute.smcp" horiz-adv-x="570" 
d="M392 174c35 0 76 11 112 27l50 -172c-61 -20 -138 -39 -217 -39c-187 0 -313 113 -313 296s129 296 313 296c79 0 156 -20 217 -40l-50 -172c-31 14 -72 27 -111 27c-79 0 -120 -48 -120 -111c0 -62 42 -112 119 -112zM514 787l-164 -155h-145l110 155h199z" />
    <glyph glyph-name="Ccaron.smcp" horiz-adv-x="570" 
d="M392 174c35 0 76 11 112 27l50 -172c-61 -20 -138 -39 -217 -39c-187 0 -313 113 -313 296s129 296 313 296c79 0 156 -20 217 -40l-50 -172c-31 14 -72 27 -111 27c-79 0 -120 -48 -120 -111c0 -62 42 -112 119 -112zM520 787l-119 -155h-194l-119 155h145l71 -70l71 70
h145z" />
    <glyph glyph-name="Ccedilla.smcp" horiz-adv-x="570" 
d="M172 -207l26 58c37 -8 122 -24 122 26c0 26 -53 33 -86 35l47 82c-156 20 -257 128 -257 292c0 183 129 296 313 296c79 0 156 -20 217 -40l-50 -172c-31 14 -72 27 -111 27c-79 0 -120 -48 -120 -111c0 -62 42 -112 119 -112c35 0 76 11 112 27l50 -172
c-58 -19 -129 -37 -203 -39l-31 -48c64 -2 117 -35 117 -84c0 -50 -41 -91 -125 -91c-55 0 -94 8 -140 26z" />
    <glyph glyph-name="Ccedillaacute.smcp" horiz-adv-x="570" 
d="M172 -207l26 58c37 -8 122 -24 122 26c0 26 -53 33 -86 35l47 82c-156 20 -257 128 -257 292c0 183 129 296 313 296c79 0 156 -20 217 -40l-50 -172c-31 14 -72 27 -111 27c-79 0 -120 -48 -120 -111c0 -62 42 -112 119 -112c35 0 76 11 112 27l50 -172
c-58 -19 -129 -37 -203 -39l-31 -48c64 -2 117 -35 117 -84c0 -50 -41 -91 -125 -91c-55 0 -94 8 -140 26zM514 787l-164 -155h-145l110 155h199z" />
    <glyph glyph-name="Ccircumflex.smcp" horiz-adv-x="570" 
d="M392 174c35 0 76 11 112 27l50 -172c-61 -20 -138 -39 -217 -39c-187 0 -313 113 -313 296s129 296 313 296c79 0 156 -20 217 -40l-50 -172c-31 14 -72 27 -111 27c-79 0 -120 -48 -120 -111c0 -62 42 -112 119 -112zM400 787l119 -155h-145l-71 70l-71 -70h-145
l119 155h194z" />
    <glyph glyph-name="Cdotaccent.smcp" horiz-adv-x="570" 
d="M392 174c35 0 76 11 112 27l50 -172c-61 -20 -138 -39 -217 -39c-187 0 -313 113 -313 296s129 296 313 296c79 0 156 -20 217 -40l-50 -172c-31 14 -72 27 -111 27c-79 0 -120 -48 -120 -111c0 -62 42 -112 119 -112zM220 637v131h163v-131h-163z" />
    <glyph glyph-name="Dcaron.smcp" horiz-adv-x="656" 
d="M275 582c214 0 357 -106 357 -299c0 -253 -226 -293 -382 -293c-75 0 -150 6 -200 13v563c69 11 136 16 225 16zM285 408v-237c73 -9 106 56 106 120c0 67 -38 123 -106 117zM519 787l-119 -155h-194l-119 155h145l71 -70l71 70h145z" />
    <glyph glyph-name="Dcedilla.smcp" horiz-adv-x="656" 
d="M166 -207l26 58c37 -8 122 -24 122 26c0 26 -53 33 -86 35l45 78h-23c-75 0 -150 6 -200 13v563c69 11 136 16 225 16c214 0 357 -106 357 -299c0 -203 -145 -269 -283 -287l-35 -54c64 -2 117 -35 117 -84c0 -50 -41 -91 -125 -91c-55 0 -94 8 -140 26zM285 408v-237
c73 -9 106 56 106 120c0 67 -38 123 -106 117z" />
    <glyph glyph-name="Dcircumflexbelow.smcp" horiz-adv-x="656" 
d="M275 582c214 0 357 -106 357 -299c0 -253 -226 -293 -382 -293c-75 0 -150 6 -200 13v563c69 11 136 16 225 16zM285 408v-237c73 -9 106 56 106 120c0 67 -38 123 -106 117zM403 -73l119 -155h-145l-71 70l-71 -70h-145l119 155h194z" />
    <glyph glyph-name="Dcroat.smcp" horiz-adv-x="664" 
d="M5 255v77h53v234c69 11 136 16 225 16c214 0 357 -106 357 -299c0 -253 -226 -293 -382 -293c-75 0 -150 6 -200 13v252h-53zM283 408v-76h74v-77h-74v-84c82 -8 121 56 121 120c0 67 -41 121 -121 117z" />
    <glyph glyph-name="Ddotaccent.smcp" horiz-adv-x="656" 
d="M275 582c214 0 357 -106 357 -299c0 -253 -226 -293 -382 -293c-75 0 -150 6 -200 13v563c69 11 136 16 225 16zM285 408v-237c73 -9 106 56 106 120c0 67 -38 123 -106 117zM225 637v131h163v-131h-163z" />
    <glyph glyph-name="Ddotbelow.smcp" horiz-adv-x="656" 
d="M275 582c214 0 357 -106 357 -299c0 -253 -226 -293 -382 -293c-75 0 -150 6 -200 13v563c69 11 136 16 225 16zM285 408v-237c73 -9 106 56 106 120c0 67 -38 123 -106 117zM233 -204v131h163v-131h-163z" />
    <glyph glyph-name="Dlinebelow.smcp" horiz-adv-x="656" 
d="M275 582c214 0 357 -106 357 -299c0 -253 -226 -293 -382 -293c-75 0 -150 6 -200 13v563c69 11 136 16 225 16zM285 408v-237c73 -9 106 56 106 120c0 67 -38 123 -106 117zM134 -177v101h357v-101h-357z" />
    <glyph glyph-name="Eacute.smcp" horiz-adv-x="567" 
d="M529 413h-239v-52h209v-149h-209v-52h239v-160h-478v572h478v-159zM480 787l-164 -155h-145l110 155h199z" />
    <glyph glyph-name="Ebreve.smcp" horiz-adv-x="567" 
d="M529 413h-239v-52h209v-149h-209v-52h239v-160h-478v572h478v-159zM383 780h91c-9 -103 -82 -154 -187 -154s-178 51 -187 154h91c10 -42 52 -60 96 -60s86 18 96 60z" />
    <glyph glyph-name="Ecaron.smcp" horiz-adv-x="567" 
d="M529 413h-239v-52h209v-149h-209v-52h239v-160h-478v572h478v-159zM506 787l-119 -155h-194l-119 155h145l71 -70l71 70h145z" />
    <glyph glyph-name="Ecedillabreve.smcp" horiz-adv-x="567" 
d="M161 -207l26 58c37 -8 122 -24 122 26c0 26 -53 33 -86 35l51 88h-223v572h478v-159h-239v-52h209v-149h-209v-52h239v-160h-182l-38 -58c64 -2 117 -35 117 -84c0 -50 -41 -91 -125 -91c-55 0 -94 8 -140 26zM383 780h91c-9 -103 -82 -154 -187 -154s-178 51 -187 154
h91c10 -42 52 -60 96 -60s86 18 96 60z" />
    <glyph glyph-name="Ecircumflex.smcp" horiz-adv-x="567" 
d="M529 413h-239v-52h209v-149h-209v-52h239v-160h-478v572h478v-159zM388 787l119 -155h-145l-71 70l-71 -70h-145l119 155h194z" />
    <glyph glyph-name="Ecircumflexbelow.smcp" horiz-adv-x="567" 
d="M529 413h-239v-52h209v-149h-209v-52h239v-160h-478v572h478v-159zM388 -73l119 -155h-145l-71 70l-71 -70h-145l119 155h194z" />
    <glyph glyph-name="Edblgrave.smcp" horiz-adv-x="567" 
d="M386 632l-164 155h199l110 -155h-145zM125 632l-164 155h199l110 -155h-145zM529 413h-239v-52h209v-149h-209v-52h239v-160h-478v572h478v-159z" />
    <glyph glyph-name="Edieresis.smcp" horiz-adv-x="567" 
d="M529 413h-239v-52h209v-149h-209v-52h239v-160h-478v572h478v-159zM82 637v131h163v-131h-163zM334 637v131h163v-131h-163z" />
    <glyph glyph-name="Edotaccent.smcp" horiz-adv-x="567" 
d="M529 413h-239v-52h209v-149h-209v-52h239v-160h-478v572h478v-159zM210 637v131h163v-131h-163z" />
    <glyph glyph-name="Egrave.smcp" horiz-adv-x="567" 
d="M529 413h-239v-52h209v-149h-209v-52h239v-160h-478v572h478v-159zM249 632l-164 155h199l110 -155h-145z" />
    <glyph glyph-name="Einvertedbreve.smcp" horiz-adv-x="567" 
d="M480 626h-91c-10 42 -52 60 -96 60s-86 -18 -96 -60h-91c9 103 82 154 187 154s178 -51 187 -154zM529 413h-239v-52h209v-149h-209v-52h239v-160h-478v572h478v-159z" />
    <glyph glyph-name="Emacron.smcp" horiz-adv-x="567" 
d="M529 413h-239v-52h209v-149h-209v-52h239v-160h-478v572h478v-159zM111 637v101h357v-101h-357z" />
    <glyph glyph-name="Emacronacute.smcp" horiz-adv-x="567" 
d="M488 954l-164 -155h-145l110 155h199zM529 413h-239v-52h209v-149h-209v-52h239v-160h-478v572h478v-159zM111 634v101h357v-101h-357z" />
    <glyph glyph-name="Emacrongrave.smcp" horiz-adv-x="567" 
d="M253 799l-164 155h199l110 -155h-145zM529 413h-239v-52h209v-149h-209v-52h239v-160h-478v572h478v-159zM111 634v101h357v-101h-357z" />
    <glyph glyph-name="Eogonek.smcp" horiz-adv-x="567" 
d="M550 -123l39 -25c-25 -36 -73 -63 -135 -63c-54 0 -116 24 -116 84c0 66 69 108 100 127h-387v572h478v-159h-239v-52h209v-149h-209v-52h239v-160c-50 -37 -79 -66 -79 -100c0 -32 25 -43 45 -43c21 0 43 8 55 20z" />
    <glyph glyph-name="Etildebelow.smcp" horiz-adv-x="567" 
d="M529 413h-239v-52h209v-149h-209v-52h239v-160h-478v572h478v-159zM83 -226c0 64 46 154 126 154c77 0 109 -50 148 -50c20 0 41 24 49 55h83c-1 -73 -54 -162 -128 -162c-76 0 -100 49 -150 49c-22 0 -40 -23 -47 -46h-81z" />
    <glyph glyph-name="Fdotaccent.smcp" horiz-adv-x="545" 
d="M524 408h-230v-78h200v-158h-200v-172h-243v572h473v-164zM210 637v131h163v-131h-163z" />
    <glyph glyph-name="Gacute.smcp" horiz-adv-x="615" 
d="M367 327h213v-291c-65 -29 -133 -46 -234 -46c-191 0 -323 107 -323 294c0 184 137 298 331 298c90 0 148 -13 213 -30l-33 -175c-41 13 -78 24 -127 24c-104 0 -141 -54 -141 -117c0 -72 39 -121 101 -115v158zM522 787l-164 -155h-145l110 155h199z" />
    <glyph glyph-name="Gbreve.smcp" horiz-adv-x="615" 
d="M367 327h213v-291c-65 -29 -133 -46 -234 -46c-191 0 -323 107 -323 294c0 184 137 298 331 298c90 0 148 -13 213 -30l-33 -175c-41 13 -78 24 -127 24c-104 0 -141 -54 -141 -117c0 -72 39 -121 101 -115v158zM415 780h91c-9 -103 -82 -154 -187 -154s-178 51 -187 154
h91c10 -42 52 -60 96 -60s86 18 96 60z" />
    <glyph glyph-name="Gcaron.smcp" horiz-adv-x="615" 
d="M367 327h213v-291c-65 -29 -133 -46 -234 -46c-191 0 -323 107 -323 294c0 184 137 298 331 298c90 0 148 -13 213 -30l-33 -175c-41 13 -78 24 -127 24c-104 0 -141 -54 -141 -117c0 -72 39 -121 101 -115v158zM533 787l-119 -155h-194l-119 155h145l71 -70l71 70h145z
" />
    <glyph glyph-name="Gcedilla.smcp" horiz-adv-x="616" 
d="M187 -207l26 58c37 -8 122 -24 122 26c0 26 -53 33 -86 35l47 81c-163 17 -272 121 -272 291c0 184 137 298 331 298c90 0 148 -13 213 -30l-33 -175c-41 13 -78 24 -127 24c-104 0 -141 -54 -141 -117c0 -72 39 -121 101 -115v158h213v-291c-61 -27 -124 -44 -215 -46
l-31 -48c64 -2 117 -35 117 -84c0 -50 -41 -91 -125 -91c-55 0 -94 8 -140 26z" />
    <glyph glyph-name="Gcircumflex.smcp" horiz-adv-x="615" 
d="M367 327h213v-291c-65 -29 -133 -46 -234 -46c-191 0 -323 107 -323 294c0 184 137 298 331 298c90 0 148 -13 213 -30l-33 -175c-41 13 -78 24 -127 24c-104 0 -141 -54 -141 -117c0 -72 39 -121 101 -115v158zM420 787l119 -155h-145l-71 70l-71 -70h-145l119 155h194z
" />
    </font>
</defs>
</svg>
